<?xml version="1.0" encoding="UTF-8"?>
<!DOCTYPE svg PUBLIC "-//W3C//DTD SVG 1.1//EN" "http://www.w3.org/Graphics/SVG/1.1/DTD/svg11.dtd">
<!-- Creator: CorelDRAW -->
<svg xmlns="http://www.w3.org/2000/svg" xml:space="preserve" width="1427px" height="249px" version="1.1" style="shape-rendering:geometricPrecision; text-rendering:geometricPrecision; image-rendering:optimizeQuality; fill-rule:evenodd; clip-rule:evenodd"
viewBox="0 0 1426.87 248.69"
 xmlns:xlink="http://www.w3.org/1999/xlink"
 xmlns:xodm="http://www.corel.com/coreldraw/odm/2003">
 <defs>
  <style type="text/css">
   <![CDATA[
    .fil0 {fill:#09B0EE}
    .fil1 {fill:#133E86}
    .fil3 {fill:#0AADEE;fill-rule:nonzero}
    .fil2 {fill:#133E86;fill-rule:nonzero}
   ]]>
  </style>
 </defs>
 <g id="Layer_x0020_1">
  <metadata id="CorelCorpID_0Corel-Layer"/>
  <g id="_2192535049840">
   <g>
    <g>
     <path class="fil0" d="M906.03 97.7c9.98,-12.47 34.92,-17.34 53.42,-8.85 14.65,6.72 29.72,18.66 46.18,25.79l-0.25 -44.64c-5.51,-4.69 -32.97,-19.69 -38.91,-22 -7.6,6.25 -13.15,11.97 -25.73,12.14 -11.23,0.15 -20.54,-4.28 -25.05,-11.66 -5.87,1.79 -28.99,14.76 -34.87,19.01 -11.74,8.47 -15.52,26.61 -10.46,41.24 4.85,14.02 55.87,40.09 61.95,41.91 -0.02,-51.51 3.91,-34.06 -26.28,-52.94z"/>
     <path class="fil0" d="M913.61 34.39c8.86,31.87 59.35,22.32 52.65,-13.38 -2.42,-12.92 -15.2,-24.17 -33.2,-20.2 -12.44,2.74 -23.97,17.33 -19.45,33.58z"/>
    </g>
    <g>
     <path class="fil1" d="M968.28 150.98c-9.98,12.48 -34.92,17.35 -53.41,8.86 -14.65,-6.72 -29.72,-18.67 -46.19,-25.79l0.26 44.64c5.51,4.69 32.97,19.69 38.91,22 7.59,-6.26 13.15,-11.97 25.73,-12.14 11.22,-0.15 20.54,4.28 25.05,11.66 5.87,-1.79 28.98,-14.76 34.87,-19.01 11.73,-8.47 15.52,-26.61 10.46,-41.24 -4.85,-14.02 -55.88,-40.09 -61.95,-41.91 0.02,51.51 -3.91,34.05 26.27,52.93z"/>
     <path class="fil1" d="M960.71 214.3c-8.86,-31.87 -59.36,-22.32 -52.65,13.38 2.42,12.92 15.2,24.17 33.2,20.2 12.44,-2.74 23.97,-17.34 19.45,-33.58z"/>
    </g>
   </g>
   <path class="fil2" d="M59.8 208.39c-19.77,0 -34.68,-5.49 -44.73,-16.44 -10.05,-10.94 -15.07,-26.35 -15.07,-46.27l0 -16.04c0,-19.78 4.99,-35.12 14.94,-45.99 9.95,-10.87 24.7,-16.29 44.28,-16.29 6.16,0 11.76,0.53 16.82,1.62 5.06,1.09 9.59,2.5 13.61,4.22 4.02,1.72 7.46,3.55 10.31,5.45l1.75 20.27c-4.92,-3.38 -10.69,-6.33 -17.31,-8.87 -6.61,-2.53 -14.36,-3.8 -23.24,-3.8 -13.09,0 -23.01,3.8 -29.79,11.4 -6.77,7.6 -10.17,18.3 -10.17,32.09l0 15.52c0,13.79 3.43,24.53 10.27,32.23 6.84,7.71 17.12,11.58 30.86,11.58 8.49,0 16.11,-1.27 22.85,-3.77 6.74,-2.49 12.61,-5.48 17.6,-9l-1.65 20.58c-2.85,1.9 -6.32,3.73 -10.41,5.49 -4.08,1.76 -8.68,3.2 -13.84,4.33 -5.15,1.12 -10.86,1.69 -17.08,1.69zm712.86 -3.06l0 -129.32 20.62 0 0 129.32 -20.62 0zm-45.02 -116.54l0 -18.37 110.56 0 0 18.37 -110.56 0zm-58.05 119.6c-19.78,0 -34.68,-5.49 -44.73,-16.44 -10.05,-10.94 -15.07,-26.35 -15.07,-46.27l0 -16.04c0,-19.78 4.99,-35.12 14.94,-45.99 9.95,-10.87 24.7,-16.29 44.27,-16.29 6.16,0 11.77,0.53 16.83,1.62 5.05,1.09 9.59,2.5 13.61,4.22 4.02,1.72 7.45,3.55 10.31,5.45l1.75 20.27c-4.93,-3.38 -10.7,-6.33 -17.31,-8.87 -6.61,-2.53 -14.36,-3.8 -23.24,-3.8 -13.1,0 -23.02,3.8 -29.79,11.4 -6.77,7.6 -10.18,18.3 -10.18,32.09l0 15.52c0,13.79 3.44,24.53 10.28,32.23 6.84,7.71 17.11,11.58 30.85,11.58 8.5,0 16.12,-1.27 22.86,-3.77 6.74,-2.49 12.6,-5.48 17.6,-9l-1.66 20.58c-2.85,1.9 -6.32,3.73 -10.4,5.49 -4.09,1.76 -8.69,3.2 -13.84,4.33 -5.16,1.12 -10.86,1.69 -17.08,1.69zm-174.26 -3.06l0 -134.91 20.23 0 0 134.91 -20.23 0zm3.41 0l0 -18.48 92.86 0 0 18.48 -92.86 0zm7.68 -59.54l0 -18.16 82.36 0 0 18.16 -82.36 0zm-7.78 -57l0 -18.37 91.99 0 0 18.37 -91.99 0zm-112.61 -18.37l59.9 111.89 1.46 0 -0.78 -55.94 0 -55.95 20.32 0 0 134.91 -29.46 0 -60.77 -113.48 -0.25 0 0 113.48 -0.43 0 -20.33 0 -8.7 0 -60.78 -113.48 -1.45 0 0.77 59.22 0 54.26 -20.32 0 0 -134.91 30.34 0 59.9 111.89 0.24 0 0 -111.89 0.44 0 20.32 0 9.58 0zm-205.75 137.97c-19.57,0 -34.55,-5.46 -44.92,-16.33 -10.37,-10.87 -15.56,-26.32 -15.56,-46.38l0 -15.72c0,-20.06 5.19,-35.54 15.56,-46.42 10.37,-10.87 25.35,-16.29 44.92,-16.29 19.65,0 34.65,5.42 44.99,16.29 10.34,10.88 15.5,26.36 15.5,46.42l0 15.72c0,20.06 -5.16,35.51 -15.5,46.38 -10.34,10.87 -25.34,16.33 -44.99,16.33zm0 -18.48c13.03,0 22.85,-3.87 29.44,-11.57 6.57,-7.71 9.85,-18.44 9.85,-32.23l0 -16.68c0,-13.8 -3.28,-24.53 -9.85,-32.2 -6.59,-7.67 -16.41,-11.5 -29.44,-11.5 -13.03,0 -22.82,3.83 -29.4,11.5 -6.58,7.67 -9.88,18.4 -9.88,32.2l0 16.68c0,13.79 3.3,24.52 9.88,32.23 6.58,7.7 16.37,11.57 29.4,11.57z"/>
   <g>
    <path class="fil3" d="M1062.61 205.33l0 -123.72 37.44 0 0 123.72 -37.44 0zm-40.55 -102.29l0 -32.62 118.54 0 0 32.62 -118.54 0z"/>
    <path class="fil3" d="M1218.97 209.44c-21,0 -36.66,-5.28 -46.96,-15.83 -10.31,-10.56 -15.46,-26.15 -15.46,-46.76l0 -76.43 37.34 0 0 76.64c0,9.43 2.07,16.57 6.22,21.42 4.15,4.86 10.44,7.29 18.86,7.29 8.37,0 14.62,-2.43 18.77,-7.29 4.15,-4.85 6.23,-11.99 6.23,-21.42l0 -76.64 37.33 0 0 76.43c0,20.61 -5.12,36.2 -15.36,46.76 -10.24,10.55 -25.9,15.83 -46.97,15.83z"/>
    <path class="fil3" d="M1330.51 205.33l0 -33.26 32.87 0c8.49,0 14.84,-2.42 19.06,-7.28 4.21,-4.86 6.32,-11.58 6.32,-20.16l0 -13.94c0,-8.58 -2.11,-15.27 -6.32,-20.05 -4.22,-4.79 -10.57,-7.18 -19.06,-7.18l-32.87 0 0 -33.04 33.94 0c20.68,0 36.27,5.17 46.74,15.55 10.47,10.38 15.68,25.27 15.68,44.62l0 14.04c0,19.49 -5.21,34.48 -15.65,44.97 -10.44,10.48 -26.03,15.73 -46.77,15.73l-33.94 0zm-27.03 0l0 -134.91 36.95 0 0 134.91 -36.95 0z"/>
   </g>
  </g>
 </g>
</svg>
