<?xml version="1.0" encoding="UTF-8"?>
<!DOCTYPE svg PUBLIC "-//W3C//DTD SVG 1.1//EN" "http://www.w3.org/Graphics/SVG/1.1/DTD/svg11.dtd">
<!-- Creator: CorelDRAW -->
<svg xmlns="http://www.w3.org/2000/svg" xml:space="preserve" width="1912px" height="406px" version="1.1" style="shape-rendering:geometricPrecision; text-rendering:geometricPrecision; image-rendering:optimizeQuality; fill-rule:evenodd; clip-rule:evenodd"
viewBox="0 0 1911.87 406.44"
 xmlns:xlink="http://www.w3.org/1999/xlink"
 xmlns:xodm="http://www.corel.com/coreldraw/odm/2003">
 <defs>
  <style type="text/css">
   <![CDATA[
    .fil1 {fill:#0AADEE;fill-rule:nonzero}
    .fil0 {fill:#133E86;fill-rule:nonzero}
   ]]>
  </style>
 </defs>
 <g id="Layer_x0020_1">
  <metadata id="CorelCorpID_0Corel-Layer"/>
  <g id="_2192966455952">
   <path class="fil0" d="M9.36 255.99c-6.24,-13.99 -9.36,-28.63 -9.36,-44.02 0,-15.33 3.12,-29.97 9.36,-43.96 6.3,-13.99 14.75,-25.99 25.36,-36.1 10.67,-10.07 23.32,-18.14 38.02,-24.11 14.64,-5.97 30.01,-8.99 46.12,-8.99 16.17,0 31.49,2.96 45.96,8.88 14.41,5.97 27.35,14.15 38.64,24.54 2.44,2.31 3.63,5.27 3.63,8.82 0,3.55 -1.19,6.51 -3.63,8.83 -2.55,2.42 -5.67,3.66 -9.31,3.66 -3.68,0 -6.92,-1.24 -9.81,-3.66 -8.57,-7.86 -18.44,-14.1 -29.79,-18.62 -11.29,-4.47 -23.2,-6.73 -35.69,-6.73 -16.62,0 -32.05,3.88 -46.29,11.63 -14.24,7.8 -25.53,18.4 -33.88,31.85 -8.28,13.45 -12.42,28.14 -12.42,43.96 0,15.88 4.14,30.56 12.42,44.02 8.35,13.45 19.64,24.05 33.88,31.85 14.24,7.75 29.67,11.62 46.29,11.62 12.6,0 24.57,-2.2 35.86,-6.67 11.35,-4.46 21.16,-10.71 29.62,-18.67 2.55,-2.42 5.79,-3.66 9.81,-3.66 3.97,0 7.1,1.24 9.31,3.66 2.44,2.64 3.63,5.65 3.63,9.04 0,3.44 -1.19,6.29 -3.63,8.61 -11.12,10.49 -23.89,18.72 -38.41,24.59 -14.53,5.86 -29.9,8.82 -46.19,8.82 -16.11,0 -31.48,-3.01 -46.12,-8.98 -14.7,-5.98 -27.35,-14.05 -38.02,-24.11 -10.61,-10.11 -19.06,-22.11 -25.36,-36.1zm621.57 -207.86c7.43,2.98 12.88,9.03 19.4,12.54l2.52 -2.04c18.08,-16.17 52.27,-16.31 74.2,-9.81 5.82,1.73 11.58,4.14 15.95,8.14l4.04 3.73c4.09,-2.09 7.26,-5.74 11.52,-6.89 -0.02,5 0.06,9.99 0.06,14.98 0,9.38 -1.93,5.51 -2.71,10.59 -0.66,4.21 0.35,5.24 -1.41,11.52 -0.47,1.68 -1.39,4.36 -1.64,5.88 -1.63,10.17 16.17,4.54 16.17,4.54 1.64,-2.76 0.97,-2.89 -0.33,-6.87 -3.07,-9.41 -3.05,-14.95 -4.64,-18.48 -1.92,-4.24 -1,-11.32 -1.06,-16.72 -0.11,-10.49 -1.15,-6.6 3.64,-12.4 -20.82,-16.38 -46.04,-31.79 -67.96,-46.84 -10.16,5.14 -66.25,45.24 -67.75,48.13zm112.97 41.51c0.39,-5.8 0.93,-16.56 0.41,-22.05 -1.91,-20.27 -57.74,-23.61 -81.54,-11.59 -11.97,6.04 -10.62,14.27 -9.53,33.17 -3.56,6.93 -5.56,14.79 -5.56,23.11 0,21.39 13.23,39.69 31.95,47.17 -3.23,0.85 -6.41,1.91 -9.55,3.18 -9.59,3.93 -17.87,9.09 -24.8,15.6 -6.92,6.57 -12.42,14.32 -16.51,23.36 -4.14,9.04 -6.18,18.51 -6.18,28.35l0 83.4c0,3.39 1.19,6.19 3.57,8.45 2.39,2.26 5.34,3.39 8.74,3.39 3.35,0 6.19,-1.13 8.51,-3.44 2.33,-2.31 3.46,-5.11 3.46,-8.4l0 -83.4c0,-13.61 5.22,-25.39 15.61,-35.19 10.43,-9.84 22.97,-14.74 37.61,-14.74 14.3,0 26.56,4.9 36.77,14.74 10.27,9.8 15.37,21.58 15.37,35.19l0 83.4c0,3.29 1.25,6.09 3.75,8.4 2.49,2.31 5.45,3.44 8.73,3.44 3.35,0 6.25,-1.13 8.74,-3.44 2.5,-2.31 3.75,-5.11 3.75,-8.4l0 -83.4c0,-13.23 -3.46,-25.45 -10.39,-36.69 -6.92,-11.25 -16.33,-20.13 -28.19,-26.64 -6.4,-3.51 -13.08,-6.08 -20.04,-7.71 18.02,-7.79 30.64,-25.73 30.64,-46.62 0,-8.13 -1.92,-15.82 -5.32,-22.64zm-165.3 -41.51c-7.42,2.98 -12.87,9.03 -19.4,12.54l-2.51 -2.04c-18.09,-16.17 -52.28,-16.31 -74.21,-9.81 -5.82,1.73 -11.58,4.14 -15.94,8.14l-4.05 3.73c-4.08,-2.09 -7.26,-5.74 -11.52,-6.89 0.02,5 -0.06,9.99 -0.06,14.98 0,9.38 1.93,5.51 2.72,10.59 0.65,4.21 -0.36,5.24 1.4,11.52 0.47,1.68 1.4,4.36 1.64,5.88 1.63,10.17 -16.17,4.54 -16.17,4.54 -1.63,-2.76 -0.97,-2.89 0.33,-6.87 3.07,-9.41 3.05,-14.95 4.64,-18.48 1.92,-4.24 1,-11.32 1.06,-16.72 0.11,-10.49 1.15,-6.6 -3.64,-12.4 20.82,-16.38 46.05,-31.79 67.96,-46.84 10.16,5.14 66.25,45.24 67.75,48.13zm-113 40.95c-0.39,-5.91 -0.89,-16.17 -0.38,-21.49 1.92,-20.27 57.75,-23.61 81.54,-11.59 12.09,6.1 10.6,14.43 9.5,33.74 3.38,6.79 5.28,14.45 5.28,22.54 0,21.01 -12.76,39.03 -30.94,46.75 6.77,1.63 13.26,4.16 19.49,7.58 11.86,6.51 21.28,15.39 28.2,26.64 6.92,11.24 10.38,23.46 10.38,36.69 0,34.28 -0.34,68.56 -0.34,102.79 0,6.79 1.17,13.05 3.51,18.79 2.34,5.74 5.86,10.98 10.56,15.72 4.71,4.72 9.9,8.27 15.57,10.63 5.68,2.36 11.86,3.55 18.55,3.55 6.51,0 12.58,-1.19 18.18,-3.57 5.59,-2.38 10.73,-5.95 15.4,-10.71 4.71,-4.75 8.23,-9.99 10.57,-15.71 2.34,-5.72 3.51,-11.96 3.51,-18.7l0 -82.19c0,-1.7 0.3,-3.29 0.9,-4.78 0.59,-1.49 1.47,-2.87 2.63,-4.13 1.17,-1.27 2.48,-2.23 3.91,-2.87 1.45,-0.65 3.01,-0.98 4.68,-0.98 1.68,0 3.26,0.33 4.75,0.97 1.46,0.64 2.82,1.59 4.07,2.86 1.24,1.26 2.18,2.64 2.81,4.13 0.64,1.49 0.95,3.09 0.95,4.8l0 82.19c0,4.93 -0.48,9.8 -1.44,14.58 -0.96,4.78 -2.4,9.44 -4.31,13.99 -1.94,4.53 -4.19,8.77 -6.76,12.69 -2.57,3.92 -5.47,7.55 -8.73,10.84 -3.21,3.3 -6.74,6.26 -10.59,8.89 -3.84,2.62 -7.99,4.92 -12.45,6.89 -4.48,1.94 -9.06,3.4 -13.74,4.37 -4.69,0.98 -9.48,1.46 -14.34,1.46 -9.98,0 -19.26,-1.81 -27.83,-5.42 -8.56,-3.62 -16.41,-9.03 -23.51,-16.24 -7.12,-7.22 -12.47,-15.18 -16.04,-23.86 -3.57,-8.68 -5.36,-18.07 -5.36,-28.19 0,-34.26 -0.07,-68.52 -0.07,-102.79 0,-13.61 -5.11,-25.39 -15.38,-35.19 -10.21,-9.84 -22.46,-14.74 -36.76,-14.74 -14.64,0 -27.18,4.9 -37.62,14.74 -10.38,9.8 -15.6,21.58 -15.6,35.19l0 83.4c0,3.29 -1.13,6.09 -3.46,8.4 -2.33,2.31 -5.16,3.44 -8.51,3.44 -3.41,0 -6.36,-1.13 -8.74,-3.39 -2.38,-2.26 -3.57,-5.06 -3.57,-8.45l0 -83.4c0,-9.84 2.04,-19.31 6.18,-28.35 4.09,-9.04 9.59,-16.79 16.51,-23.36 6.92,-6.51 15.21,-11.67 24.8,-15.6 3.3,-1.34 6.65,-2.44 10.06,-3.32 -18.55,-7.56 -31.62,-25.76 -31.62,-47.03 0,-8.36 2.02,-16.25 5.6,-23.2zm-230.44 184.72c-4.71,-10.39 -7.03,-21.37 -7.03,-32.77 0,-11.46 2.32,-22.39 7.03,-32.82 4.71,-10.39 11.01,-19.38 18.95,-26.86 7.94,-7.53 17.36,-13.5 28.37,-17.91 10.95,-4.42 22.41,-6.62 34.38,-6.62 11.97,0 23.43,2.2 34.44,6.62 10.95,4.41 20.37,10.38 28.26,17.91 7.83,7.48 14.12,16.47 18.83,26.86 4.71,10.43 7.09,21.36 7.09,32.82 0,11.4 -2.38,22.38 -7.09,32.77 -4.71,10.38 -11,19.37 -18.83,26.85 -7.89,7.53 -17.31,13.5 -28.26,17.91 -11.01,4.42 -22.47,6.62 -34.44,6.62 -11.97,0 -23.43,-2.2 -34.38,-6.62 -11.01,-4.41 -20.43,-10.38 -28.37,-17.91 -7.94,-7.48 -14.24,-16.47 -18.95,-26.85zm146.04 -32.83c0,-17 -6.24,-31.47 -18.78,-43.42 -12.54,-11.89 -27.69,-17.86 -45.56,-17.86 -17.81,0 -33.02,5.97 -45.56,17.86 -12.48,11.95 -18.78,26.42 -18.78,43.42 0,16.85 6.3,31.21 18.9,43.16 12.59,11.89 27.74,17.86 45.44,17.86 17.76,0 32.91,-5.97 45.45,-17.86 12.59,-11.95 18.89,-26.31 18.89,-43.16zm450.56 59.46c-17.41,-16.52 -26.09,-36.32 -26.09,-59.46 0,-23.08 8.68,-42.88 26.09,-59.4 17.37,-16.52 38.25,-24.75 62.64,-24.75 11.29,0 22.19,1.99 32.57,5.97 10.44,4.04 19.52,9.42 27.29,16.25 7.77,6.84 14.07,15.01 19.01,24.54 4.93,9.52 7.77,19.58 8.56,30.18 1.25,5.06 0.74,8.99 -1.47,11.79 -2.21,2.85 -6.24,4.3 -11.97,4.3l-136.8 0c1.88,14.8 8.8,27.18 20.83,37.18 12.03,10.01 26.04,14.96 41.98,14.96 17.53,0 32.57,-5.97 45.22,-17.97 2.67,-2.21 5.56,-3.28 8.63,-3.28 3.68,0 6.52,1.07 8.51,3.28 2.55,2.42 3.8,5.22 3.8,8.39 0,3.13 -1.25,5.87 -3.8,8.18 -8.23,7.75 -17.65,13.83 -28.37,18.14 -10.67,4.3 -22.02,6.45 -33.99,6.45 -24.39,0 -45.27,-8.23 -62.64,-24.75zm125 -67.8c-1.59,-14.79 -8.34,-27.28 -20.37,-37.45 -12.03,-10.11 -26.04,-15.17 -41.99,-15.17 -15.94,0 -29.95,5.06 -41.98,15.17 -12.03,10.17 -18.95,22.66 -20.83,37.45l125.17 0zm135.47 92.55c-24.4,0 -45.28,-8.23 -62.64,-24.75 -17.41,-16.52 -26.1,-36.32 -26.1,-59.46 0,-23.08 8.69,-42.88 26.1,-59.4 17.36,-16.52 38.24,-24.75 62.64,-24.75 24.17,0 45.05,8.18 62.7,24.59 2.32,2.2 3.46,4.9 3.46,8.12 0,3.23 -1.14,6.03 -3.46,8.45 -2.67,2.21 -5.51,3.28 -8.52,3.28 -3.74,0 -6.75,-1.18 -8.96,-3.6 -12.77,-11.78 -27.8,-17.65 -45.22,-17.65 -17.7,0 -32.85,5.97 -45.45,17.86 -12.59,11.95 -18.89,26.32 -18.89,43.1 0,16.85 6.3,31.21 18.89,43.16 12.6,11.89 27.75,17.86 45.45,17.86 17.53,0 32.57,-5.97 45.22,-17.97 2.67,-2.21 5.67,-3.28 8.96,-3.28 3.35,0 6.19,1.07 8.52,3.28 2.32,2.42 3.46,5.17 3.46,8.29 0,3.12 -1.14,5.86 -3.46,8.28 -17.65,16.41 -38.53,24.59 -62.7,24.59zm124.24 -215.01c0,-3.18 1.19,-5.87 3.63,-8.07 2.44,-2.21 5.34,-3.29 8.63,-3.29 3.46,0 6.41,1.08 8.85,3.29 2.44,2.2 3.63,4.89 3.63,8.07l0 46.65 31.43 0c3.52,0 6.47,1.07 8.79,3.23 2.33,2.15 3.52,4.84 3.52,8.12 0,3.18 -1.19,5.87 -3.57,8.13 -2.39,2.26 -5.34,3.39 -8.74,3.39l-31.43 0 0 134.14c0,3.28 -1.19,6.03 -3.58,8.29 -2.38,2.26 -5.33,3.39 -8.9,3.39 -3.29,0 -6.19,-1.13 -8.63,-3.39 -2.44,-2.26 -3.63,-5.01 -3.63,-8.29l0 -134.14 -31.43 0c-3.35,0 -6.13,-1.13 -8.51,-3.39 -2.33,-2.26 -3.46,-4.95 -3.46,-8.13 0,-3.28 1.13,-5.97 3.46,-8.12 2.38,-2.16 5.16,-3.23 8.51,-3.23l31.43 0 0 -46.65z"/>
   <path class="fil1" d="M1434.89 267.72c0,-59.41 -93.61,-81.04 -93.61,-111.39 0,-17.43 17.7,-23.89 33.7,-23.89 17.02,0 33.02,5.82 48,12.59l0 -35.83c-14.98,-5.17 -30.64,-8.4 -46.64,-8.4 -37.79,0 -76.25,16.15 -76.25,56.83 0,57.14 93.27,71.02 93.27,112.35 0,18.72 -20.76,27.12 -37.78,27.12 -19.41,0 -37.79,-7.43 -55.15,-15.18l0 37.45c17.02,5.81 35.06,10.01 53.44,10.01 40.17,0 81.02,-19.05 81.02,-61.66zm132.1 53.91l0 -37.13c-13.27,5.82 -27.23,11.3 -42.21,11.3 -17.7,0 -18.38,-15.82 -18.38,-28.73l0 -60.69 52.76 0 0 -34.87 -52.76 0 0 -45.85 -42.55 0 0 135.92c0,42.62 8.17,68.77 58.55,68.77 15.66,0 30.3,-3.23 44.59,-8.72zm162.4 -1.29l0 -148.83 -42.55 0 0 121.07c-7.83,1.29 -15.66,2.26 -23.15,2.26 -29.62,0 -37.79,-23.9 -37.79,-47.46l0 -75.87 -42.55 0 0 77.16c-0.34,49.72 22.13,80.39 77.62,80.39 23.49,0 45.95,-3.88 68.42,-8.72zm182.48 0.65l0 -242.78 -42.89 0 0 105.57c-11.91,-10.98 -25.19,-15.5 -41.19,-15.5 -46.98,0 -68.08,38.1 -68.08,77.81 0,51.33 33.7,82 87.48,82 21.79,0 43.24,-3.88 64.68,-7.1zm-43.23 -29.06c-7.83,0.97 -14.98,1.94 -22.47,1.94 -31.32,0 -44.59,-21.31 -44.59,-48.75 0,-20.02 8.17,-43.26 33.02,-43.26 21.78,0 34.04,20.98 34.04,39.38l0 50.69z"/>
  </g>
 </g>
</svg>
