<?xml version="1.0" encoding="UTF-8"?>
<!DOCTYPE svg PUBLIC "-//W3C//DTD SVG 1.1//EN" "http://www.w3.org/Graphics/SVG/1.1/DTD/svg11.dtd">
<!-- Creator: CorelDRAW -->
<svg xmlns="http://www.w3.org/2000/svg" xml:space="preserve" width="475px" height="358px" version="1.1" style="shape-rendering:geometricPrecision; text-rendering:geometricPrecision; image-rendering:optimizeQuality; fill-rule:evenodd; clip-rule:evenodd"
viewBox="0 0 119.85 90.45"
 xmlns:xlink="http://www.w3.org/1999/xlink"
 xmlns:xodm="http://www.corel.com/coreldraw/odm/2003">
 <defs>
  <style type="text/css">
   <![CDATA[
    .fil3 {fill:#133E86}
    .fil1 {fill:#91D8F7;fill-rule:nonzero}
    .fil2 {fill:#0AADEE;fill-rule:nonzero}
    .fil0 {fill:#1176BC;fill-rule:nonzero}
   ]]>
  </style>
 </defs>
 <g id="Layer_x0020_1">
  <metadata id="CorelCorpID_0Corel-Layer"/>
  <g id="_2192799140912">
   <g>
    <path class="fil0" d="M8.72 66.44c-0.13,-0.92 -0.22,-1.86 -0.25,-2.8 -0.01,-0.19 -0.01,-0.37 -0.01,-0.57 -0.02,-0.18 -0.02,-0.38 -0.02,-0.57 0,-7.72 3.13,-14.71 8.2,-19.77 1.89,-1.9 4.07,-3.52 6.44,-4.81 0.59,-0.33 1.2,-0.63 1.81,-0.91 0.22,-0.09 0.42,-0.18 0.63,-0.27 0.63,-0.27 1.27,-0.51 1.91,-0.72 2.82,-0.96 5.84,-1.48 8.98,-1.48 7.72,0 14.7,3.13 19.76,8.19 1.01,1.01 1.95,2.11 2.8,3.27 -3.39,4.62 -5.39,10.33 -5.39,16.5 0,0.19 0,0.38 0,0.57 0,0.2 0.01,0.38 0.01,0.57 0.03,0.57 0.07,1.13 0.13,1.69 -0.01,0.01 -0.01,0.02 0,0.03 0.04,0.36 0.08,0.72 0.13,1.08 0,0 0,0.01 0,0.01 0.03,0.18 0.05,0.36 0.08,0.55 0.09,0.54 0.2,1.08 0.32,1.62 0.12,0.53 0.25,1.07 0.41,1.59 0.09,0.35 0.2,0.7 0.32,1.05l-10.75 0c0,6.25 4.68,11.4 10.72,12.14 -4.93,4.39 -11.42,7.05 -18.54,7.05l-27.97 0 8.19 -8.19c-4.18,-4.18 -7.04,-9.68 -7.91,-15.82zm40.19 -0.96l0 0c2.57,0 4.67,-2.1 4.67,-4.68 0,-2.58 -2.1,-4.67 -4.67,-4.67 -2.59,0 -4.68,2.09 -4.68,4.67 0,2.58 2.09,4.68 4.68,4.68z"/>
    <path class="fil1" d="M63.27 70.21c0.16,-0.52 0.29,-1.06 0.41,-1.59 0.13,-0.54 0.23,-1.08 0.32,-1.62 0.03,-0.19 0.05,-0.37 0.08,-0.55 0,0 0,-0.01 0,-0.01 0.05,-0.36 0.09,-0.72 0.14,-1.08 0,-0.01 0,-0.02 0,-0.03 0.05,-0.56 0.09,-1.12 0.12,-1.69 0,-0.19 0.01,-0.37 0.01,-0.57 0,-0.19 0,-0.38 0,-0.57 0,-6.17 -2,-11.88 -5.38,-16.5 0.84,-1.16 1.78,-2.26 2.79,-3.27 5.06,-5.06 12.05,-8.19 19.76,-8.19 3.14,0 6.16,0.52 8.98,1.48 0.64,0.21 1.28,0.45 1.91,0.72 0.21,0.09 0.41,0.18 0.62,0.27 0.62,0.28 1.23,0.58 1.82,0.91 2.37,1.29 4.54,2.91 6.44,4.81 5.06,5.06 8.19,12.05 8.19,19.77 0,0.19 0,0.39 -0.01,0.57 0,0.2 0,0.38 -0.01,0.57 -0.04,0.94 -0.12,1.88 -0.26,2.8 -0.86,6.14 -3.72,11.64 -7.9,15.82l8.18 8.19 -27.96 0c-7.12,0 -13.61,-2.66 -18.54,-7.05 6.05,-0.74 10.73,-5.89 10.73,-12.14l-10.75 0c0.11,-0.35 0.22,-0.7 0.31,-1.05zm5.76 -4.73l0 0c2.58,0 4.68,-2.1 4.68,-4.68 0,-2.58 -2.1,-4.67 -4.68,-4.67 -2.59,0 -4.68,2.09 -4.68,4.67 0,2.58 2.09,4.68 4.68,4.68z"/>
    <path class="fil2" d="M53.58 62.5c0,0.19 0,0.38 0,0.57 0,0.2 0.01,0.38 0.01,0.57 0.03,0.57 0.07,1.13 0.13,1.69 -0.01,0.01 -0.01,0.02 0,0.03 0.04,0.36 0.08,0.72 0.13,1.08 0,0 0,0.01 0,0.01 0.03,0.18 0.05,0.36 0.08,0.55 0.09,0.54 0.2,1.08 0.32,1.62 0.12,0.53 0.25,1.07 0.41,1.59 0.09,0.35 0.2,0.7 0.32,1.05l7.98 0c0.11,-0.35 0.22,-0.7 0.31,-1.05 0.16,-0.52 0.29,-1.06 0.41,-1.59 0.13,-0.54 0.23,-1.08 0.32,-1.62 0.03,-0.19 0.05,-0.37 0.08,-0.55 0,0 0,-0.01 0,-0.01 0.05,-0.36 0.09,-0.72 0.14,-1.08 0,-0.01 0,-0.02 0,-0.03 0.05,-0.56 0.09,-1.12 0.12,-1.69 0,-0.19 0.01,-0.37 0.01,-0.57 0,-0.19 0,-0.38 0,-0.57 0,-6.17 -2,-11.88 -5.38,-16.5 -3.39,4.62 -5.39,10.33 -5.39,16.5z"/>
   </g>
   <g>
    <path class="fil3" d="M46.04 9.87l1.51 0.63c1.95,0.8 8.92,3.84 10.14,5.5 -2.94,1.84 -4.82,4.88 -7.34,6.89l-1.21 -0.71c-8.83,-5.72 -23.35,-3.27 -32.2,1.17 -2.34,1.18 -4.61,2.65 -6.18,4.71l-1.45 1.92c-1.89,-0.61 -3.49,-1.96 -5.38,-2.15 0.36,2.17 0.68,4.35 1.04,6.53 0.67,4.08 1.21,2.26 1.91,4.41 0.58,1.79 0.22,2.31 1.42,4.92 0.32,0.69 0.9,1.79 1.11,2.44 1.42,4.31 -6.53,3.16 -6.53,3.16 -0.89,-1.08 -0.62,-1.19 -0.35,-3.01 0.63,-4.33 0.22,-6.74 0.65,-8.4 0.51,-1.98 -0.39,-5 -0.75,-7.36 -0.7,-4.58 0.02,-2.96 -2.43,-5.13 2.47,-2.79 5.52,-5.29 7.93,-8.06l1.24 -1.12 16.33 -16.21c3.18,1.02 7.48,3.47 10.47,4.9 2.65,1.26 7.92,3.47 10.07,4.97z"/>
    <path class="fil3" d="M21.09 35.83c-0.79,0.25 -0.87,0.18 -1.63,0.6 -0.6,0.32 -0.59,0.49 -0.84,0.74 -3.18,1.57 -4.3,3.4 -5.98,5.32 -0.58,-2.47 -1.51,-7.24 -1.68,-9.7 -0.64,-8.97 22.82,-14.52 33.78,-11.03 5.59,1.78 5.52,5.55 6.45,14.12 -0.1,-0.06 -0.24,-0.15 -0.3,-0.2l-1.42 -0.98c-0.58,-0.38 -0.75,-0.48 -1.42,-0.77 -1.01,-0.45 -1.97,-0.71 -3.25,-0.98 -8.37,-1.79 -16.15,0.41 -23.71,2.88z"/>
    <path class="fil3" d="M18.62 37.17c0.25,-0.25 0.24,-0.42 0.84,-0.74 0.76,-0.42 0.84,-0.35 1.63,-0.6l-2.47 1.34z"/>
    <path class="fil3" d="M47.55 10.5l-1.51 -0.63c1.65,0.14 0.93,0.08 1.51,0.63z"/>
    <path class="fil3" d="M7.93 17.33c0.38,-0.7 -0.27,-0.42 1.24,-1.12l-1.24 1.12z"/>
   </g>
   <g>
    <path class="fil3" d="M75.61 9.16l-1.51 0.56c-1.93,0.72 -8.85,3.45 -10.1,5.06 2.78,1.97 4.49,5.08 6.86,7.19l1.22 -0.65c8.84,-5.34 22.9,-2.28 31.33,2.54 2.24,1.27 4.4,2.84 5.84,4.97l1.33 1.98c1.86,-0.53 3.49,-1.82 5.34,-1.93 -0.45,2.16 -0.85,4.33 -1.29,6.48 -0.83,4.06 -1.28,2.21 -2.05,4.33 -0.63,1.76 -0.31,2.3 -1.58,4.85 -0.34,0.69 -0.96,1.76 -1.19,2.4 -1.56,4.24 6.24,3.43 6.24,3.43 0.91,-1.04 0.65,-1.16 0.47,-2.99 -0.44,-4.36 0.06,-6.75 -0.29,-8.42 -0.41,-2 0.59,-4.98 1.04,-7.32 0.87,-4.55 0.1,-2.96 2.58,-5.03 -2.29,-2.89 -5.17,-5.51 -7.4,-8.39l-1.16 -1.17 -15.25 -16.89c-3.15,0.89 -7.44,3.15 -10.41,4.45 -2.63,1.15 -7.86,3.13 -10.02,4.55z"/>
    <path class="fil3" d="M98.86 36.15c0.75,0.29 0.84,0.22 1.56,0.66 0.57,0.36 0.55,0.53 0.78,0.78 3.04,1.7 4.06,3.58 5.62,5.57 0.67,-2.45 1.77,-7.16 2.04,-9.62 0.99,-8.93 -21.65,-15.47 -32.48,-12.45 -5.52,1.54 -5.61,5.31 -6.88,13.83 0.11,-0.05 0.24,-0.14 0.31,-0.19l1.43 -0.92c0.58,-0.35 0.75,-0.45 1.41,-0.71 1.01,-0.4 1.95,-0.62 3.2,-0.83 8.24,-1.43 15.74,1.09 23.01,3.88z"/>
    <path class="fil3" d="M101.2 37.59c-0.23,-0.25 -0.21,-0.42 -0.78,-0.78 -0.72,-0.44 -0.81,-0.37 -1.56,-0.66l2.34 1.44z"/>
    <path class="fil3" d="M74.1 9.72l1.51 -0.56c-1.61,0.07 -0.92,0.03 -1.51,0.56z"/>
    <path class="fil3" d="M112.45 18.22c-0.34,-0.71 0.29,-0.4 -1.16,-1.17l1.16 1.17z"/>
   </g>
  </g>
 </g>
</svg>
