<?xml version="1.0" encoding="UTF-8"?>
<!DOCTYPE svg PUBLIC "-//W3C//DTD SVG 1.1//EN" "http://www.w3.org/Graphics/SVG/1.1/DTD/svg11.dtd">
<!-- Creator: CorelDRAW -->
<svg xmlns="http://www.w3.org/2000/svg" xml:space="preserve" width="850px" height="741px" version="1.1" style="shape-rendering:geometricPrecision; text-rendering:geometricPrecision; image-rendering:optimizeQuality; fill-rule:evenodd; clip-rule:evenodd"
viewBox="0 0 1309.84 1142.04"
 xmlns:xlink="http://www.w3.org/1999/xlink"
 xmlns:xodm="http://www.corel.com/coreldraw/odm/2003">
 <defs>
  <style type="text/css">
   <![CDATA[
    .fil3 {fill:#133E86}
    .fil1 {fill:#91D8F7;fill-rule:nonzero}
    .fil2 {fill:#0AADEE;fill-rule:nonzero}
    .fil0 {fill:#1176BC;fill-rule:nonzero}
    .fil4 {fill:#133E86;fill-rule:nonzero}
   ]]>
  </style>
 </defs>
 <g id="Layer_x0020_1">
  <metadata id="CorelCorpID_0Corel-Layer"/>
  <g id="_2192278389344">
   <g>
    <g>
     <path class="fil0" d="M302.96 456.72c-0.9,-6.33 -1.49,-12.77 -1.74,-19.28 -0.03,-1.25 -0.03,-2.54 -0.07,-3.86 -0.1,-1.29 -0.1,-2.61 -0.1,-3.93 0,-53.12 21.51,-101.15 56.31,-135.92 13.06,-13.05 27.99,-24.19 44.31,-33.07 4.08,-2.26 8.25,-4.32 12.46,-6.23 1.47,-0.63 2.86,-1.29 4.32,-1.84 4.32,-1.88 8.7,-3.55 13.12,-5.01 19.36,-6.58 40.13,-10.13 61.71,-10.13 53.05,0 101.08,21.5 135.82,56.28 6.96,6.96 13.4,14.48 19.24,22.45 -23.28,31.81 -37.03,71.04 -37.03,113.47 0,1.32 0,2.61 0.04,3.93 0,1.32 0.03,2.61 0.07,3.9 0.17,3.93 0.45,7.76 0.83,11.59 -0.03,0.07 -0.03,0.17 0,0.21 0.28,2.47 0.59,4.97 0.91,7.41 0,0.03 0,0.07 0,0.07 0.2,1.25 0.38,2.51 0.59,3.79 0.62,3.73 1.32,7.45 2.16,11.14 0.87,3.69 1.77,7.38 2.81,10.97 0.67,2.4 1.4,4.8 2.2,7.17l-73.9 0c0,42.98 32.17,78.41 73.72,83.49 -33.9,30.18 -78.52,48.45 -127.46,48.45l-192.23 0 56.28 -56.28c-28.75,-28.75 -48.38,-66.55 -54.37,-108.77zm276.23 -6.61l0 0c17.71,0 32.12,-14.44 32.12,-32.16 0,-17.75 -14.41,-32.13 -32.12,-32.13 -17.79,0 -32.17,14.38 -32.17,32.13 0,17.72 14.38,32.16 32.17,32.16z"/>
     <path class="fil1" d="M677.96 482.66c1.05,-3.59 1.95,-7.28 2.82,-10.97 0.84,-3.69 1.53,-7.41 2.16,-11.14 0.21,-1.28 0.38,-2.54 0.59,-3.79 0,0 0,-0.04 0,-0.07 0.32,-2.44 0.6,-4.94 0.91,-7.41 0.03,-0.04 0.03,-0.14 0,-0.21 0.35,-3.83 0.66,-7.66 0.83,-11.63 0.04,-1.25 0.07,-2.54 0.07,-3.86 0.04,-1.36 0.04,-2.61 0.04,-3.93 0,-42.43 -13.75,-81.66 -37.04,-113.47 5.82,-7.97 12.26,-15.49 19.22,-22.45 34.77,-34.78 82.8,-56.28 135.85,-56.28 21.57,0 42.32,3.55 61.67,10.13 4.46,1.46 8.84,3.13 13.16,5.01 1.43,0.55 2.85,1.21 4.28,1.84 4.25,1.91 8.42,3.97 12.49,6.23 16.33,8.84 31.23,20.02 44.28,33.07 34.81,34.77 56.32,82.8 56.32,135.88 0,1.36 0,2.68 -0.07,3.97 -0.04,1.32 -0.04,2.61 -0.11,3.86 -0.24,6.51 -0.8,12.95 -1.74,19.28 -5.95,42.22 -25.58,80.02 -54.33,108.77l56.25 56.28 -192.2 0c-48.94,0 -93.56,-18.27 -127.46,-48.45 41.55,-5.08 73.71,-40.51 73.71,-83.49l-73.89 0c0.8,-2.37 1.53,-4.77 2.19,-7.17zm39.54 -32.55l0 0c17.76,0 32.16,-14.44 32.16,-32.16 0,-17.75 -14.4,-32.13 -32.16,-32.13 -17.75,0 -32.12,14.38 -32.12,32.13 0,17.72 14.37,32.16 32.12,32.16z"/>
     <path class="fil2" d="M611.31 429.65c0,1.32 0,2.61 0.04,3.93 0,1.32 0.03,2.61 0.07,3.9 0.17,3.93 0.45,7.76 0.83,11.59 -0.03,0.07 -0.03,0.17 0,0.21 0.28,2.47 0.59,4.97 0.91,7.41 0,0.03 0,0.07 0,0.07 0.2,1.25 0.38,2.51 0.59,3.79 0.62,3.73 1.32,7.45 2.16,11.14 0.87,3.69 1.77,7.38 2.81,10.97 0.67,2.4 1.4,4.8 2.2,7.17l54.85 0c0.8,-2.37 1.53,-4.77 2.19,-7.17 1.05,-3.59 1.95,-7.28 2.82,-10.97 0.84,-3.69 1.53,-7.41 2.16,-11.14 0.21,-1.28 0.38,-2.54 0.59,-3.79 0,0 0,-0.04 0,-0.07 0.32,-2.44 0.6,-4.94 0.91,-7.41 0.03,-0.04 0.03,-0.14 0,-0.21 0.35,-3.83 0.66,-7.66 0.83,-11.63 0.04,-1.25 0.07,-2.54 0.07,-3.86 0.04,-1.36 0.04,-2.61 0.04,-3.93 0,-42.43 -13.75,-81.66 -37.04,-113.47 -23.28,31.81 -37.03,71.04 -37.03,113.47z"/>
    </g>
    <g>
     <path class="fil3" d="M559.49 67.86l10.41 4.35c13.37,5.5 61.29,26.36 69.67,37.76 -20.21,12.68 -33.14,33.55 -50.45,47.35l-8.34 -4.84c-60.71,-39.31 -160.52,-22.51 -221.3,8.02 -16.14,8.11 -31.75,18.23 -42.52,32.4l-9.96 13.21c-12.96,-4.2 -24.01,-13.52 -37.01,-14.82 2.53,14.95 4.73,29.94 7.19,44.88 4.61,28.11 8.33,15.54 13.12,30.34 3.98,12.28 1.54,15.88 9.77,33.81 2.19,4.78 6.19,12.34 7.65,16.78 9.74,29.62 -44.93,21.73 -44.95,21.72 -6.11,-7.42 -4.23,-8.15 -2.4,-20.71 4.34,-29.75 1.55,-46.32 4.46,-57.68 3.52,-13.68 -2.64,-34.4 -5.12,-50.63 -4.81,-31.47 0.12,-20.34 -16.71,-35.3 16.97,-19.16 37.95,-36.3 54.53,-55.4l8.49 -7.71 112.25 -111.39c21.91,7 51.44,23.84 71.99,33.66 18.21,8.69 54.43,23.85 69.23,34.2z"/>
     <path class="fil3" d="M387.95 246.31c-5.39,1.74 -5.97,1.22 -11.19,4.09 -4.11,2.25 -4.03,3.42 -5.74,5.1 -21.88,10.77 -29.6,23.36 -41.16,36.55 -3.97,-16.98 -10.33,-49.72 -11.53,-66.66 -4.35,-61.64 156.88,-99.79 232.21,-75.8 38.45,12.24 37.99,38.14 44.37,97.08 -0.73,-0.42 -1.64,-1.08 -2.11,-1.4l-9.75 -6.74c-3.99,-2.58 -5.15,-3.31 -9.73,-5.31 -6.98,-3.05 -13.57,-4.83 -22.32,-6.7 -57.57,-12.29 -111.08,2.78 -163.05,19.79z"/>
     <path class="fil3" d="M371.02 255.5c1.71,-1.68 1.63,-2.85 5.74,-5.1 5.22,-2.87 5.8,-2.35 11.19,-4.09l-16.93 9.19z"/>
     <path class="fil3" d="M569.9 72.21l-10.41 -4.35c11.32,0.98 6.41,0.55 10.41,4.35z"/>
     <path class="fil3" d="M297.53 119.1c2.61,-4.75 -1.9,-2.87 8.49,-7.71l-8.49 7.71z"/>
    </g>
    <g>
     <path class="fil3" d="M762.73 62.93l-10.32 3.9c-13.27,4.93 -60.85,23.74 -69.49,34.77 19.17,13.53 30.91,34.93 47.21,49.45l8.34 -4.48c60.81,-36.7 157.42,-15.67 215.41,17.42 15.4,8.78 30.2,19.56 40.11,34.17l9.16 13.63c12.81,-3.66 23.97,-12.49 36.7,-13.24 -3.09,14.83 -5.86,29.71 -8.87,44.54 -5.66,27.88 -8.77,15.17 -14.05,29.74 -4.39,12.11 -2.16,15.81 -10.92,33.37 -2.34,4.69 -6.56,12.06 -8.16,16.45 -10.73,29.17 42.9,23.61 42.92,23.6 6.27,-7.15 4.46,-7.96 3.2,-20.58 -3,-29.92 0.41,-46.35 -1.96,-57.83 -2.86,-13.8 4,-34.24 7.09,-50.36 6,-31.23 0.73,-20.32 17.75,-34.56 -15.75,-19.86 -35.49,-37.88 -50.86,-57.66l-7.95 -8.06 -104.82 -116.07c-21.65,6.07 -51.14,21.64 -71.58,30.57 -18.11,7.92 -54.05,21.52 -68.91,31.23z"/>
     <path class="fil3" d="M922.57 248.51c5.18,1.96 5.76,1.47 10.73,4.56 3.92,2.42 3.79,3.58 5.39,5.34 20.88,11.69 27.89,24.59 38.61,38.27 4.58,-16.8 12.14,-49.24 14.01,-66.11 6.8,-61.41 -148.81,-106.37 -223.24,-85.6 -38,10.6 -38.61,36.48 -47.28,95.11 0.72,-0.4 1.64,-1.02 2.11,-1.32l9.79 -6.32c3.99,-2.41 5.15,-3.09 9.7,-4.89 6.94,-2.75 13.44,-4.25 22.05,-5.75 56.63,-9.83 108.16,7.5 158.13,26.71z"/>
     <path class="fil3" d="M938.69 258.41c-1.6,-1.76 -1.47,-2.92 -5.39,-5.34 -4.97,-3.09 -5.55,-2.6 -10.73,-4.56l16.12 9.9z"/>
     <path class="fil3" d="M752.41 66.83l10.32 -3.9c-11.07,0.5 -6.27,0.28 -10.32,3.9z"/>
     <path class="fil3" d="M1015.99 125.26c-2.34,-4.86 1.98,-2.8 -7.95,-8.06l7.95 8.06z"/>
    </g>
   </g>
   <g>
    <path class="fil4" d="M166.3 840.73c0,5.95 -1.44,12.38 -4.39,19.28 -2.91,6.91 -7.51,13.68 -13.81,20.33 -6.25,6.69 -14.29,12.07 -24.02,16.24 -9.77,4.13 -21.15,6.21 -34.14,6.21 -9.81,0 -18.76,-0.91 -26.83,-2.78 -8.04,-1.86 -15.38,-4.77 -21.94,-8.73 -6.56,-3.91 -12.64,-9.12 -18.15,-15.55 -4.91,-5.86 -9.12,-12.37 -12.6,-19.63 -3.47,-7.25 -6.08,-15.02 -7.81,-23.23 -1.74,-8.25 -2.61,-16.98 -2.61,-26.23 0,-14.99 2.17,-28.45 6.56,-40.31 4.34,-11.9 10.64,-22.06 18.76,-30.49 8.16,-8.42 17.68,-14.85 28.62,-19.28 10.95,-4.39 22.63,-6.6 35.01,-6.6 15.11,0 28.53,2.99 40.34,9.03 11.77,5.99 20.81,13.46 27.11,22.33 6.25,8.85 9.42,17.19 9.42,25.1 0,4.34 -1.56,8.12 -4.6,11.46 -3.05,3.3 -6.74,4.95 -11.08,4.95 -4.82,0 -8.47,-1.17 -10.86,-3.43 -2.43,-2.3 -5.12,-6.25 -8.07,-11.85 -4.96,-9.25 -10.73,-16.16 -17.38,-20.76 -6.69,-4.56 -14.85,-6.87 -24.62,-6.87 -15.55,0 -27.89,5.91 -37.09,17.68 -9.21,11.81 -13.81,28.58 -13.81,50.29 0,14.51 2.04,26.59 6.12,36.23 4.04,9.64 9.82,16.8 17.29,21.58 7.47,4.73 16.2,7.12 26.23,7.12 10.86,0 20.02,-2.69 27.53,-8.07 7.52,-5.39 13.16,-13.29 16.98,-23.76 1.61,-4.91 3.61,-8.9 6,-12.03 2.34,-3.09 6.16,-4.65 11.42,-4.65 4.52,0 8.38,1.56 11.6,4.73 3.21,3.13 4.82,7.04 4.82,11.69zm115.96 -130.77c19.37,0 35.96,3.91 49.81,11.77 13.86,7.81 24.37,18.98 31.49,33.44 7.12,14.46 10.69,31.44 10.69,50.94 0,14.42 -1.96,27.54 -5.87,39.31 -3.91,11.81 -9.73,22.02 -17.54,30.66 -7.82,8.64 -17.38,15.25 -28.76,19.85 -11.38,4.56 -24.36,6.86 -39.04,6.86 -14.59,0 -27.67,-2.34 -39.18,-7.08 -11.55,-4.69 -21.15,-11.33 -28.88,-19.89 -7.73,-8.56 -13.55,-18.85 -17.5,-30.92 -3.95,-12.03 -5.91,-25.06 -5.91,-39.05 0,-14.33 2.04,-27.45 6.17,-39.43 4.13,-11.95 10.08,-22.11 17.89,-30.53 7.78,-8.39 17.29,-14.81 28.49,-19.24 11.17,-4.48 23.89,-6.69 38.14,-6.69zm53.68 95.89c0,-13.63 -2.22,-25.49 -6.6,-35.52 -4.43,-9.99 -10.73,-17.55 -18.9,-22.72 -8.16,-5.12 -17.59,-7.69 -28.18,-7.69 -7.52,0 -14.51,1.44 -20.89,4.26 -6.43,2.87 -11.95,6.99 -16.55,12.42 -4.6,5.43 -8.25,12.38 -10.94,20.81 -2.65,8.47 -4,17.93 -4,28.44 0,10.64 1.35,20.2 4,28.8 2.69,8.55 6.47,15.68 11.33,21.32 4.87,5.65 10.47,9.86 16.77,12.64 6.34,2.82 13.24,4.21 20.8,4.21 9.68,0 18.54,-2.43 26.67,-7.25 8.07,-4.82 14.5,-12.29 19.32,-22.41 4.78,-10.08 7.17,-22.54 7.17,-37.31zm119.96 -73.22l72.61 109.97 0 -111.01c0,-7.21 1.57,-12.6 4.65,-16.2 3.08,-3.61 7.25,-5.43 12.51,-5.43 5.38,0 9.68,1.78 12.81,5.38 3.13,3.61 4.69,9.04 4.69,16.25l0 146.66c0,16.38 -6.77,24.54 -20.32,24.54 -3.39,0 -6.43,-0.48 -9.17,-1.47 -2.69,-0.96 -5.25,-2.52 -7.6,-4.61 -2.39,-2.13 -4.56,-4.6 -6.6,-7.47 -2.04,-2.82 -4.08,-5.73 -6.12,-8.69l-70.84 -108.57 0 109.18c0,7.13 -1.65,12.51 -4.95,16.16 -3.35,3.65 -7.6,5.47 -12.77,5.47 -5.34,0 -9.64,-1.82 -12.86,-5.51 -3.25,-3.7 -4.86,-9.08 -4.86,-16.12l0 -143.84c0,-6.12 0.69,-10.9 2.04,-14.38 1.61,-3.82 4.3,-6.95 8.03,-9.38 3.74,-2.39 7.78,-3.6 12.08,-3.6 3.43,0 6.34,0.56 8.73,1.65 2.43,1.13 4.56,2.6 6.38,4.47 1.83,1.87 3.7,4.26 5.61,7.25 1.91,2.96 3.91,6.04 5.95,9.3zm198 0l72.62 109.97 0 -111.01c0,-7.21 1.56,-12.6 4.64,-16.2 3.09,-3.61 7.26,-5.43 12.51,-5.43 5.39,0 9.69,1.78 12.81,5.38 3.13,3.61 4.69,9.04 4.69,16.25l0 146.66c0,16.38 -6.77,24.54 -20.32,24.54 -3.39,0 -6.43,-0.48 -9.17,-1.47 -2.69,-0.96 -5.25,-2.52 -7.6,-4.61 -2.38,-2.13 -4.56,-4.6 -6.6,-7.47 -2.04,-2.82 -4.08,-5.73 -6.12,-8.69l-70.84 -108.57 0 109.18c0,7.13 -1.65,12.51 -4.95,16.16 -3.34,3.65 -7.6,5.47 -12.77,5.47 -5.34,0 -9.64,-1.82 -12.85,-5.51 -3.26,-3.7 -4.87,-9.08 -4.87,-16.12l0 -143.84c0,-6.12 0.7,-10.9 2.04,-14.38 1.61,-3.82 4.3,-6.95 8.04,-9.38 3.73,-2.39 7.77,-3.6 12.07,-3.6 3.43,0 6.34,0.56 8.73,1.65 2.43,1.13 4.56,2.6 6.39,4.47 1.82,1.87 3.69,4.26 5.6,7.25 1.91,2.96 3.91,6.04 5.95,9.3zm271.58 9.64l-85.13 0 0 45.86 78.39 0c5.78,0 10.08,1.31 12.9,3.87 2.87,2.56 4.26,5.99 4.26,10.2 0,4.22 -1.39,7.69 -4.17,10.34 -2.82,2.65 -7.12,4 -12.99,4l-78.39 0 0 53.16 88.03 0c5.96,0 10.43,1.39 13.42,4.12 3.05,2.74 4.56,6.43 4.56,10.99 0,4.39 -1.51,7.99 -4.56,10.73 -2.99,2.73 -7.46,4.12 -13.42,4.12l-102.67 0c-8.2,0 -14.11,-1.82 -17.72,-5.47 -3.6,-3.65 -5.43,-9.55 -5.43,-17.67l0 -140.29c0,-5.43 0.83,-9.86 2.44,-13.29 1.6,-3.43 4.12,-5.95 7.55,-7.51 3.44,-1.56 7.82,-2.35 13.16,-2.35l99.77 0c6.03,0 10.5,1.35 13.41,4 2.91,2.69 4.39,6.21 4.39,10.51 0,4.43 -1.48,7.99 -4.39,10.68 -2.91,2.65 -7.38,4 -13.41,4zm209.9 98.46c0,5.95 -1.44,12.38 -4.39,19.28 -2.91,6.91 -7.51,13.68 -13.81,20.33 -6.25,6.69 -14.29,12.07 -24.02,16.24 -9.77,4.13 -21.15,6.21 -34.14,6.21 -9.81,0 -18.76,-0.91 -26.83,-2.78 -8.04,-1.86 -15.38,-4.77 -21.94,-8.73 -6.56,-3.91 -12.64,-9.12 -18.15,-15.55 -4.91,-5.86 -9.12,-12.37 -12.6,-19.63 -3.47,-7.25 -6.08,-15.02 -7.81,-23.23 -1.74,-8.25 -2.61,-16.98 -2.61,-26.23 0,-14.99 2.17,-28.45 6.56,-40.31 4.34,-11.9 10.64,-22.06 18.76,-30.49 8.16,-8.42 17.68,-14.85 28.62,-19.28 10.95,-4.39 22.63,-6.6 35.01,-6.6 15.11,0 28.53,2.99 40.34,9.03 11.77,5.99 20.81,13.46 27.1,22.33 6.26,8.85 9.43,17.19 9.43,25.1 0,4.34 -1.56,8.12 -4.6,11.46 -3.05,3.3 -6.74,4.95 -11.08,4.95 -4.82,0 -8.47,-1.17 -10.86,-3.43 -2.43,-2.3 -5.12,-6.25 -8.08,-11.85 -4.95,-9.25 -10.72,-16.16 -17.37,-20.76 -6.69,-4.56 -14.85,-6.87 -24.62,-6.87 -15.55,0 -27.89,5.91 -37.09,17.68 -9.21,11.81 -13.81,28.58 -13.81,50.29 0,14.51 2.04,26.59 6.12,36.23 4.04,9.64 9.81,16.8 17.29,21.58 7.47,4.73 16.2,7.12 26.23,7.12 10.85,0 20.02,-2.69 27.53,-8.07 7.52,-5.39 13.16,-13.29 16.98,-23.76 1.61,-4.91 3.61,-8.9 6,-12.03 2.34,-3.09 6.16,-4.65 11.42,-4.65 4.52,0 8.38,1.56 11.6,4.73 3.21,3.13 4.82,7.04 4.82,11.69zm155.09 -96.38l-41.22 0 0 135.42c0,7.82 -1.73,13.6 -5.25,17.38 -3.48,3.77 -7.99,5.64 -13.51,5.64 -5.6,0 -10.21,-1.91 -13.72,-5.73 -3.52,-3.82 -5.3,-9.56 -5.3,-17.29l0 -135.42 -41.22 0c-6.47,0 -11.25,-1.43 -14.37,-4.25 -3.13,-2.87 -4.74,-6.65 -4.74,-11.34 0,-4.82 1.65,-8.64 4.91,-11.46 3.26,-2.83 7.99,-4.22 14.2,-4.22l120.22 0c6.56,0 11.38,1.44 14.59,4.35 3.17,2.91 4.78,6.69 4.78,11.33 0,4.69 -1.65,8.47 -4.87,11.34 -3.21,2.82 -8.03,4.25 -14.5,4.25z"/>
    <path class="fil2" d="M452.69 1082.97c0,11.25 -2.91,21.37 -8.73,30.36 -5.78,8.99 -14.29,16.03 -25.5,21.11 -11.2,5.08 -24.49,7.6 -39.82,7.6 -18.42,0 -33.62,-3.48 -45.56,-10.38 -8.47,-5 -15.33,-11.68 -20.63,-20.02 -5.3,-8.34 -7.95,-16.47 -7.95,-24.37 0,-4.56 1.61,-8.47 4.78,-11.77 3.17,-3.26 7.21,-4.86 12.11,-4.86 4,0 7.34,1.26 10.08,3.82 2.78,2.52 5.13,6.3 7.08,11.33 2.34,5.91 4.95,10.91 7.69,14.86 2.78,3.99 6.64,7.29 11.64,9.9 5.03,2.56 11.59,3.87 19.76,3.87 11.16,0 20.28,-2.61 27.27,-7.82 6.99,-5.21 10.51,-11.73 10.51,-19.55 0,-6.21 -1.86,-11.25 -5.64,-15.07 -3.78,-3.86 -8.69,-6.82 -14.68,-8.86 -5.95,-2.04 -13.99,-4.21 -23.98,-6.51 -13.37,-3.13 -24.62,-6.82 -33.61,-10.99 -9.04,-4.21 -16.2,-9.95 -21.5,-17.2 -5.3,-7.25 -7.95,-16.24 -7.95,-27.06 0,-10.25 2.78,-19.37 8.38,-27.36 5.61,-7.94 13.73,-14.07 24.32,-18.37 10.6,-4.3 23.07,-6.43 37.4,-6.43 11.42,0 21.32,1.44 29.7,4.26 8.34,2.87 15.29,6.64 20.81,11.34 5.47,4.69 9.51,9.64 12.07,14.81 2.52,5.16 3.82,10.24 3.82,15.15 0,4.48 -1.6,8.56 -4.77,12.16 -3.17,3.61 -7.17,5.39 -11.9,5.39 -4.35,0 -7.6,-1.09 -9.86,-3.21 -2.26,-2.18 -4.69,-5.74 -7.3,-10.65 -3.43,-7.03 -7.47,-12.55 -12.25,-16.5 -4.73,-3.95 -12.37,-5.91 -22.93,-5.91 -9.73,0 -17.63,2.13 -23.58,6.43 -5.99,4.3 -8.99,9.43 -8.99,15.46 0,3.74 1,6.95 3.04,9.69 2.04,2.69 4.86,5.04 8.43,6.99 3.56,1.95 7.16,3.48 10.81,4.6 3.65,1.09 9.68,2.7 18.07,4.82 10.51,2.48 20.06,5.17 28.57,8.17 8.52,2.95 15.77,6.56 21.76,10.82 6,4.21 10.64,9.59 13.99,16.06 3.34,6.52 5.04,14.47 5.04,23.89zm153.26 -99.37l-41.21 0 0 135.42c0,7.82 -1.74,13.59 -5.26,17.37 -3.47,3.78 -7.99,5.65 -13.5,5.65 -5.61,0 -10.21,-1.91 -13.73,-5.74 -3.52,-3.82 -5.3,-9.55 -5.3,-17.28l0 -135.42 -41.21 0c-6.47,0 -11.25,-1.43 -14.38,-4.25 -3.13,-2.87 -4.73,-6.65 -4.73,-11.34 0,-4.82 1.65,-8.64 4.9,-11.47 3.26,-2.82 8,-4.21 14.21,-4.21l120.21 0c6.56,0 11.38,1.43 14.6,4.34 3.17,2.91 4.77,6.69 4.77,11.34 0,4.69 -1.65,8.47 -4.86,11.34 -3.21,2.82 -8.04,4.25 -14.51,4.25zm41.91 78.18l0 -89.69c0,-7.64 1.74,-13.33 5.17,-17.15 3.43,-3.83 7.95,-5.74 13.55,-5.74 5.82,0 10.47,1.91 13.9,5.74 3.43,3.82 5.17,9.55 5.17,17.15l0 91.77c0,10.43 1.17,19.15 3.52,26.15 2.3,6.99 6.47,12.42 12.37,16.28 5.96,3.87 14.25,5.78 24.93,5.78 14.77,0 25.19,-3.91 31.32,-11.77 6.12,-7.86 9.16,-19.76 9.16,-35.7l0 -92.51c0,-7.69 1.7,-13.46 5.08,-17.24 3.39,-3.78 7.95,-5.65 13.64,-5.65 5.65,0 10.25,1.87 13.77,5.65 3.52,3.78 5.3,9.55 5.3,17.24l0 89.69c0,14.59 -1.43,26.79 -4.26,36.52 -2.87,9.77 -8.21,18.33 -16.11,25.71 -6.78,6.26 -14.68,10.82 -23.67,13.73 -8.99,2.86 -19.5,4.3 -31.53,4.3 -14.34,0 -26.67,-1.57 -37.05,-4.65 -10.34,-3.08 -18.76,-7.9 -25.28,-14.38 -6.55,-6.47 -11.33,-14.81 -14.42,-24.93 -3.03,-10.11 -4.56,-22.23 -4.56,-36.3zm221.16 -109.45l49.25 0c12.81,0 23.8,1.17 32.96,3.56 9.21,2.39 17.5,6.86 24.97,13.38 19.42,16.63 29.15,41.95 29.15,75.87 0,11.21 -0.96,21.41 -2.91,30.66 -1.96,9.26 -5,17.6 -9.04,25.02 -4.08,7.43 -9.29,14.07 -15.68,19.94 -4.99,4.47 -10.46,8.07 -16.41,10.77 -5.95,2.73 -12.34,4.64 -19.15,5.73 -6.82,1.09 -14.55,1.65 -23.11,1.65l-49.25 0c-6.86,0 -12.03,-1.04 -15.55,-3.13 -3.47,-2.08 -5.73,-4.99 -6.78,-8.77 -1.08,-3.78 -1.6,-8.69 -1.6,-14.68l0 -136.85c0,-8.12 1.82,-14.03 5.47,-17.68 3.65,-3.65 9.56,-5.47 17.68,-5.47zm14.63 29.97l0 126.64 28.67 0c6.25,0 11.2,-0.17 14.76,-0.52 3.57,-0.35 7.26,-1.17 11.08,-2.52 3.82,-1.39 7.12,-3.3 9.9,-5.73 12.64,-10.68 18.98,-29.1 18.98,-55.24 0,-18.42 -2.78,-32.23 -8.34,-41.39 -5.56,-9.17 -12.42,-14.99 -20.54,-17.51 -8.17,-2.47 -18.02,-3.73 -29.53,-3.73l-24.98 0z"/>
   </g>
  </g>
 </g>
</svg>
