<?xml version="1.0" encoding="UTF-8"?>
<!DOCTYPE svg PUBLIC "-//W3C//DTD SVG 1.1//EN" "http://www.w3.org/Graphics/SVG/1.1/DTD/svg11.dtd">
<!-- Creator: CorelDRAW -->
<svg xmlns="http://www.w3.org/2000/svg" xml:space="preserve" width="1881px" height="358px" version="1.1" style="shape-rendering:geometricPrecision; text-rendering:geometricPrecision; image-rendering:optimizeQuality; fill-rule:evenodd; clip-rule:evenodd"
viewBox="0 0 1880.87 358.19"
 xmlns:xlink="http://www.w3.org/1999/xlink"
 xmlns:xodm="http://www.corel.com/coreldraw/odm/2003">
 <defs>
  <style type="text/css">
   <![CDATA[
    .fil4 {fill:#133E86}
    .fil3 {fill:#91D8F7;fill-rule:nonzero}
    .fil1 {fill:#0AADEE;fill-rule:nonzero}
    .fil2 {fill:#1176BC;fill-rule:nonzero}
    .fil0 {fill:#133E86;fill-rule:nonzero}
   ]]>
  </style>
 </defs>
 <g id="Layer_x0020_1">
  <metadata id="CorelCorpID_0Corel-Layer"/>
  <g id="_2192530705840">
   <g>
    <path class="fil0" d="M591.93 219.03l31.09 0c0,-31.82 -26.48,-47.6 -53.68,-47.6 -27.2,0 -55.13,15.78 -55.13,47.6l0 91.56c0,31.81 27.93,47.6 55.62,47.6 27.69,0 55.61,-15.79 55.61,-47.6l-31.08 0c0,14.81 -12.39,22.34 -24.53,22.34 -12.14,0 -24.53,-7.53 -24.53,-22.34l0 -91.56c0,-14.82 12.39,-22.35 24.04,-22.35 11.66,0 22.59,7.53 22.59,22.35l0 0zm128.23 0l0 91.56c0,14.81 -12.39,22.34 -24.53,22.34 -12.14,0 -24.53,-7.53 -24.53,-22.34l0 -91.56c0,-14.82 12.39,-22.35 24.53,-22.35 12.14,0 24.53,7.53 24.53,22.35zm-80.14 0l0 91.56c0,31.81 27.93,47.6 55.61,47.6 27.69,0 55.62,-15.79 55.62,-47.6l0 -91.56c0,-31.82 -27.93,-47.6 -55.62,-47.6 -27.68,0 -55.61,15.78 -55.61,47.6zm209.1 128.71c1.94,4.86 6.32,8.02 11.17,8.02l23.32 0 0 -181.91 -31.09 0 0 103.71 3.64 19.67 -2.42 0 -6.08 -21.86 -40.8 -93.5c-1.94,-4.86 -6.31,-8.02 -11.17,-8.02l-23.31 0 0 181.91 31.08 0 0 -103.95 -3.64 -19.43 2.43 0 6.07 21.86 40.8 93.5zm135.52 0c1.94,4.86 6.31,8.02 11.17,8.02l23.31 0 0 -181.91 -31.08 0 0 103.71 3.64 19.67 -2.43 0 -6.07 -21.86 -40.8 -93.5c-1.94,-4.86 -6.32,-8.02 -11.17,-8.02l-23.32 0 0 181.91 31.09 0 0 -103.95 -3.64 -19.43 2.43 0 6.07 21.86 40.8 93.5zm155.67 8.02l0 -25.26 -66.06 0 0 -54.64 57.32 0 0 -25.26 -57.32 0 0 -51.49 61.21 0 0 -25.26 -92.29 0 0 174.62c0,4.13 3.16,7.29 7.28,7.29l89.86 0zm94.23 -136.73l31.09 0c0,-31.82 -26.47,-47.6 -53.67,-47.6 -27.2,0 -55.13,15.78 -55.13,47.6l0 91.56c0,31.81 27.93,47.6 55.61,47.6 27.69,0 55.62,-15.79 55.62,-47.6l-31.09 0c0,14.81 -12.38,22.34 -24.53,22.34 -12.14,0 -24.53,-7.53 -24.53,-22.34l0 -91.56c0,-14.82 12.39,-22.35 24.05,-22.35 11.65,0 22.58,7.53 22.58,22.35l0 0zm110.51 -19.92l35.7 0 0 -25.26 -102.49 0 0 25.26 35.7 0 0 156.65 31.09 0 0 -156.65z"/>
    <path class="fil1" d="M1477.96 305.89c0,19.92 -12.38,25.5 -24.28,25.5 -13.6,0 -27.2,-7.53 -27.2,-22.34l-31.09 0c0,31.81 29.14,47.6 58.29,47.6 27.44,0 55.37,-13.6 55.37,-52.46 0,-65.81 -78.69,-43.96 -78.69,-87.19 0,-17 11.66,-21.85 22.59,-21.85 10.2,0 20.16,7.53 20.16,22.34l31.08 0c0,-31.81 -25.5,-47.6 -51.24,-47.6 -26.47,0 -53.67,13.11 -53.67,50.51 0,63.39 78.68,34.49 78.68,85.49l0 0zm108.08 -108.31l35.7 0 0 -25.26 -102.49 0 0 25.26 35.7 0 0 156.64 31.09 0 0 -156.64zm52.94 111.47c0,31.81 27.93,47.6 55.61,47.6 27.69,0 55.62,-15.79 55.62,-47.6l0 -136.73 -31.09 0 0 136.73c0,14.81 -12.38,22.34 -24.53,22.34 -12.14,0 -24.52,-7.53 -24.52,-22.34l0 -136.73 -31.09 0 0 136.73zm186.28 45.17c27.68,0 55.61,-15.78 55.61,-47.6l0 -86.7c0,-31.82 -27.93,-47.6 -55.61,-47.6l-52.22 0 0 174.62c0,4.12 3.16,7.28 7.29,7.28l44.93 0zm0 -25.26l-21.13 0 0 -131.38 21.13 0c12.14,0 24.52,7.52 24.52,22.34l0 86.7c0,14.81 -12.38,22.34 -24.52,22.34z"/>
   </g>
   <g>
    <g>
     <path class="fil2" d="M34.54 263.11c-0.52,-3.65 -0.86,-7.36 -1,-11.11 -0.02,-0.72 -0.02,-1.47 -0.04,-2.23 -0.06,-0.74 -0.06,-1.5 -0.06,-2.26 0,-30.6 12.39,-58.27 32.44,-78.3 7.52,-7.52 16.12,-13.94 25.53,-19.05 2.34,-1.3 4.75,-2.49 7.17,-3.59 0.85,-0.36 1.65,-0.74 2.49,-1.06 2.49,-1.09 5.01,-2.05 7.56,-2.89 11.15,-3.79 23.12,-5.83 35.55,-5.83 30.56,0 58.23,12.39 78.24,32.42 4.01,4.01 7.72,8.34 11.08,12.93 -13.41,18.33 -21.33,40.92 -21.33,65.37 0,0.76 0,1.5 0.02,2.26 0,0.76 0.02,1.51 0.04,2.25 0.1,2.26 0.26,4.47 0.48,6.67 -0.02,0.05 -0.02,0.11 0,0.13 0.16,1.42 0.34,2.86 0.52,4.27 0,0.02 0,0.04 0,0.04 0.12,0.72 0.22,1.44 0.34,2.18 0.37,2.15 0.77,4.29 1.25,6.42 0.5,2.12 1.02,4.25 1.62,6.31 0.38,1.39 0.8,2.77 1.27,4.13l-42.57 0c0,24.77 18.52,45.18 42.46,48.11 -19.53,17.38 -45.23,27.91 -73.42,27.91l-110.74 0 32.42 -32.43c-16.56,-16.56 -27.87,-38.33 -31.32,-62.65zm159.12 -3.81l0 0c10.21,0 18.51,-8.33 18.51,-18.53 0,-10.23 -8.3,-18.51 -18.51,-18.51 -10.24,0 -18.52,8.28 -18.52,18.51 0,10.2 8.28,18.53 18.52,18.53z"/>
     <path class="fil3" d="M250.57 278.04c0.6,-2.06 1.12,-4.19 1.62,-6.31 0.48,-2.13 0.88,-4.27 1.24,-6.42 0.12,-0.74 0.23,-1.46 0.35,-2.18 0,0 0,-0.02 0,-0.04 0.18,-1.41 0.34,-2.85 0.52,-4.27 0.02,-0.02 0.02,-0.08 0,-0.13 0.2,-2.2 0.38,-4.41 0.48,-6.69 0.02,-0.72 0.04,-1.47 0.04,-2.23 0.02,-0.78 0.02,-1.5 0.02,-2.26 0,-24.45 -7.92,-47.04 -21.34,-65.37 3.35,-4.59 7.06,-8.92 11.07,-12.93 20.03,-20.03 47.7,-32.42 78.26,-32.42 12.43,0 24.38,2.04 35.53,5.83 2.57,0.84 5.09,1.8 7.58,2.89 0.82,0.32 1.64,0.7 2.47,1.06 2.44,1.1 4.85,2.29 7.2,3.59 9.4,5.09 17.98,11.53 25.5,19.05 20.05,20.03 32.44,47.7 32.44,78.28 0,0.78 0,1.54 -0.04,2.28 -0.02,0.76 -0.02,1.51 -0.06,2.23 -0.14,3.75 -0.46,7.46 -1,11.11 -3.43,24.32 -14.74,46.09 -31.3,62.65l32.4 32.43 -110.72 0c-28.19,0 -53.9,-10.53 -73.43,-27.91 23.95,-2.93 42.47,-23.34 42.47,-48.11l-42.56 0c0.46,-1.36 0.88,-2.74 1.26,-4.13zm22.78 -18.74l0 0c10.22,0 18.52,-8.33 18.52,-18.53 0,-10.23 -8.3,-18.51 -18.52,-18.51 -10.23,0 -18.51,8.28 -18.51,18.51 0,10.2 8.28,18.53 18.51,18.53z"/>
     <path class="fil1" d="M212.17 247.51c0,0.76 0,1.5 0.02,2.26 0,0.76 0.02,1.51 0.04,2.25 0.1,2.26 0.26,4.47 0.48,6.67 -0.02,0.05 -0.02,0.11 0,0.13 0.16,1.42 0.34,2.86 0.52,4.27 0,0.02 0,0.04 0,0.04 0.12,0.72 0.22,1.44 0.34,2.18 0.37,2.15 0.77,4.29 1.25,6.42 0.5,2.12 1.02,4.25 1.62,6.31 0.38,1.39 0.8,2.77 1.27,4.13l31.6 0c0.46,-1.36 0.88,-2.74 1.26,-4.13 0.6,-2.06 1.12,-4.19 1.62,-6.31 0.48,-2.13 0.88,-4.27 1.24,-6.42 0.12,-0.74 0.23,-1.46 0.35,-2.18 0,0 0,-0.02 0,-0.04 0.18,-1.41 0.34,-2.85 0.52,-4.27 0.02,-0.02 0.02,-0.08 0,-0.13 0.2,-2.2 0.38,-4.41 0.48,-6.69 0.02,-0.72 0.04,-1.47 0.04,-2.23 0.02,-0.78 0.02,-1.5 0.02,-2.26 0,-24.45 -7.92,-47.04 -21.34,-65.37 -13.41,18.33 -21.33,40.92 -21.33,65.37z"/>
    </g>
    <g>
     <path class="fil4" d="M182.32 39.1l5.99 2.5c7.71,3.16 35.31,15.18 40.14,21.75 -11.64,7.31 -19.09,19.33 -29.06,27.28l-4.81 -2.79c-34.97,-22.65 -92.47,-12.97 -127.48,4.62 -9.3,4.67 -18.29,10.5 -24.5,18.66l-5.73 7.62c-7.47,-2.43 -13.83,-7.8 -21.32,-8.54 1.45,8.61 2.72,17.24 4.14,25.85 2.65,16.19 4.79,8.95 7.56,17.48 2.29,7.07 0.88,9.15 5.62,19.48 1.26,2.75 3.57,7.1 4.41,9.67 5.61,17.05 -25.88,12.51 -25.89,12.51 -3.53,-4.28 -2.44,-4.7 -1.39,-11.93 2.5,-17.15 0.9,-26.69 2.58,-33.24 2.02,-7.87 -1.53,-19.81 -2.96,-29.16 -2.77,-18.13 0.07,-11.72 -9.62,-20.33 9.78,-11.04 21.86,-20.92 31.41,-31.92l4.89 -4.44 64.67 -64.17c12.62,4.03 29.63,13.74 41.47,19.39 10.48,5.01 31.35,13.74 39.88,19.71z"/>
     <path class="fil4" d="M83.5 141.89c-3.11,1 -3.44,0.71 -6.44,2.36 -2.38,1.3 -2.33,1.96 -3.31,2.94 -12.61,6.2 -17.06,13.45 -23.71,21.05 -2.29,-9.78 -5.96,-28.64 -6.65,-38.4 -2.5,-35.51 90.38,-57.48 133.77,-43.67 22.15,7.06 21.89,21.97 25.56,55.93 -0.42,-0.24 -0.94,-0.62 -1.21,-0.81l-5.62 -3.88c-2.3,-1.49 -2.97,-1.91 -5.6,-3.06 -4.03,-1.76 -7.82,-2.78 -12.86,-3.86 -33.17,-7.08 -63.99,1.6 -93.93,11.4z"/>
     <path class="fil4" d="M73.75 147.19c0.98,-0.98 0.93,-1.64 3.31,-2.94 3,-1.65 3.33,-1.36 6.44,-2.36l-9.75 5.3z"/>
     <path class="fil4" d="M188.31 41.6l-5.99 -2.5c6.52,0.56 3.69,0.31 5.99,2.5z"/>
     <path class="fil4" d="M31.41 68.61c1.5,-2.74 -1.1,-1.66 4.89,-4.44l-4.89 4.44z"/>
    </g>
    <g>
     <path class="fil4" d="M299.4 36.25l-5.95 2.25c-7.64,2.84 -35.05,13.67 -40.03,20.03 11.05,7.79 17.81,20.12 27.2,28.49l4.8 -2.58c35.04,-21.15 90.69,-9.03 124.1,10.03 8.86,5.06 17.39,11.27 23.1,19.68l5.28 7.85c7.38,-2.1 13.81,-7.19 21.14,-7.62 -1.78,8.54 -3.38,17.11 -5.11,25.66 -3.26,16.06 -5.05,8.74 -8.1,17.13 -2.52,6.97 -1.24,9.11 -6.29,19.23 -1.34,2.69 -3.77,6.94 -4.7,9.47 -6.17,16.8 24.72,13.6 24.73,13.6 3.61,-4.12 2.57,-4.59 1.84,-11.86 -1.72,-17.23 0.24,-26.7 -1.13,-33.31 -1.64,-7.96 2.31,-19.73 4.09,-29.01 3.45,-18 0.42,-11.71 10.22,-19.91 -9.07,-11.45 -20.44,-21.82 -29.3,-33.22l-4.58 -4.65 -60.38 -66.86c-12.47,3.5 -29.46,12.47 -41.23,17.61 -10.43,4.56 -31.14,12.4 -39.7,17.99z"/>
     <path class="fil4" d="M391.48 143.16c2.98,1.13 3.32,0.85 6.18,2.62 2.26,1.4 2.18,2.07 3.1,3.08 12.03,6.74 16.07,14.17 22.25,22.05 2.63,-9.68 6.99,-28.37 8.07,-38.09 3.91,-35.37 -85.73,-61.27 -128.61,-49.31 -21.88,6.11 -22.24,21.02 -27.23,54.79 0.41,-0.23 0.94,-0.58 1.21,-0.76l5.64 -3.64c2.3,-1.38 2.97,-1.78 5.59,-2.82 4,-1.58 7.74,-2.44 12.7,-3.3 32.62,-5.67 62.31,4.32 91.1,15.38z"/>
     <path class="fil4" d="M400.76 148.86c-0.92,-1.01 -0.84,-1.68 -3.1,-3.08 -2.86,-1.77 -3.2,-1.49 -6.18,-2.62l9.28 5.7z"/>
     <path class="fil4" d="M293.45 38.5l5.95 -2.25c-6.38,0.29 -3.61,0.16 -5.95,2.25z"/>
     <path class="fil4" d="M445.29 72.16c-1.34,-2.8 1.14,-1.61 -4.58,-4.65l4.58 4.65z"/>
    </g>
   </g>
  </g>
 </g>
</svg>
