<?xml version="1.0" encoding="UTF-8"?>
<!DOCTYPE svg PUBLIC "-//W3C//DTD SVG 1.1//EN" "http://www.w3.org/Graphics/SVG/1.1/DTD/svg11.dtd">
<!-- Creator: CorelDRAW -->
<svg xmlns="http://www.w3.org/2000/svg" xml:space="preserve" width="1871px" height="303px" version="1.1" style="shape-rendering:geometricPrecision; text-rendering:geometricPrecision; image-rendering:optimizeQuality; fill-rule:evenodd; clip-rule:evenodd"
viewBox="0 0 2047.53 331.41"
 xmlns:xlink="http://www.w3.org/1999/xlink"
 xmlns:xodm="http://www.corel.com/coreldraw/odm/2003">
 <defs>
  <style type="text/css">
   <![CDATA[
    .fil3 {fill:#0AADEE}
    .fil4 {fill:#1176BC}
    .fil2 {fill:#133E86}
    .fil1 {fill:#0AADEE;fill-rule:nonzero}
    .fil0 {fill:#133E86;fill-rule:nonzero}
   ]]>
  </style>
 </defs>
 <g id="Layer_x0020_1">
  <metadata id="CorelCorpID_0Corel-Layer"/>
  <g id="_2193010091104">
   <g>
    <path class="fil0" d="M463.42 331.27c-28.08,0 -48.94,-6.89 -62.49,-20.67 -13.59,-13.78 -20.41,-33.47 -20.41,-59.07l0 -28.21c0,-25.14 6.87,-44.55 20.56,-58.19 13.65,-13.59 34.26,-20.43 61.75,-20.43 7.07,0 13.59,0.46 19.53,1.39 5.94,0.94 11.34,2.24 16.25,3.82 4.91,1.68 9.28,3.54 13.11,5.68l3.82 42.59c-5.69,-2.6 -11.83,-4.88 -18.45,-6.79 -6.63,-1.91 -14.24,-2.84 -22.78,-2.84 -13.64,0 -23.6,3.26 -29.89,9.77 -6.28,6.52 -9.42,15.6 -9.42,27.23l0 23.88c0,11.55 3.19,20.58 9.57,27.14 6.38,6.61 16.98,9.87 31.81,9.87 8.24,0 15.65,-0.98 22.23,-3.03 6.58,-1.95 12.71,-4.37 18.41,-7.16l-3.83 43.43c-3.73,2.14 -8.1,4.09 -13.16,5.86 -5.05,1.77 -10.65,3.17 -16.73,4.19 -6.09,1.03 -12.72,1.54 -19.88,1.54zm140.92 0.14c-24.25,0 -42.56,-5.64 -54.83,-16.85 -12.32,-11.22 -18.5,-26.77 -18.5,-46.69l0 -17.46c0,-20.39 6.18,-36.31 18.55,-47.76 12.37,-11.45 30.63,-17.17 54.78,-17.17 24.24,0 42.55,5.72 54.87,17.17 12.27,11.45 18.46,27.37 18.46,47.76l0 17.46c0,19.92 -6.14,35.47 -18.41,46.69 -12.27,11.21 -30.58,16.85 -54.92,16.85zm0 -38.83c6.97,0 12.22,-2 15.85,-5.95 3.58,-3.91 5.35,-9.59 5.35,-16.95l0 -21.22c0,-7.92 -1.77,-13.92 -5.35,-18.02 -3.63,-4.09 -8.88,-6.14 -15.85,-6.14 -6.88,0 -12.13,2.05 -15.76,6.14 -3.63,4.1 -5.45,10.1 -5.45,18.02l0 21.22c0,7.36 1.82,13.04 5.45,16.95 3.63,3.95 8.88,5.95 15.76,5.95zm187.45 34.64l0 -79.04c0,-4.38 -0.54,-8.15 -1.67,-11.31 -1.13,-3.17 -3.1,-5.59 -5.84,-7.27 -2.75,-1.67 -6.48,-2.51 -11.19,-2.51 -3.64,0 -6.88,0.61 -9.72,1.82 -2.85,1.21 -5.25,2.79 -7.27,4.79 -2.01,2.05 -3.63,4.28 -4.81,6.8l-7.95 -20.39 8.39 0c1.48,-6.43 3.98,-12.2 7.46,-17.27 3.44,-5.08 8.3,-9.08 14.58,-12.06 6.19,-2.98 14.19,-4.47 23.91,-4.47 10.6,0 19.33,1.96 26.16,5.87 6.82,3.91 11.88,9.77 15.16,17.64 3.24,7.87 4.91,17.83 4.91,29.84l0 87.56 -52.12 0zm-92.04 0l0 -137.56 51.84 0 -1.62 35.34 1.91 5.02 0 97.2 -52.13 0zm262.26 0l0 -79.04c0,-4.38 -0.54,-8.15 -1.67,-11.31 -1.13,-3.17 -3.09,-5.59 -5.84,-7.27 -2.75,-1.67 -6.48,-2.51 -11.19,-2.51 -3.64,0 -6.87,0.61 -9.72,1.82 -2.85,1.21 -5.25,2.79 -7.27,4.79 -2.01,2.05 -3.63,4.28 -4.81,6.8l-7.95 -20.39 8.39 0c1.48,-6.43 3.98,-12.2 7.46,-17.27 3.44,-5.08 8.3,-9.08 14.58,-12.06 6.19,-2.98 14.19,-4.47 23.91,-4.47 10.6,0 19.34,1.96 26.16,5.87 6.82,3.91 11.88,9.77 15.17,17.64 3.23,7.87 4.9,17.83 4.9,29.84l0 87.56 -52.12 0zm-92.03 0l0 -137.56 51.83 0 -1.62 35.34 1.91 5.02 0 97.2 -52.12 0zm245.9 3.63c-27.78,0 -48.2,-5.73 -61.16,-17.18 -13,-11.45 -19.53,-28.21 -19.53,-50.27l0 -10.75c0,-21.88 6.13,-38.55 18.36,-50 12.17,-11.45 30.04,-17.17 53.5,-17.17 15.61,0 28.61,2.42 39.02,7.3 10.4,4.89 18.26,11.92 23.51,21.09 5.25,9.17 7.85,20.25 7.85,33.19l0 4.33c0,3.72 -0.14,7.49 -0.49,11.36 -0.34,3.86 -0.88,7.44 -1.57,10.7l-46.68 0c0.4,-5.68 0.69,-11.03 0.84,-16.06 0.14,-5.02 0.19,-9.54 0.19,-13.54 0,-4.84 -0.78,-8.89 -2.35,-12.24 -1.57,-3.31 -4.03,-5.82 -7.36,-7.55 -3.34,-1.72 -7.66,-2.56 -12.96,-2.56 -7.95,0 -13.7,1.96 -17.28,5.87 -3.58,3.91 -5.4,9.45 -5.4,16.62l0 12.43 0.3 5.3 0 8.66c0,2.89 0.54,5.68 1.62,8.38 1.07,2.7 3.09,5.12 5.98,7.17 2.9,2.14 7.02,3.77 12.37,4.98 5.3,1.21 12.27,1.81 20.81,1.81 8.74,0 17.28,-0.69 25.63,-2.04 8.34,-1.31 16.39,-3.22 24.14,-5.64l-4.12 35.89c-6.77,3.17 -14.82,5.64 -24.2,7.36 -9.37,1.67 -19.73,2.56 -31.02,2.56zm-53.15 -57.4l0 -29.04 102.19 0 0 29.04 -102.19 0zm201.29 57.54c-23.66,0 -41.18,-5.87 -52.57,-17.6 -11.39,-11.73 -17.08,-28.25 -17.08,-49.57l0 -11.87c0,-20.67 5.69,-36.87 17.08,-48.6 11.39,-11.73 28.86,-17.6 52.42,-17.6 5.79,0 11.29,0.33 16.49,1.03 5.2,0.7 10.01,1.67 14.43,2.93 4.42,1.26 8.35,2.7 11.78,4.28l4.13 40.36c-4.81,-2.33 -10.02,-4.28 -15.61,-5.82 -5.6,-1.53 -11.83,-2.28 -18.7,-2.28 -10.61,0 -18.17,2.28 -22.73,6.84 -4.57,4.57 -6.87,11.13 -6.87,19.7l0 9.07c0,8.94 2.5,15.78 7.51,20.58 5.01,4.84 12.86,7.21 23.56,7.21 6.67,0 12.76,-0.7 18.21,-2.09 5.45,-1.4 10.8,-3.26 16.1,-5.59l-3.98 40.5c-5.4,2.51 -11.92,4.56 -19.58,6.14 -7.66,1.59 -15.86,2.38 -24.59,2.38zm130.75 -0.56c-13.44,0 -24.15,-1.95 -32,-5.82 -7.9,-3.86 -13.55,-9.59 -16.93,-17.22 -3.44,-7.64 -5.11,-17.04 -5.11,-28.21l0 -73.73 51.69 0 0 65.35c0,5.96 1.42,10.33 4.27,13.03 2.85,2.8 8.44,4.15 16.79,4.15 4.51,0 9.03,-0.47 13.49,-1.49 4.47,-0.93 8.49,-2.1 12.13,-3.4l-4.42 40.5c-5.11,2.04 -11,3.72 -17.67,4.98 -6.68,1.21 -14.09,1.86 -22.24,1.86zm-72.15 -102.08l0 -38.69 115 0 -4.41 38.69 -110.59 0zm18.85 -35.33l-0.15 -34.5 51.39 -4.33 -1.76 38.83 -49.48 0z"/>
    <path class="fil1" d="M1518.02 331.27c-8.64,0 -16.78,-0.51 -24.44,-1.54 -7.66,-1.02 -14.68,-2.37 -21.06,-4 -6.38,-1.63 -12.02,-3.31 -16.93,-5.08l-4.57 -45.8c7.86,3.17 17.13,6.19 27.83,8.98 10.7,2.89 21.94,4.29 33.72,4.29 10.51,0 17.82,-1.03 22.04,-3.08 4.13,-2.04 6.24,-5.35 6.24,-9.91l0 -0.56c0,-3.07 -1.04,-5.63 -3,-7.63 -2.06,-2 -5.4,-3.91 -10.11,-5.73 -4.71,-1.81 -11.04,-3.91 -18.99,-6.33 -12.86,-3.91 -23.71,-8.15 -32.55,-12.8 -8.83,-4.56 -15.51,-10.38 -20.02,-17.32 -4.52,-6.93 -6.78,-15.78 -6.78,-26.58l0 -2.09c0,-16.67 6.09,-29.37 18.21,-38.22 12.08,-8.75 29.8,-13.17 53.06,-13.17 13.65,0 25.48,1.07 35.44,3.21 9.96,2.14 18.55,4.75 25.82,7.82l4.56 42.73c-7.85,-3.35 -16.59,-6.14 -26.21,-8.33 -9.62,-2.19 -19.73,-3.26 -30.33,-3.26 -6.97,0 -12.42,0.42 -16.25,1.31 -3.88,0.88 -6.57,2.18 -8.05,3.91 -1.47,1.72 -2.21,3.86 -2.21,6.37l0 0.42c0,2.61 0.94,4.89 2.75,6.89 1.82,2 5.11,4.05 9.92,6.1 4.81,2.05 11.68,4.42 20.61,7.12 12.76,3.82 23.51,7.82 32.2,12.01 8.69,4.19 15.22,9.59 19.63,16.11 4.42,6.56 6.63,15.45 6.63,26.62l0 1.96c0,18.52 -6.33,32.44 -18.99,41.66 -12.67,9.26 -32.06,13.92 -58.17,13.92zm155.94 -0.84c-13.45,0 -24.15,-1.95 -32,-5.82 -7.91,-3.86 -13.55,-9.59 -16.94,-17.22 -3.43,-7.64 -5.1,-17.04 -5.1,-28.21l0 -73.73 51.68 0 0 65.35c0,5.96 1.43,10.33 4.27,13.03 2.85,2.8 8.45,4.15 16.79,4.15 4.52,0 9.03,-0.47 13.5,-1.49 4.46,-0.93 8.49,-2.1 12.12,-3.4l-4.42 40.5c-5.1,2.04 -10.99,3.72 -17.67,4.98 -6.67,1.21 -14.08,1.86 -22.23,1.86zm-72.15 -102.08l0 -38.69 115 0 -4.42 38.69 -110.58 0zm18.85 -35.33l-0.15 -34.5 51.39 -4.33 -1.77 38.83 -49.47 0zm165.21 -3.36l0 79.04c0,4.38 0.59,8.15 1.72,11.32 1.13,3.16 3.04,5.58 5.79,7.26 2.75,1.67 6.48,2.51 11.19,2.51 3.73,0 6.97,-0.6 9.82,-1.81 2.75,-1.21 5.15,-2.84 7.21,-4.89 2.01,-2.05 3.59,-4.28 4.76,-6.7l7.95 20.38 -8.39 0c-1.47,6.34 -3.93,12.06 -7.41,17.18 -3.53,5.12 -8.34,9.17 -14.53,12.15 -6.18,2.98 -14.18,4.47 -24,4.47 -10.5,0 -19.19,-1.96 -26.06,-5.87 -6.88,-3.91 -11.98,-9.82 -15.22,-17.68 -3.29,-7.87 -4.96,-17.79 -4.96,-29.8l0 -87.56 52.13 0zm92.03 0l0 137.56 -51.83 0 1.62 -35.33 -1.92 -5.03 0 -97.2 52.13 0zm73.48 140.91c-16.69,0 -29.31,-5.35 -37.89,-16.01 -8.59,-10.62 -12.91,-26.63 -12.91,-47.95l0 -14.66c0,-21.69 4.32,-38.08 12.91,-49.11 8.58,-11.03 21.69,-16.53 39.36,-16.53 8.64,0 15.8,1.4 21.5,4.19 5.69,2.8 10.16,6.71 13.5,11.73 3.24,5.03 5.54,10.99 6.82,17.88l13.4 0 -11.78 28.63c-0.1,-4.85 -0.98,-8.94 -2.7,-12.39 -1.77,-3.35 -4.22,-6 -7.36,-7.86 -3.24,-1.87 -7.17,-2.8 -11.88,-2.8 -6.97,0 -12.27,1.96 -15.9,5.87 -3.64,3.91 -5.45,9.77 -5.45,17.6l0 16.89c0,7.92 1.86,13.87 5.54,17.78 3.69,4.01 9.18,5.96 16.55,5.96 3.63,0 6.87,-0.6 9.81,-1.81 2.85,-1.21 5.35,-2.89 7.41,-5.03 2.07,-2.14 3.68,-4.61 4.86,-7.4l12.81 21.22 -14.43 0c-1.37,6.34 -3.73,12.06 -7.07,17.18 -3.33,5.12 -8,9.17 -13.98,12.15 -5.99,2.98 -13.7,4.47 -23.12,4.47zm44.32 -3.35l1.47 -35.89 -0.88 -6.84 0 -55.03 0 -6.28 -0.59 -40.36 0 -39.8 51.83 0 0 184.2 -51.83 0z"/>
   </g>
  </g>
  <g id="_2193010100656">
   <g>
    <path class="fil0" d="M0 206.02c6.2,-0.16 11.24,-1.81 15.14,-5 3.9,-3.17 6.52,-7.51 7.8,-13.01 1.27,-5.54 1.96,-14.98 2.05,-28.35 0.04,-13.38 0.24,-22.2 0.61,-26.47 0.74,-6.73 2.05,-12.1 4.02,-16.2 1.93,-4.07 4.35,-7.35 7.22,-9.81 2.88,-2.42 6.57,-4.31 11.04,-5.58 3.04,-0.78 7.96,-1.19 14.85,-1.19l4.14 0 0 13.54c-13.62,1.3 -24.36,12.85 -24.36,26.79l0 49.65c-1.46,5.42 -3.47,9.81 -5.99,13.17 -3.53,4.64 -9.03,8.78 -16.58,12.35 7.55,3.57 13.05,7.71 16.58,12.35 2.52,3.36 4.53,7.75 5.99,13.17l0 49.65c0,14.8 12.11,26.91 26.91,26.91l10.9 0c0.35,5.07 1.09,9.53 2.16,13.42l-19.75 0c-6.89,0 -11.83,-0.37 -14.85,-1.19 -4.48,-1.23 -8.16,-3.16 -11.04,-5.58 -2.87,-2.46 -5.29,-5.75 -7.22,-9.81 -1.97,-4.1 -3.28,-9.48 -4.02,-16.21 -0.37,-4.26 -0.57,-13.08 -0.61,-26.46 -0.09,-13.38 -0.78,-22.81 -2.05,-28.35 -1.28,-5.5 -3.9,-9.85 -7.8,-13.01 -3.9,-3.2 -8.94,-4.84 -15.14,-5l0 -9.89 0 -9.89zm317.62 0c-6.2,-0.16 -11.24,-1.81 -15.14,-5 -3.9,-3.17 -6.52,-7.51 -7.8,-13.01 -1.27,-5.54 -1.96,-14.98 -2.05,-28.35 -0.04,-13.38 -0.24,-22.2 -0.61,-26.47 -0.74,-6.73 -2.05,-12.1 -4.02,-16.2 -1.93,-4.07 -4.35,-7.35 -7.22,-9.81 -2.88,-2.42 -6.57,-4.31 -11.04,-5.58 -3.04,-0.78 -7.96,-1.19 -14.85,-1.19l-4.14 0 0 13.54c13.62,1.3 24.36,12.85 24.36,26.79l0 49.65c1.46,5.42 3.47,9.81 5.99,13.17 3.53,4.64 9.03,8.78 16.58,12.35 -7.55,3.57 -13.05,7.71 -16.58,12.35 -2.52,3.36 -4.53,7.74 -5.99,13.16l0 49.66c0,14.8 -12.11,26.91 -26.91,26.91l-2.87 0 0 0.94c0,4.9 -0.8,9.06 -2.21,12.48l11.77 0c6.89,0 11.83,-0.37 14.85,-1.19 4.48,-1.23 8.16,-3.16 11.04,-5.58 2.87,-2.46 5.29,-5.75 7.22,-9.81 1.97,-4.1 3.28,-9.48 4.02,-16.21 0.37,-4.26 0.57,-13.08 0.61,-26.46 0.09,-13.38 0.78,-22.81 2.05,-28.35 1.28,-5.5 3.9,-9.85 7.8,-13.01 3.9,-3.2 8.94,-4.84 15.14,-5l0 -9.89 0 -9.89z"/>
    <path class="fil2" d="M283.74 77.79l-32.99 21 0 -22.62c0,-3.2 -1.91,-5.95 -4.65,-7.17 -24.19,-12.88 -55.81,-19.31 -87.29,-19.31 -31.7,0 -63.55,6.52 -87.8,19.58 -2.63,1.41 -4.12,4.11 -4.12,6.9l-0.02 0 0 22.19 -32.33 -20.57 124.6 -77.79 124.6 77.79z"/>
    <path class="fil2" d="M242.9 113.48l0 -37.31c-46.15,-24.84 -122.03,-24.84 -168.18,0l0 37.31c22.07,-11.88 51.61,-19.14 84.09,-19.14 32.48,0 62.02,7.26 84.09,19.14z"/>
   </g>
   <path class="fil3" d="M240.24 153.92l-71.35 0c-10.74,0 -19.53,8.78 -19.53,19.53l0 107.66c0,10.74 8.79,19.52 19.53,19.52l18.99 0 6.95 6.6 7.03 6.67 4.99 4.72c2.31,2.2 6.26,6.29 10.35,9.58 7.16,5.77 14.76,4.36 14.76,-9.27l0 -17.34 -0.03 -0.96 8.31 0c10.74,0 19.52,-8.78 19.52,-19.52l0 -107.66c0,-10.75 -8.78,-19.53 -19.52,-19.53z"/>
   <path class="fil3" d="M74.75 131.18l91 0c9.29,0 16.89,7.61 16.89,16.9l0 116.38c0,9.29 -7.6,16.89 -16.89,16.89l-22.86 0 -7.59 10.72 -7.68 10.85 -5.45 7.69c-2.52,3.57 -6.84,10.23 -11.31,15.59 -7.82,9.38 -16.12,7.07 -16.12,-15.09l0 -28.21 0.03 -1.55 -20.02 0c-9.29,0 -16.89,-7.6 -16.89,-16.89l0 -116.38c0,-9.29 7.6,-16.9 16.89,-16.9z"/>
   <path class="fil4" d="M182.64 153.92l0 110.54c0,9.29 -7.6,16.89 -16.89,16.89l-16.39 0 0 -0.24 0 -107.66c0,-10.75 8.79,-19.53 19.53,-19.53l13.75 0z"/>
  </g>
 </g>
</svg>
