<?xml version="1.0" encoding="UTF-8"?>
<!DOCTYPE svg PUBLIC "-//W3C//DTD SVG 1.1//EN" "http://www.w3.org/Graphics/SVG/1.1/DTD/svg11.dtd">
<!-- Creator: CorelDRAW -->
<svg xmlns="http://www.w3.org/2000/svg" xml:space="preserve" width="864px" height="667px" version="1.1" style="shape-rendering:geometricPrecision; text-rendering:geometricPrecision; image-rendering:optimizeQuality; fill-rule:evenodd; clip-rule:evenodd"
viewBox="0 0 1209.55 933.28"
 xmlns:xlink="http://www.w3.org/1999/xlink"
 xmlns:xodm="http://www.corel.com/coreldraw/odm/2003">
 <defs>
  <style type="text/css">
   <![CDATA[
    .fil3 {fill:#0AADEE}
    .fil4 {fill:#1176BC}
    .fil2 {fill:#133E86}
    .fil1 {fill:#0AADEE;fill-rule:nonzero}
    .fil0 {fill:#133E86;fill-rule:nonzero}
   ]]>
  </style>
 </defs>
 <g id="Layer_x0020_1">
  <metadata id="CorelCorpID_0Corel-Layer"/>
  <g id="_2191466361376">
   <g>
    <path class="fil0" d="M60.15 933.18c-20.37,0 -35.51,-5 -45.34,-14.99 -9.86,-10 -14.81,-24.29 -14.81,-42.86l0 -20.47c0,-18.24 4.98,-32.32 14.92,-42.22 9.9,-9.86 24.86,-14.83 44.8,-14.83 5.13,0 9.87,0.34 14.18,1.02 4.31,0.67 8.23,1.62 11.79,2.77 3.56,1.21 6.73,2.56 9.5,4.12l2.78 30.9c-4.13,-1.89 -8.58,-3.55 -13.39,-4.93 -4.81,-1.39 -10.33,-2.06 -16.52,-2.06 -9.9,0 -17.13,2.36 -21.69,7.09 -4.56,4.73 -6.84,11.32 -6.84,19.76l0 17.33c0,8.37 2.31,14.93 6.95,19.69 4.62,4.79 12.32,7.16 23.07,7.16 5.99,0 11.36,-0.71 16.14,-2.2 4.77,-1.42 9.22,-3.17 13.35,-5.2l-2.78 31.51c-2.7,1.56 -5.87,2.97 -9.54,4.26 -3.67,1.28 -7.73,2.3 -12.14,3.04 -4.42,0.74 -9.23,1.11 -14.43,1.11zm102.25 0.1c-17.6,0 -30.88,-4.08 -39.78,-12.22 -8.94,-8.14 -13.43,-19.42 -13.43,-33.88l0 -12.67c0,-14.79 4.49,-26.34 13.46,-34.65 8.98,-8.31 22.23,-12.46 39.75,-12.46 17.59,0 30.87,4.15 39.81,12.46 8.91,8.31 13.39,19.86 13.39,34.65l0 12.67c0,14.46 -4.45,25.74 -13.35,33.88 -8.91,8.14 -22.19,12.22 -39.85,12.22zm0 -28.16c5.06,0 8.86,-1.46 11.5,-4.33 2.6,-2.83 3.88,-6.95 3.88,-12.29l0 -15.4c0,-5.74 -1.28,-10.1 -3.88,-13.07 -2.64,-2.98 -6.44,-4.46 -11.5,-4.46 -4.99,0 -8.8,1.48 -11.43,4.46 -2.64,2.97 -3.96,7.33 -3.96,13.07l0 15.4c0,5.34 1.32,9.46 3.96,12.29 2.63,2.87 6.44,4.33 11.43,4.33zm136.01 25.12l0 -57.35c0,-3.17 -0.4,-5.91 -1.21,-8.2 -0.82,-2.3 -2.25,-4.06 -4.24,-5.27 -2,-1.22 -4.7,-1.83 -8.12,-1.83 -2.64,0 -4.99,0.44 -7.05,1.32 -2.07,0.88 -3.81,2.03 -5.27,3.48 -1.47,1.49 -2.64,3.11 -3.49,4.93l-5.77 -14.79 6.09 0c1.06,-4.66 2.88,-8.85 5.41,-12.53 2.49,-3.68 6.02,-6.59 10.58,-8.75 4.48,-2.16 10.29,-3.24 17.34,-3.24 7.69,0 14.03,1.42 18.98,4.25 4.95,2.84 8.62,7.1 11.01,12.8 2.35,5.71 3.56,12.94 3.56,21.65l0 63.53 -37.82 0zm-66.78 0l0 -99.8 37.61 0 -1.18 25.63 1.39 3.65 0 70.52 -37.82 0zm190.28 0l0 -57.35c0,-3.17 -0.39,-5.91 -1.21,-8.2 -0.81,-2.3 -2.24,-4.06 -4.23,-5.27 -2,-1.22 -4.7,-1.83 -8.12,-1.83 -2.64,0 -4.99,0.44 -7.05,1.32 -2.07,0.88 -3.81,2.03 -5.28,3.48 -1.45,1.49 -2.63,3.11 -3.49,4.93l-5.76 -14.79 6.08 0c1.07,-4.66 2.89,-8.85 5.42,-12.53 2.49,-3.68 6.02,-6.59 10.58,-8.75 4.48,-2.16 10.29,-3.24 17.34,-3.24 7.69,0 14.03,1.42 18.98,4.25 4.95,2.84 8.62,7.1 11.01,12.8 2.35,5.71 3.56,12.94 3.56,21.65l0 63.53 -37.83 0zm-66.77 0l0 -99.8 37.61 0 -1.18 25.63 1.39 3.65 0 70.52 -37.82 0zm178.42 2.64c-20.15,0 -34.97,-4.16 -44.37,-12.46 -9.44,-8.31 -14.17,-20.47 -14.17,-36.48l0 -7.8c0,-15.88 4.45,-27.97 13.31,-36.28 8.84,-8.31 21.8,-12.46 38.83,-12.46 11.32,0 20.76,1.75 28.31,5.3 7.55,3.55 13.25,8.65 17.06,15.3 3.81,6.66 5.7,14.69 5.7,24.08l0 3.14c0,2.71 -0.11,5.44 -0.36,8.25 -0.25,2.8 -0.64,5.4 -1.14,7.76l-33.87 0c0.29,-4.12 0.5,-8 0.61,-11.65 0.1,-3.65 0.14,-6.92 0.14,-9.83 0,-3.51 -0.57,-6.45 -1.71,-8.88 -1.14,-2.4 -2.92,-4.22 -5.34,-5.47 -2.43,-1.25 -5.56,-1.86 -9.4,-1.86 -5.77,0 -9.94,1.42 -12.54,4.26 -2.6,2.83 -3.92,6.85 -3.92,12.06l0 9.01 0.21 3.85 0 6.28c0,2.1 0.4,4.13 1.18,6.09 0.78,1.95 2.24,3.71 4.34,5.2 2.11,1.55 5.1,2.73 8.98,3.61 3.85,0.88 8.9,1.32 15.1,1.32 6.34,0 12.53,-0.51 18.59,-1.49 6.06,-0.94 11.9,-2.33 17.52,-4.09l-2.99 26.05c-4.91,2.29 -10.75,4.08 -17.56,5.33 -6.8,1.22 -14.31,1.86 -22.51,1.86zm-38.56 -41.65l0 -21.07 74.14 0 0 21.07 -74.14 0zm146.05 41.75c-17.17,0 -29.88,-4.26 -38.15,-12.77 -8.26,-8.51 -12.39,-20.5 -12.39,-35.97l0 -8.61c0,-15 4.13,-26.75 12.39,-35.26 8.27,-8.51 20.95,-12.77 38.04,-12.77 4.2,0 8.19,0.24 11.97,0.74 3.77,0.51 7.26,1.22 10.47,2.13 3.2,0.92 6.05,1.96 8.55,3.11l2.98 29.28c-3.48,-1.69 -7.26,-3.1 -11.32,-4.22 -4.06,-1.11 -8.58,-1.65 -13.57,-1.65 -7.69,0 -13.17,1.65 -16.49,4.96 -3.31,3.31 -4.98,8.07 -4.98,14.29l0 6.58c0,6.49 1.81,11.45 5.45,14.93 3.63,3.52 9.33,5.24 17.09,5.24 4.84,0 9.26,-0.51 13.21,-1.52 3.96,-1.02 7.84,-2.37 11.68,-4.06l-2.88 29.39c-3.92,1.82 -8.65,3.31 -14.21,4.46 -5.56,1.15 -11.5,1.72 -17.84,1.72zm94.87 -0.41c-9.76,0 -17.52,-1.41 -23.22,-4.22 -5.73,-2.8 -9.83,-6.96 -12.28,-12.49 -2.5,-5.54 -3.71,-12.36 -3.71,-20.47l0 -53.5 37.5 0 0 47.42c0,4.32 1.04,7.5 3.1,9.46 2.07,2.02 6.13,3 12.18,3 3.28,0 6.55,-0.34 9.8,-1.08 3.24,-0.67 6.16,-1.52 8.79,-2.46l-3.2 29.38c-3.71,1.49 -7.98,2.7 -12.82,3.61 -4.85,0.88 -10.22,1.35 -16.14,1.35zm-52.35 -74.06l0 -28.07 83.44 0 -3.2 28.07 -80.24 0zm13.68 -25.64l-0.11 -25.03 37.29 -3.14 -1.29 28.17 -35.89 0z"/>
    <path class="fil1" d="M825.35 933.18c-6.27,0 -12.18,-0.37 -17.74,-1.11 -5.55,-0.74 -10.64,-1.72 -15.28,-2.91 -4.62,-1.18 -8.72,-2.39 -12.28,-3.68l-3.31 -33.23c5.69,2.29 12.43,4.49 20.19,6.52 7.76,2.09 15.92,3.1 24.47,3.1 7.62,0 12.92,-0.74 15.99,-2.23 2.99,-1.48 4.52,-3.88 4.52,-7.19l0 -0.41c0,-2.22 -0.75,-4.08 -2.17,-5.53 -1.5,-1.46 -3.92,-2.84 -7.34,-4.16 -3.42,-1.32 -8.01,-2.84 -13.78,-4.59 -9.33,-2.84 -17.2,-5.91 -23.61,-9.29 -6.41,-3.31 -11.26,-7.53 -14.53,-12.56 -3.28,-5.04 -4.92,-11.45 -4.92,-19.29l0 -1.52c0,-12.09 4.42,-21.31 13.21,-27.73 8.77,-6.35 21.62,-9.56 38.5,-9.56 9.9,0 18.48,0.78 25.72,2.33 7.23,1.56 13.46,3.45 18.73,5.68l3.31 31c-5.7,-2.43 -12.04,-4.46 -19.02,-6.04 -6.98,-1.59 -14.31,-2.37 -22.01,-2.37 -5.06,0 -9.01,0.31 -11.79,0.95 -2.81,0.64 -4.77,1.59 -5.84,2.84 -1.06,1.25 -1.6,2.8 -1.6,4.62l0 0.31c0,1.89 0.68,3.54 2,5 1.31,1.45 3.7,2.93 7.19,4.42 3.49,1.49 8.48,3.21 14.96,5.17 9.26,2.77 17.06,5.67 23.36,8.71 6.3,3.04 11.04,6.96 14.25,11.69 3.2,4.76 4.8,11.21 4.8,19.32l0 1.42c0,13.44 -4.59,23.54 -13.78,30.22 -9.19,6.72 -23.25,10.1 -42.2,10.1zm113.14 -0.61c-9.75,0 -17.52,-1.41 -23.22,-4.22 -5.73,-2.8 -9.83,-6.96 -12.28,-12.49 -2.5,-5.54 -3.71,-12.36 -3.71,-20.47l0 -53.5 37.5 0 0 47.42c0,4.32 1.04,7.5 3.1,9.46 2.07,2.02 6.13,3 12.18,3 3.28,0 6.56,-0.34 9.8,-1.08 3.24,-0.67 6.16,-1.52 8.79,-2.46l-3.2 29.38c-3.71,1.49 -7.98,2.7 -12.82,3.61 -4.85,0.88 -10.22,1.35 -16.14,1.35zm-52.35 -74.06l0 -28.07 83.44 0 -3.2 28.07 -80.24 0zm13.68 -25.64l-0.11 -25.03 37.29 -3.14 -1.28 28.17 -35.9 0zm119.87 -2.43l0 57.35c0,3.17 0.43,5.91 1.25,8.21 0.82,2.29 2.21,4.05 4.2,5.27 2,1.21 4.7,1.82 8.12,1.82 2.71,0 5.06,-0.44 7.12,-1.32 2,-0.88 3.74,-2.06 5.24,-3.54 1.46,-1.49 2.6,-3.11 3.45,-4.87l5.77 14.8 -6.09 0c-1.06,4.59 -2.85,8.74 -5.37,12.46 -2.57,3.71 -6.06,6.65 -10.55,8.81 -4.48,2.17 -10.29,3.25 -17.41,3.25 -7.62,0 -13.93,-1.42 -18.91,-4.26 -4.99,-2.84 -8.69,-7.13 -11.04,-12.83 -2.39,-5.71 -3.6,-12.91 -3.6,-21.62l0 -63.53 37.82 0zm66.78 0l0 99.8 -37.61 0 1.18 -25.63 -1.39 -3.65 0 -70.52 37.82 0zm53.31 102.24c-12.11,0 -21.26,-3.89 -27.49,-11.62 -6.23,-7.7 -9.37,-19.32 -9.37,-34.79l0 -10.64c0,-15.74 3.14,-27.63 9.37,-35.63 6.23,-8.01 15.74,-11.99 28.56,-11.99 6.27,0 11.47,1.01 15.6,3.04 4.13,2.02 7.37,4.86 9.79,8.51 2.35,3.65 4.03,7.97 4.95,12.97l9.73 0 -8.55 20.77c-0.07,-3.51 -0.71,-6.49 -1.96,-8.98 -1.28,-2.44 -3.06,-4.36 -5.34,-5.71 -2.35,-1.35 -5.2,-2.03 -8.62,-2.03 -5.06,0 -8.9,1.42 -11.54,4.26 -2.63,2.83 -3.95,7.09 -3.95,12.76l0 12.26c0,5.75 1.35,10.07 4.02,12.91 2.67,2.9 6.66,4.32 12,4.32 2.64,0 4.99,-0.44 7.13,-1.32 2.06,-0.88 3.88,-2.09 5.37,-3.65 1.5,-1.55 2.68,-3.34 3.53,-5.37l9.3 15.41 -10.48 0c-0.99,4.59 -2.7,8.74 -5.12,12.46 -2.43,3.71 -5.81,6.65 -10.15,8.81 -4.35,2.17 -9.94,3.25 -16.78,3.25zm32.16 -2.44l1.07 -26.04 -0.64 -4.96 0 -39.92 0 -4.56 -0.43 -29.29 0 -28.87 37.61 0 0 133.64 -37.61 0z"/>
   </g>
  </g>
  <g id="_2191466309440">
   <g>
    <path class="fil0" d="M254.01 455.04c13.68,-0.36 24.83,-3.99 33.44,-11.06 8.6,-6.98 14.41,-16.58 17.22,-28.72 2.8,-12.24 4.35,-33.08 4.53,-62.62 0.09,-29.55 0.54,-49.03 1.36,-58.45 1.63,-14.87 4.53,-26.74 8.88,-35.8 4.26,-8.97 9.6,-16.22 15.95,-21.66 6.34,-5.34 14.5,-9.51 24.38,-12.32 6.7,-1.72 17.58,-2.63 32.8,-2.63l9.14 0 0 29.91c-30.08,2.85 -53.8,28.37 -53.8,59.16l0 109.66c-3.23,11.98 -7.67,21.68 -13.24,29.09 -7.8,10.24 -19.95,19.4 -36.62,27.28 16.67,7.88 28.82,17.04 36.62,27.28 5.57,7.41 10.01,17.11 13.24,29.09l0 109.67c0,32.68 26.74,59.43 59.43,59.43l24.07 0c0.77,11.19 2.42,21.05 4.78,29.63l-43.62 0c-15.22,0 -26.13,-0.8 -32.8,-2.62 -9.91,-2.71 -18.04,-6.98 -24.38,-12.33 -6.35,-5.44 -11.69,-12.69 -15.95,-21.66 -4.35,-9.06 -7.25,-20.94 -8.88,-35.8 -0.82,-9.42 -1.27,-28.91 -1.36,-58.45 -0.18,-29.54 -1.73,-50.38 -4.53,-62.62 -2.81,-12.14 -8.62,-21.75 -17.22,-28.73 -8.61,-7.06 -19.76,-10.69 -33.44,-11.05l0 -21.84 0 -21.84zm701.53 0c-13.68,-0.36 -24.83,-3.99 -33.44,-11.06 -8.61,-6.98 -14.41,-16.58 -17.22,-28.72 -2.8,-12.24 -4.35,-33.08 -4.53,-62.62 -0.09,-29.55 -0.54,-49.03 -1.36,-58.45 -1.63,-14.87 -4.53,-26.74 -8.88,-35.8 -4.26,-8.97 -9.61,-16.22 -15.95,-21.66 -6.34,-5.34 -14.5,-9.51 -24.38,-12.32 -6.7,-1.72 -17.58,-2.63 -32.8,-2.63l-9.13 0 0 29.91c30.07,2.86 53.8,28.37 53.8,59.16l0 109.68c3.22,11.97 7.66,21.66 13.23,29.07 7.8,10.24 19.95,19.4 36.62,27.28 -16.67,7.88 -28.82,17.04 -36.62,27.28 -5.57,7.41 -10.01,17.1 -13.23,29.08l0 109.68c0,32.68 -26.75,59.43 -59.44,59.43l-6.33 0 0 2.07c0,10.83 -1.78,20.01 -4.88,27.56l25.98 0c15.22,0 26.13,-0.8 32.8,-2.62 9.91,-2.71 18.04,-6.98 24.38,-12.33 6.34,-5.44 11.69,-12.69 15.95,-21.66 4.35,-9.06 7.25,-20.94 8.88,-35.8 0.82,-9.42 1.27,-28.91 1.36,-58.45 0.18,-29.54 1.73,-50.38 4.53,-62.62 2.81,-12.14 8.61,-21.75 17.22,-28.73 8.61,-7.06 19.76,-10.69 33.44,-11.05l0 -21.84 0 -21.84z"/>
    <path class="fil2" d="M880.72 171.83l-72.87 46.36 0 -49.95c0,-7.06 -4.22,-13.14 -10.28,-15.85 -53.42,-28.43 -123.26,-42.65 -192.79,-42.65 -70.03,0 -140.36,14.42 -193.92,43.25 -5.81,3.12 -9.12,9.08 -9.12,15.25l-0.03 0 0 49.02 -71.41 -45.43 275.21 -171.83 275.21 171.83z"/>
    <path class="fil2" d="M790.5 250.65l0 -82.41c-101.93,-54.86 -269.52,-54.86 -371.45,0l0 82.41c48.74,-26.24 114,-42.28 185.72,-42.28 71.73,0 136.99,16.04 185.73,42.28z"/>
   </g>
   <path class="fil3" d="M784.62 339.96l-157.58 0c-23.73,0 -43.14,19.41 -43.14,43.13l0 237.79c0,23.72 19.41,43.13 43.14,43.13l41.95 0 15.34 14.56 15.54 14.74 11.01 10.44c5.1,4.84 13.82,13.88 22.85,21.15 15.82,12.75 32.61,9.62 32.61,-20.48l0 -38.3 -0.06 -2.11 18.34 0c23.72,0 43.13,-19.41 43.13,-43.13l0 -237.79c0,-23.72 -19.41,-43.13 -43.13,-43.13z"/>
   <path class="fil3" d="M419.11 289.75l200.99 0c20.53,0 37.32,16.79 37.32,37.31l0 257.05c0,20.52 -16.79,37.31 -37.32,37.31l-50.48 0 -16.77 23.68 -16.97 23.97 -12.03 16.98c-5.57,7.88 -15.11,22.59 -24.97,34.42 -17.29,20.74 -35.63,15.64 -35.63,-33.32l0 -62.31 0.07 -3.42 -44.21 0c-20.52,0 -37.31,-16.79 -37.31,-37.31l0 -257.05c0,-20.52 16.79,-37.31 37.31,-37.31z"/>
   <path class="fil4" d="M657.42 339.96l0 244.15c0,20.52 -16.79,37.31 -37.32,37.31l-36.19 0 -0.01 -0.54 0 -237.79c0,-23.72 19.41,-43.13 43.14,-43.13l30.38 0z"/>
  </g>
 </g>
</svg>
