<?xml version="1.0" encoding="UTF-8"?>
<!DOCTYPE svg PUBLIC "-//W3C//DTD SVG 1.1//EN" "http://www.w3.org/Graphics/SVG/1.1/DTD/svg11.dtd">
<!-- Creator: CorelDRAW -->
<svg xmlns="http://www.w3.org/2000/svg" xml:space="preserve" width="2015px" height="424px" version="1.1" style="shape-rendering:geometricPrecision; text-rendering:geometricPrecision; image-rendering:optimizeQuality; fill-rule:evenodd; clip-rule:evenodd"
viewBox="0 0 1996.89 420.45"
 xmlns:xlink="http://www.w3.org/1999/xlink"
 xmlns:xodm="http://www.corel.com/coreldraw/odm/2003">
 <defs>
  <style type="text/css">
   <![CDATA[
    .fil4 {fill:#91D8F7}
    .fil2 {fill:#133E86}
    .fil3 {fill:#91D8F7;fill-rule:nonzero}
    .fil1 {fill:#0AADEE;fill-rule:nonzero}
    .fil0 {fill:#133E86;fill-rule:nonzero}
   ]]>
  </style>
 </defs>
 <g id="Layer_x0020_1">
  <metadata id="CorelCorpID_0Corel-Layer"/>
  <g id="_2192796438656">
   <g>
    <path class="fil0" d="M561.86 295.43c-25.43,0 -44.33,-6.24 -56.6,-18.72 -12.32,-12.48 -18.5,-30.32 -18.5,-53.51l0 -25.56c0,-22.77 6.22,-40.35 18.63,-52.71 12.36,-12.31 31.04,-18.51 55.94,-18.51 6.4,0 12.31,0.42 17.69,1.26 5.38,0.85 10.27,2.03 14.72,3.46 4.45,1.52 8.4,3.21 11.87,5.15l3.47 38.58c-5.16,-2.36 -10.72,-4.43 -16.72,-6.16 -6,-1.72 -12.89,-2.57 -20.63,-2.57 -12.36,0 -21.39,2.95 -27.08,8.86 -5.69,5.9 -8.53,14.12 -8.53,24.67l0 21.63c0,10.46 2.88,18.64 8.67,24.58 5.78,5.99 15.38,8.94 28.81,8.94 7.47,0 14.18,-0.88 20.14,-2.74 5.96,-1.77 11.52,-3.96 16.67,-6.49l-3.46 39.34c-3.38,1.94 -7.34,3.71 -11.92,5.31 -4.58,1.61 -9.65,2.87 -15.16,3.8 -5.52,0.93 -11.52,1.39 -18.01,1.39zm127.66 0.13c-21.97,0 -38.55,-5.11 -49.67,-15.27 -11.16,-10.16 -16.76,-24.24 -16.76,-42.29l0 -15.82c0,-18.47 5.6,-32.89 16.8,-43.26 11.21,-10.37 27.75,-15.56 49.63,-15.56 21.96,0 38.55,5.19 49.71,15.56 11.11,10.37 16.72,24.79 16.72,43.26l0 15.82c0,18.05 -5.56,32.13 -16.68,42.29 -11.11,10.16 -27.7,15.27 -49.75,15.27zm0 -35.17c6.31,0 11.07,-1.82 14.36,-5.4 3.24,-3.54 4.84,-8.69 4.84,-15.35l0 -19.23c0,-7.17 -1.6,-12.61 -4.84,-16.32 -3.29,-3.71 -8.05,-5.56 -14.36,-5.56 -6.23,0 -10.99,1.85 -14.28,5.56 -3.29,3.71 -4.93,9.15 -4.93,16.32l0 19.23c0,6.66 1.64,11.81 4.93,15.35 3.29,3.58 8.05,5.4 14.28,5.4zm169.81 31.37l0 -71.6c0,-3.96 -0.5,-7.38 -1.52,-10.25 -1.02,-2.87 -2.8,-5.06 -5.29,-6.57 -2.49,-1.52 -5.87,-2.28 -10.14,-2.28 -3.29,0 -6.22,0.55 -8.8,1.64 -2.58,1.1 -4.76,2.53 -6.58,4.34 -1.82,1.86 -3.29,3.88 -4.36,6.16l-7.2 -18.47 7.6 0c1.34,-5.82 3.6,-11.05 6.76,-15.64 3.11,-4.6 7.51,-8.23 13.21,-10.92 5.6,-2.7 12.85,-4.05 21.65,-4.05 9.61,0 17.52,1.77 23.7,5.31 6.18,3.54 10.76,8.86 13.74,15.98 2.93,7.13 4.44,16.15 4.44,27.03l0 79.32 -47.21 0zm-83.38 0l0 -124.61 46.96 0 -1.47 32.01 1.74 4.55 0 88.05 -47.23 0zm237.58 0l0 -71.6c0,-3.96 -0.49,-7.38 -1.52,-10.25 -1.02,-2.87 -2.8,-5.06 -5.29,-6.57 -2.49,-1.52 -5.87,-2.28 -10.14,-2.28 -3.29,0 -6.22,0.55 -8.8,1.64 -2.58,1.1 -4.76,2.53 -6.58,4.34 -1.82,1.86 -3.29,3.88 -4.36,6.16l-7.2 -18.47 7.6 0c1.34,-5.82 3.6,-11.05 6.76,-15.64 3.11,-4.6 7.52,-8.23 13.21,-10.92 5.6,-2.7 12.85,-4.05 21.65,-4.05 9.61,0 17.52,1.77 23.7,5.31 6.18,3.54 10.76,8.86 13.74,15.98 2.93,7.13 4.45,16.15 4.45,27.03l0 79.32 -47.22 0zm-83.37 0l0 -124.61 46.95 0 -1.47 32.01 1.74 4.55 0 88.05 -47.22 0zm222.76 3.29c-25.17,0 -43.66,-5.19 -55.4,-15.56 -11.79,-10.37 -17.7,-25.55 -17.7,-45.54l0 -9.74c0,-19.82 5.56,-34.92 16.63,-45.29 11.03,-10.37 27.21,-15.56 48.47,-15.56 14.13,0 25.92,2.19 35.34,6.62 9.43,4.43 16.54,10.79 21.3,19.1 4.76,8.31 7.12,18.35 7.12,30.07l0 3.92c0,3.37 -0.14,6.79 -0.45,10.29 -0.31,3.5 -0.8,6.75 -1.42,9.7l-42.29 0c0.36,-5.15 0.63,-10 0.76,-14.55 0.13,-4.55 0.18,-8.65 0.18,-12.27 0,-4.39 -0.71,-8.06 -2.14,-11.09 -1.42,-3 -3.64,-5.27 -6.67,-6.83 -3.02,-1.56 -6.93,-2.32 -11.73,-2.32 -7.21,0 -12.41,1.77 -15.66,5.31 -3.24,3.54 -4.89,8.56 -4.89,15.05l0 11.26 0.27 4.81 0 7.84c0,2.62 0.49,5.15 1.47,7.59 0.98,2.45 2.8,4.64 5.42,6.5 2.63,1.94 6.36,3.41 11.21,4.51 4.8,1.1 11.11,1.64 18.85,1.64 7.91,0 15.65,-0.63 23.21,-1.85 7.56,-1.18 14.85,-2.91 21.88,-5.1l-3.74 32.51c-6.14,2.87 -13.43,5.1 -21.92,6.66 -8.49,1.52 -17.88,2.32 -28.1,2.32zm-48.15 -51.99l0 -26.32 92.57 0 0 26.32 -92.57 0zm182.34 52.12c-21.43,0 -37.3,-5.32 -47.62,-15.94 -10.32,-10.63 -15.47,-25.6 -15.47,-44.91l0 -10.75c0,-18.73 5.15,-33.4 15.47,-44.03 10.32,-10.63 26.14,-15.94 47.49,-15.94 5.25,0 10.23,0.3 14.94,0.93 4.71,0.63 9.07,1.52 13.07,2.66 4,1.13 7.56,2.44 10.67,3.88l3.74 36.56c-4.36,-2.11 -9.07,-3.88 -14.14,-5.28 -5.07,-1.39 -10.72,-2.06 -16.94,-2.06 -9.61,0 -16.46,2.06 -20.59,6.2 -4.14,4.13 -6.23,10.08 -6.23,17.83l0 8.23c0,8.09 2.27,14.29 6.81,18.64 4.53,4.38 11.65,6.53 21.34,6.53 6.05,0 11.56,-0.63 16.5,-1.9 4.93,-1.26 9.78,-2.95 14.58,-5.06l-3.6 36.69c-4.89,2.28 -10.8,4.13 -17.74,5.57 -6.94,1.43 -14.36,2.15 -22.28,2.15zm118.45 -0.51c-12.18,0 -21.87,-1.77 -28.99,-5.27 -7.16,-3.5 -12.27,-8.69 -15.34,-15.6 -3.11,-6.92 -4.62,-15.44 -4.62,-25.56l0 -66.79 46.82 0 0 59.2c0,5.4 1.29,9.37 3.87,11.81 2.58,2.53 7.65,3.75 15.2,3.75 4.1,0 8.19,-0.42 12.23,-1.35 4.05,-0.84 7.69,-1.89 10.98,-3.07l-4 36.68c-4.62,1.86 -9.96,3.38 -16.01,4.52 -6.04,1.09 -12.76,1.68 -20.14,1.68zm-65.36 -92.47l0 -35.05 104.18 0 -4 35.05 -100.18 0zm17.08 -32.01l-0.14 -31.25 46.56 -3.92 -1.61 35.17 -44.81 0z"/>
    <path class="fil1" d="M1517.21 295.43c-7.82,0 -15.2,-0.46 -22.14,-1.39 -6.94,-0.93 -13.3,-2.15 -19.08,-3.63 -5.78,-1.47 -10.89,-2.99 -15.34,-4.59l-4.13 -41.5c7.11,2.87 15.52,5.61 25.21,8.14 9.69,2.62 19.87,3.88 30.55,3.88 9.51,0 16.14,-0.93 19.96,-2.78 3.74,-1.86 5.65,-4.85 5.65,-8.98l0 -0.51c0,-2.78 -0.94,-5.1 -2.71,-6.92 -1.87,-1.81 -4.9,-3.54 -9.16,-5.18 -4.27,-1.65 -10.01,-3.55 -17.21,-5.74 -11.65,-3.54 -21.48,-7.38 -29.48,-11.59 -8,-4.14 -14.05,-9.41 -18.14,-15.69 -4.09,-6.28 -6.14,-14.3 -6.14,-24.08l0 -1.9c0,-15.09 5.52,-26.6 16.5,-34.62 10.94,-7.92 26.99,-11.93 48.06,-11.93 12.36,0 23.08,0.97 32.11,2.91 9.02,1.94 16.8,4.3 23.38,7.08l4.14 38.71c-7.12,-3.03 -15.03,-5.56 -23.74,-7.54 -8.72,-1.99 -17.88,-2.96 -27.48,-2.96 -6.32,0 -11.25,0.38 -14.72,1.18 -3.51,0.81 -5.96,1.99 -7.29,3.55 -1.34,1.56 -2,3.5 -2,5.77l0 0.38c0,2.37 0.84,4.43 2.49,6.24 1.64,1.82 4.62,3.67 8.98,5.53 4.36,1.85 10.58,4.01 18.67,6.45 11.56,3.46 21.3,7.08 29.17,10.88 7.87,3.79 13.78,8.69 17.79,14.59 4,5.95 6,14 6,24.12l0 1.77c0,16.78 -5.74,29.39 -17.21,37.74 -11.47,8.39 -29.03,12.61 -52.69,12.61zm141.26 -0.76c-12.18,0 -21.87,-1.77 -28.99,-5.27 -7.16,-3.5 -12.27,-8.69 -15.34,-15.6 -3.11,-6.92 -4.62,-15.44 -4.62,-25.56l0 -66.79 46.82 0 0 59.2c0,5.4 1.29,9.37 3.87,11.81 2.58,2.53 7.65,3.75 15.2,3.75 4.1,0 8.19,-0.42 12.23,-1.35 4.05,-0.84 7.69,-1.89 10.98,-3.07l-4 36.68c-4.62,1.86 -9.96,3.38 -16,4.52 -6.05,1.09 -12.77,1.68 -20.15,1.68zm-65.36 -92.47l0 -35.05 104.18 0 -4 35.05 -100.18 0zm17.08 -32.01l-0.14 -31.25 46.56 -3.92 -1.6 35.17 -44.82 0zm149.66 -3.04l0 71.61c0,3.96 0.54,7.38 1.56,10.24 1.02,2.87 2.75,5.06 5.24,6.58 2.49,1.52 5.87,2.28 10.14,2.28 3.38,0 6.32,-0.55 8.89,-1.65 2.49,-1.09 4.67,-2.57 6.54,-4.42 1.82,-1.86 3.25,-3.88 4.31,-6.08l7.21 18.47 -7.61 0c-1.33,5.74 -3.55,10.93 -6.71,15.56 -3.2,4.64 -7.56,8.31 -13.16,11.01 -5.6,2.7 -12.85,4.05 -21.74,4.05 -9.52,0 -17.39,-1.77 -23.61,-5.31 -6.23,-3.55 -10.85,-8.9 -13.79,-16.03 -2.98,-7.13 -4.49,-16.11 -4.49,-26.99l0 -79.32 47.22 0zm83.37 0l0 124.61 -46.95 0 1.47 -32 -1.74 -4.56 0 -88.05 47.22 0zm66.56 127.65c-15.11,0 -26.54,-4.85 -34.32,-14.51 -7.78,-9.61 -11.7,-24.12 -11.7,-43.43l0 -13.28c0,-19.65 3.92,-34.5 11.7,-44.49 7.78,-10 19.65,-14.97 35.66,-14.97 7.82,0 14.31,1.26 19.47,3.79 5.16,2.53 9.21,6.08 12.23,10.63 2.93,4.55 5.03,9.95 6.18,16.19l12.14 0 -10.67 25.94c-0.09,-4.39 -0.89,-8.1 -2.45,-11.22 -1.6,-3.04 -3.82,-5.44 -6.67,-7.13 -2.93,-1.68 -6.49,-2.53 -10.76,-2.53 -6.31,0 -11.11,1.77 -14.4,5.32 -3.29,3.54 -4.94,8.85 -4.94,15.94l0 15.3c0,7.17 1.69,12.57 5.02,16.11 3.34,3.63 8.32,5.4 14.99,5.4 3.29,0 6.22,-0.55 8.89,-1.65 2.58,-1.09 4.85,-2.61 6.72,-4.55 1.86,-1.94 3.33,-4.17 4.4,-6.7l11.6 19.22 -13.07 0c-1.24,5.74 -3.38,10.93 -6.4,15.56 -3.03,4.64 -7.25,8.31 -12.67,11.01 -5.43,2.7 -12.41,4.05 -20.95,4.05zm40.15 -3.04l1.34 -32.51 -0.8 -6.2 0 -49.84 0 -5.69 -0.54 -36.57 0 -36.05 46.96 0 0 166.86 -46.96 0z"/>
   </g>
   <g>
    <path class="fil2" d="M210.23 0c116.1,0 210.22,94.12 210.22,210.23 0,116.1 -94.12,210.22 -210.22,210.22 -116.11,0 -210.23,-94.12 -210.23,-210.22 0,-116.11 94.12,-210.23 210.23,-210.23z"/>
    <g>
     <g>
      <path class="fil3" d="M66.36 216.94c5.62,-0.15 10.19,-1.63 13.72,-4.53 3.53,-2.86 5.91,-6.8 7.06,-11.78 1.15,-5.02 1.78,-13.57 1.86,-25.69 0.04,-12.11 0.22,-20.11 0.56,-23.97 0.67,-6.1 1.86,-10.97 3.64,-14.68 1.75,-3.68 3.94,-6.65 6.54,-8.88 2.6,-2.2 5.95,-3.91 10,-5.06 2.75,-0.71 7.21,-1.08 13.45,-1.08l3.75 0 0 12.27c-12.33,1.17 -22.07,11.64 -22.07,24.26l0 44.98c-1.32,4.91 -3.14,8.89 -5.43,11.93 -3.19,4.2 -8.18,7.96 -15.01,11.19 6.83,3.24 11.82,6.99 15.01,11.19 2.29,3.04 4.11,7.02 5.43,11.93l0 44.98c0,13.41 10.97,24.37 24.38,24.37l9.87 0c0.32,4.59 1,8.64 1.96,12.16l-17.89 0c-6.24,0 -10.71,-0.33 -13.45,-1.08 -4.06,-1.11 -7.4,-2.86 -10,-5.05 -2.6,-2.23 -4.79,-5.21 -6.54,-8.89 -1.78,-3.71 -2.97,-8.58 -3.64,-14.68 -0.34,-3.86 -0.52,-11.86 -0.56,-23.97 -0.08,-12.12 -0.71,-20.67 -1.86,-25.68 -1.15,-4.99 -3.53,-8.93 -7.06,-11.79 -3.53,-2.89 -8.1,-4.38 -13.72,-4.53l0 -8.96 0 -8.96zm287.73 0c-5.61,-0.15 -10.18,-1.63 -13.71,-4.53 -3.53,-2.86 -5.91,-6.8 -7.07,-11.78 -1.15,-5.02 -1.78,-13.57 -1.85,-25.69 -0.04,-12.11 -0.23,-20.11 -0.56,-23.97 -0.67,-6.1 -1.86,-10.97 -3.64,-14.68 -1.75,-3.68 -3.94,-6.65 -6.55,-8.88 -2.6,-2.2 -5.94,-3.91 -9.99,-5.06 -2.75,-0.71 -7.21,-1.08 -13.46,-1.08l-3.74 0 0 12.27c12.33,1.17 22.06,11.64 22.06,24.26l0 44.99c1.33,4.91 3.14,8.88 5.43,11.92 3.2,4.2 8.18,7.96 15.02,11.19 -6.84,3.24 -11.82,6.99 -15.02,11.19 -2.29,3.04 -4.1,7.01 -5.43,11.92l0 44.99c0,13.41 -10.97,24.37 -24.38,24.37l-2.59 0 0 0.86c0,4.44 -0.73,8.2 -2,11.3l10.65 0c6.25,0 10.72,-0.33 13.46,-1.08 4.06,-1.11 7.39,-2.86 9.99,-5.05 2.61,-2.23 4.8,-5.21 6.55,-8.89 1.78,-3.71 2.97,-8.58 3.64,-14.68 0.33,-3.86 0.52,-11.86 0.56,-23.97 0.07,-12.12 0.7,-20.67 1.85,-25.68 1.16,-4.99 3.54,-8.93 7.07,-11.79 3.53,-2.89 8.1,-4.38 13.71,-4.53l0 -8.96 0 -8.96z"/>
      <path class="fil4" d="M323.4 100.78l-29.88 19.02 0 -20.49c0,-2.89 -1.73,-5.38 -4.22,-6.5 -21.91,-11.66 -50.55,-17.49 -79.07,-17.49 -28.72,0 -57.57,5.91 -79.54,17.74 -2.38,1.28 -3.73,3.73 -3.74,6.25l-0.01 0 0 20.11 -29.29 -18.64 112.88 -70.47 112.87 70.47z"/>
      <path class="fil4" d="M286.4 133.11l0 -33.8c-41.81,-22.5 -110.54,-22.5 -152.34,0l0 33.8c19.98,-10.76 46.75,-17.34 76.17,-17.34 29.42,0 56.18,6.58 76.17,17.34z"/>
     </g>
     <path class="fil4" d="M283.99 169.74l-64.63 0c-9.73,0 -17.69,7.96 -17.69,17.69l0 97.53c0,9.73 7.96,17.69 17.69,17.69l17.2 0 6.3 5.97 6.37 6.05 4.51 4.28c2.1,1.98 5.68,5.69 9.38,8.68 6.49,5.22 13.37,3.94 13.37,-8.4l0 -15.71 -0.02 -0.87 7.52 0c9.73,0 17.69,-7.96 17.69,-17.69l0 -97.53c0,-9.73 -7.96,-17.69 -17.69,-17.69z"/>
     <path class="fil4" d="M134.08 149.15l82.43 0c8.42,0 15.31,6.89 15.31,15.3l0 105.43c0,8.42 -6.89,15.3 -15.31,15.3l-20.7 0 -6.88 9.71 -6.96 9.83 -4.93 6.97c-2.29,3.23 -6.2,9.27 -10.25,14.12 -7.09,8.5 -14.61,6.41 -14.61,-13.67l0 -25.55 0.03 -1.41 -18.13 0c-8.42,0 -15.31,-6.88 -15.31,-15.3l0 -105.43c0,-8.41 6.89,-15.3 15.31,-15.3z"/>
     <path class="fil2" d="M231.82 169.74l0 100.14c0,8.42 -6.89,15.3 -15.31,15.3l-14.84 0 0 -0.22 0 -97.53c0,-9.73 7.96,-17.69 17.69,-17.69l12.46 0z"/>
    </g>
   </g>
  </g>
 </g>
</svg>
