<?xml version="1.0" encoding="UTF-8"?>
<!DOCTYPE svg PUBLIC "-//W3C//DTD SVG 1.1//EN" "http://www.w3.org/Graphics/SVG/1.1/DTD/svg11.dtd">
<!-- Creator: CorelDRAW -->
<svg xmlns="http://www.w3.org/2000/svg" xml:space="preserve" width="937px" height="187px" version="1.1" style="shape-rendering:geometricPrecision; text-rendering:geometricPrecision; image-rendering:optimizeQuality; fill-rule:evenodd; clip-rule:evenodd"
viewBox="0 0 353.82 70.8"
 xmlns:xlink="http://www.w3.org/1999/xlink"
 xmlns:xodm="http://www.corel.com/coreldraw/odm/2003">
 <defs>
  <style type="text/css">
   <![CDATA[
    .str0 {stroke:#FEFEFE;stroke-width:3.15;stroke-miterlimit:22.9256}
    .fil3 {fill:#FEFEFE}
    .fil2 {fill:#0AADEE}
    .fil0 {fill:#133E86}
    .fil1 {fill:#FEFEFE;fill-rule:nonzero}
   ]]>
  </style>
 </defs>
 <g id="Layer_x0020_1">
  <metadata id="CorelCorpID_0Corel-Layer"/>
  <g id="_2191466306992">
   <path class="fil0" d="M24.52 10.88l125.46 0c13.49,0 24.52,11.03 24.52,24.52l0 0c0,13.49 -11.03,24.52 -24.52,24.52l-125.46 0c-13.48,0 -24.52,-11.03 -24.52,-24.52l0 0c0,-13.49 11.04,-24.52 24.52,-24.52z"/>
   <path class="fil1" d="M24.94 48.41c-3.92,0 -6.83,-0.96 -8.72,-2.88 -1.9,-1.93 -2.85,-4.67 -2.85,-8.25l0 -3.94c0,-3.5 0.96,-6.21 2.87,-8.12 1.91,-1.89 4.78,-2.85 8.62,-2.85 0.99,0 1.9,0.07 2.73,0.2 0.83,0.12 1.58,0.31 2.26,0.53 0.69,0.23 1.3,0.49 1.83,0.79l0.54 5.95c-0.8,-0.37 -1.65,-0.69 -2.58,-0.95 -0.92,-0.27 -1.98,-0.4 -3.18,-0.4 -1.9,0 -3.29,0.46 -4.17,1.37 -0.88,0.9 -1.31,2.17 -1.31,3.8l0 3.33c0,1.61 0.44,2.87 1.33,3.79 0.89,0.92 2.37,1.37 4.44,1.37 1.15,0 2.19,-0.13 3.1,-0.42 0.92,-0.27 1.78,-0.61 2.57,-1l-0.53 6.06c-0.52,0.3 -1.13,0.58 -1.84,0.82 -0.7,0.25 -1.48,0.44 -2.33,0.59 -0.85,0.14 -1.78,0.21 -2.78,0.21zm19.67 0.02c-3.38,0 -5.94,-0.79 -7.65,-2.35 -1.72,-1.57 -2.58,-3.74 -2.58,-6.52l0 -2.43c0,-2.85 0.86,-5.07 2.59,-6.67 1.72,-1.6 4.27,-2.4 7.64,-2.4 3.39,0 5.94,0.8 7.66,2.4 1.71,1.6 2.58,3.82 2.58,6.67l0 2.43c0,2.78 -0.86,4.95 -2.57,6.52 -1.71,1.56 -4.27,2.35 -7.67,2.35zm0 -5.42c0.97,0 1.71,-0.28 2.21,-0.83 0.51,-0.54 0.75,-1.34 0.75,-2.36l0 -2.97c0,-1.1 -0.24,-1.94 -0.75,-2.51 -0.5,-0.57 -1.24,-0.86 -2.21,-0.86 -0.96,0 -1.69,0.29 -2.2,0.86 -0.5,0.57 -0.76,1.41 -0.76,2.51l0 2.97c0,1.02 0.26,1.82 0.76,2.36 0.51,0.55 1.24,0.83 2.2,0.83zm26.17 4.84l0 -11.04c0,-0.61 -0.08,-1.13 -0.24,-1.58 -0.15,-0.44 -0.43,-0.77 -0.81,-1.01 -0.39,-0.23 -0.91,-0.35 -1.56,-0.35 -0.51,0 -0.96,0.09 -1.36,0.25 -0.4,0.17 -0.73,0.39 -1.01,0.67 -0.29,0.29 -0.51,0.6 -0.68,0.95l-1.11 -2.84 1.18 0c0.2,-0.9 0.55,-1.71 1.04,-2.41 0.48,-0.71 1.15,-1.27 2.03,-1.69 0.86,-0.41 1.98,-0.62 3.34,-0.62 1.48,0 2.7,0.27 3.65,0.82 0.95,0.54 1.66,1.36 2.12,2.46 0.45,1.1 0.68,2.49 0.68,4.16l0 12.23 -7.27 0zm-12.85 0l0 -19.2 7.24 0 -0.23 4.93 0.27 0.7 0 13.57 -7.28 0zm36.61 0l0 -11.04c0,-0.61 -0.08,-1.13 -0.24,-1.58 -0.16,-0.44 -0.43,-0.77 -0.81,-1.01 -0.39,-0.23 -0.91,-0.35 -1.56,-0.35 -0.51,0 -0.96,0.09 -1.36,0.25 -0.4,0.17 -0.73,0.39 -1.01,0.67 -0.29,0.29 -0.51,0.6 -0.68,0.95l-1.11 -2.84 1.17 0c0.21,-0.9 0.56,-1.71 1.05,-2.41 0.48,-0.71 1.15,-1.27 2.03,-1.69 0.86,-0.41 1.98,-0.62 3.34,-0.62 1.48,0 2.7,0.27 3.65,0.82 0.95,0.54 1.66,1.36 2.12,2.46 0.45,1.1 0.68,2.49 0.68,4.16l0 12.23 -7.27 0zm-12.85 0l0 -19.2 7.23 0 -0.22 4.93 0.27 0.7 0 13.57 -7.28 0zm34.32 0.5c-3.87,0 -6.72,-0.8 -8.53,-2.39 -1.82,-1.6 -2.73,-3.94 -2.73,-7.02l0 -1.5c0,-3.06 0.86,-5.38 2.56,-6.98 1.7,-1.6 4.2,-2.4 7.47,-2.4 2.18,0 3.99,0.34 5.45,1.02 1.45,0.68 2.55,1.67 3.28,2.95 0.73,1.28 1.09,2.82 1.09,4.63l0 0.6c0,0.52 -0.02,1.05 -0.06,1.59 -0.05,0.54 -0.13,1.04 -0.22,1.49l-6.52 0c0.06,-0.79 0.1,-1.54 0.12,-2.24 0.02,-0.7 0.03,-1.33 0.03,-1.89 0,-0.68 -0.11,-1.24 -0.33,-1.71 -0.22,-0.46 -0.56,-0.81 -1.03,-1.05 -0.47,-0.24 -1.07,-0.36 -1.81,-0.36 -1.11,0 -1.91,0.27 -2.41,0.82 -0.5,0.55 -0.75,1.32 -0.75,2.32l0 1.73 0.04 0.74 0 1.21c0,0.41 0.07,0.8 0.22,1.17 0.15,0.38 0.43,0.72 0.84,1 0.4,0.3 0.98,0.53 1.73,0.7 0.73,0.17 1.71,0.25 2.9,0.25 1.22,0 2.41,-0.1 3.58,-0.28 1.16,-0.19 2.28,-0.45 3.37,-0.79l-0.58 5.01c-0.94,0.44 -2.07,0.79 -3.38,1.03 -1.3,0.23 -2.75,0.35 -4.33,0.35zm-7.42 -8.01l0 -4.05 14.27 0 0 4.05 -14.27 0zm28.1 8.03c-3.3,0 -5.75,-0.82 -7.34,-2.45 -1.59,-1.64 -2.38,-3.95 -2.38,-6.92l0 -1.66c0,-2.88 0.79,-5.15 2.38,-6.78 1.59,-1.64 4.03,-2.46 7.32,-2.46 0.81,0 1.58,0.05 2.3,0.14 0.73,0.1 1.4,0.24 2.02,0.41 0.61,0.18 1.16,0.38 1.64,0.6l0.58 5.63c-0.68,-0.32 -1.4,-0.59 -2.18,-0.81 -0.78,-0.21 -1.65,-0.32 -2.61,-0.32 -1.48,0 -2.54,0.32 -3.17,0.96 -0.64,0.64 -0.96,1.55 -0.96,2.75l0 1.26c0,1.25 0.35,2.21 1.04,2.88 0.7,0.67 1.8,1 3.29,1 0.93,0 1.78,-0.09 2.54,-0.29 0.76,-0.19 1.51,-0.45 2.25,-0.78l-0.55 5.65c-0.76,0.35 -1.67,0.64 -2.74,0.86 -1.07,0.22 -2.21,0.33 -3.43,0.33zm18.25 -0.08c-1.87,0 -3.37,-0.27 -4.46,-0.81 -1.11,-0.54 -1.9,-1.34 -2.37,-2.4 -0.48,-1.07 -0.71,-2.38 -0.71,-3.94l0 -10.29 7.21 0 0 9.12c0,0.83 0.2,1.44 0.6,1.82 0.4,0.39 1.18,0.58 2.34,0.58 0.63,0 1.26,-0.07 1.89,-0.21 0.62,-0.13 1.18,-0.29 1.69,-0.47l-0.62 5.65c-0.71,0.29 -1.53,0.52 -2.46,0.69 -0.94,0.17 -1.97,0.26 -3.11,0.26zm-10.07 -14.24l0 -5.4 16.05 0 -0.61 5.4 -15.44 0zm2.63 -4.94l-0.02 -4.81 7.17 -0.6 -0.24 5.41 -6.91 0z"/>
   <path class="fil2" d="M271.8 10.88l57.49 0c13.49,0 24.53,11.03 24.53,24.52l0 0c0,13.49 -11.04,24.52 -24.53,24.52l-57.49 0c-13.49,0 -24.52,-11.03 -24.52,-24.52l0 0c0,-13.49 11.03,-24.52 24.52,-24.52z"/>
   <path class="fil1" d="M270.04 48.54c-1.14,0 -2.22,-0.07 -3.24,-0.22 -1.01,-0.14 -1.94,-0.33 -2.78,-0.55 -0.85,-0.23 -1.59,-0.47 -2.24,-0.71l-0.61 -6.4c1.04,0.45 2.27,0.87 3.69,1.26 1.41,0.4 2.9,0.6 4.46,0.6 1.39,0 2.36,-0.15 2.92,-0.43 0.54,-0.29 0.82,-0.75 0.82,-1.39l0 -0.08c0,-0.42 -0.13,-0.78 -0.4,-1.06 -0.27,-0.28 -0.71,-0.55 -1.33,-0.8 -0.63,-0.25 -1.47,-0.55 -2.52,-0.88 -1.7,-0.55 -3.14,-1.14 -4.31,-1.79 -1.17,-0.64 -2.05,-1.45 -2.65,-2.42 -0.59,-0.97 -0.89,-2.2 -0.89,-3.71l0 -0.29c0,-2.33 0.8,-4.1 2.41,-5.33 1.6,-1.23 3.94,-1.84 7.02,-1.84 1.81,0 3.37,0.15 4.69,0.45 1.32,0.29 2.46,0.66 3.42,1.09l0.6 5.96c-1.04,-0.47 -2.19,-0.86 -3.47,-1.16 -1.27,-0.31 -2.61,-0.46 -4.01,-0.46 -0.92,0 -1.64,0.06 -2.15,0.19 -0.52,0.12 -0.87,0.3 -1.07,0.54 -0.19,0.24 -0.29,0.54 -0.29,0.89l0 0.06c0,0.36 0.12,0.68 0.36,0.96 0.24,0.28 0.68,0.57 1.32,0.85 0.63,0.29 1.54,0.62 2.73,1 1.68,0.53 3.11,1.09 4.26,1.67 1.15,0.59 2.01,1.34 2.6,2.25 0.58,0.92 0.87,2.16 0.87,3.72l0 0.27c0,2.59 -0.83,4.53 -2.51,5.82 -1.68,1.29 -4.24,1.94 -7.7,1.94zm20.64 -0.12c-1.78,0 -3.19,-0.27 -4.23,-0.81 -1.05,-0.54 -1.8,-1.34 -2.25,-2.4 -0.45,-1.07 -0.67,-2.38 -0.67,-3.94l0 -10.29 6.84 0 0 9.12c0,0.83 0.19,1.44 0.57,1.82 0.37,0.39 1.11,0.58 2.22,0.58 0.6,0 1.19,-0.07 1.78,-0.21 0.6,-0.13 1.13,-0.29 1.61,-0.48l-0.59 5.66c-0.67,0.28 -1.45,0.52 -2.33,0.69 -0.89,0.17 -1.87,0.26 -2.95,0.26zm-9.55 -14.25l0 -5.4 15.22 0 -0.58 5.4 -14.64 0zm2.5 -4.93l-0.02 -4.81 6.8 -0.61 -0.23 5.42 -6.55 0zm21.87 -0.47l0 11.04c0,0.61 0.07,1.13 0.22,1.57 0.15,0.45 0.41,0.78 0.77,1.02 0.36,0.23 0.86,0.35 1.48,0.35 0.5,0 0.92,-0.09 1.3,-0.25 0.37,-0.17 0.68,-0.4 0.96,-0.69 0.26,-0.28 0.47,-0.59 0.63,-0.93l1.05 2.84 -1.11 0c-0.2,0.89 -0.52,1.69 -0.98,2.4 -0.47,0.72 -1.11,1.28 -1.93,1.7 -0.81,0.41 -1.87,0.62 -3.17,0.62 -1.39,0 -2.54,-0.27 -3.45,-0.82 -0.91,-0.54 -1.59,-1.37 -2.02,-2.47 -0.43,-1.09 -0.65,-2.48 -0.65,-4.16l0 -12.22 6.9 0zm12.18 0l0 19.2 -6.86 0 0.21 -4.93 -0.25 -0.7 0 -13.57 6.9 0zm9.73 19.67c-2.21,0 -3.88,-0.75 -5.02,-2.23 -1.14,-1.49 -1.71,-3.72 -1.71,-6.7l0 -2.04c0,-3.03 0.57,-5.32 1.71,-6.86 1.14,-1.54 2.87,-2.3 5.21,-2.3 1.14,0 2.09,0.19 2.85,0.58 0.75,0.39 1.34,0.94 1.78,1.64 0.43,0.7 0.74,1.53 0.91,2.49l1.77 0 -1.56 4c-0.01,-0.68 -0.13,-1.25 -0.36,-1.73 -0.23,-0.47 -0.56,-0.84 -0.97,-1.1 -0.43,-0.26 -0.95,-0.39 -1.57,-0.39 -0.93,0 -1.63,0.28 -2.11,0.82 -0.48,0.55 -0.72,1.37 -0.72,2.46l0 2.36c0,1.1 0.25,1.93 0.73,2.48 0.49,0.56 1.22,0.83 2.19,0.83 0.48,0 0.91,-0.09 1.3,-0.25 0.38,-0.17 0.71,-0.41 0.98,-0.71 0.28,-0.29 0.49,-0.64 0.65,-1.03l1.69 2.96 -1.91 0c-0.18,0.89 -0.49,1.69 -0.93,2.4 -0.44,0.72 -1.06,1.28 -1.85,1.7 -0.8,0.41 -1.82,0.62 -3.06,0.62zm5.86 -0.47l0.2 -5.01 -0.12 -0.95 0 -7.68 0 -0.88 -0.08 -5.63 0 -5.56 6.86 0 0 25.71 -6.86 0z"/>
   <path class="fil0" d="M203.77 40.1l-15.55 0c-6.14,0 -11.16,5.03 -11.16,11.16l0 0c0,6.14 5.02,11.16 11.16,11.16l15.55 0c6.13,0 11.16,-5.02 11.16,-11.16l0 0c0,-6.13 -5.03,-11.16 -11.16,-11.16z"/>
   <path class="fil0" d="M189.58 17.94c-0.38,0.12 -0.42,0.08 -0.78,0.29 -0.29,0.17 -0.29,0.25 -0.41,0.37 -1.54,0.79 -2.08,1.71 -2.89,2.67 -0.28,-1.24 -0.73,-3.62 -0.81,-4.86 -0.31,-4.49 11.03,-7.26 16.33,-5.52 2.71,0.89 2.67,2.78 3.12,7.07 -0.05,-0.03 -0.11,-0.08 -0.15,-0.1l-0.68 -0.49c-0.28,-0.19 -0.36,-0.24 -0.69,-0.39 -0.49,-0.22 -0.95,-0.35 -1.57,-0.49 -4.05,-0.89 -7.81,0.21 -11.47,1.45z"/>
   <path class="fil0" d="M188.39 18.6c0.12,-0.12 0.12,-0.2 0.41,-0.37 0.36,-0.21 0.4,-0.17 0.78,-0.29l-1.19 0.66z"/>
   <path class="fil0 str0" d="M196.2 15.38c-6.13,0 -11.1,4.97 -11.1,11.1 0,6.13 4.97,11.1 11.1,11.1 6.13,0 11.1,-4.97 11.1,-11.1 0,-6.13 -4.97,-11.1 -11.1,-11.1z"/>
   <path class="fil0" d="M207.28 8.01c-1.42,0.92 -2.33,2.44 -3.54,3.45l-0.59 -0.36c-4.27,-2.86 -11.29,-1.64 -15.57,0.59 -1.13,0.59 -2.23,1.32 -2.99,2.36l-0.7 0.96c-0.91,-0.31 -1.69,-0.99 -2.6,-1.08 0.17,1.09 0.33,2.18 0.5,3.27 0.33,2.04 0.59,1.13 0.93,2.21 0.28,0.89 0.1,1.15 0.68,2.46 0.16,0.35 0.44,0.9 0.54,1.22 0.69,2.16 -3.16,1.58 -3.16,1.58 -0.43,-0.54 -0.3,-0.59 -0.17,-1.51 0.3,-2.16 0.11,-3.37 0.31,-4.2 0.25,-0.99 -0.18,-2.5 -0.36,-3.68 -0.34,-2.29 0.01,-1.48 -1.17,-2.57 3.56,-4.17 8.54,-8.82 12.33,-12.71 2.2,0.73 15.25,7.56 15.56,8.01z"/>
   <path class="fil2" d="M215.74 48.48l18.49 0c6.13,0 11.16,5.02 11.16,11.16l0 0c0,6.14 -5.03,11.16 -11.16,11.16l-18.49 0c-6.13,0 -11.16,-5.02 -11.16,-11.16l0 0c0,-6.14 5.03,-11.16 11.16,-11.16z"/>
   <path class="fil2" d="M232.86 26.31c0.38,0.13 0.42,0.09 0.79,0.3 0.29,0.16 0.28,0.25 0.4,0.37 1.54,0.79 2.08,1.7 2.9,2.66 0.28,-1.23 0.72,-3.62 0.81,-4.85 0.31,-4.49 -11.04,-7.27 -16.34,-5.52 -2.7,0.89 -2.67,2.78 -3.12,7.07 0.05,-0.03 0.12,-0.08 0.15,-0.1l0.69 -0.49c0.28,-0.19 0.36,-0.25 0.68,-0.39 0.49,-0.22 0.96,-0.35 1.57,-0.49 4.05,-0.89 7.82,0.2 11.47,1.44z"/>
   <path class="fil2" d="M234.05 26.98c-0.12,-0.12 -0.11,-0.21 -0.4,-0.37 -0.37,-0.21 -0.41,-0.17 -0.79,-0.3l1.19 0.67z"/>
   <path class="fil2 str0" d="M226.24 23.76c6.13,0 11.1,4.97 11.1,11.1 0,6.13 -4.97,11.1 -11.1,11.1 -6.13,0 -11.1,-4.97 -11.1,-11.1 0,-6.13 4.97,-11.1 11.1,-11.1z"/>
   <path class="fil2" d="M215.16 16.38c1.42,0.93 2.33,2.45 3.55,3.45l0.59 -0.35c4.27,-2.86 11.29,-1.64 15.56,0.58 1.14,0.59 2.24,1.33 3,2.36l0.7 0.97c0.91,-0.31 1.68,-0.99 2.6,-1.08 -0.18,1.08 -0.33,2.18 -0.51,3.26 -0.32,2.05 -0.58,1.14 -0.92,2.21 -0.28,0.9 -0.11,1.16 -0.69,2.47 -0.15,0.34 -0.43,0.89 -0.53,1.22 -0.69,2.15 3.16,1.58 3.16,1.58 0.43,-0.54 0.29,-0.6 0.17,-1.51 -0.31,-2.17 -0.11,-3.37 -0.32,-4.2 -0.25,-1 0.19,-2.5 0.36,-3.69 0.34,-2.29 -0.01,-1.48 1.18,-2.57 -3.57,-4.16 -8.54,-8.81 -12.33,-12.7 -2.21,0.73 -15.25,7.55 -15.57,8z"/>
   <path class="fil0" d="M171.05 47.9l-12.05 5.72c1.53,5.12 5.83,9.87 14.06,9.16 -3.79,-4.25 -5.02,-9.34 -2.01,-14.88z"/>
   <path class="fil2" d="M253.69 51.89l12.05 5.72c-1.53,5.12 -5.17,10.66 -13.41,9.95 4.84,-3.02 5.03,-11.17 1.36,-15.67z"/>
   <g>
    <path class="fil3" d="M189.26 49.3c1.08,0 1.96,0.88 1.96,1.96 0,1.09 -0.88,1.97 -1.96,1.97 -1.09,0 -1.97,-0.88 -1.97,-1.97 0,-1.08 0.88,-1.96 1.97,-1.96z"/>
    <path class="fil3" d="M195.99 49.3c1.09,0 1.97,0.88 1.97,1.96 0,1.09 -0.88,1.97 -1.97,1.97 -1.08,0 -1.96,-0.88 -1.96,-1.97 0,-1.08 0.88,-1.96 1.96,-1.96z"/>
    <path class="fil3" d="M202.73 49.3c1.08,0 1.96,0.88 1.96,1.96 0,1.09 -0.88,1.97 -1.96,1.97 -1.09,0 -1.96,-0.88 -1.96,-1.97 0,-1.08 0.87,-1.96 1.96,-1.96z"/>
   </g>
   <path class="fil1" d="M209.67 59.03c0.39,-0.01 0.7,-0.11 0.94,-0.31 0.25,-0.2 0.41,-0.47 0.49,-0.81 0.08,-0.35 0.12,-0.93 0.13,-1.76 0,-0.83 0.01,-1.38 0.03,-1.65 0.05,-0.42 0.13,-0.75 0.25,-1.01 0.12,-0.25 0.27,-0.45 0.45,-0.61 0.18,-0.15 0.41,-0.26 0.69,-0.34 0.19,-0.05 0.49,-0.08 0.92,-0.08l0.42 0 0 1.18 -0.23 0c-0.51,0 -0.85,0.1 -1.02,0.28 -0.17,0.19 -0.25,0.6 -0.25,1.25 0,1.31 -0.03,2.13 -0.09,2.47 -0.09,0.54 -0.24,0.95 -0.46,1.24 -0.22,0.28 -0.56,0.54 -1.03,0.76 0.56,0.23 0.96,0.58 1.21,1.05 0.24,0.47 0.37,1.24 0.37,2.31 0,0.97 0,1.55 0.01,1.73 0.04,0.34 0.14,0.57 0.3,0.71 0.17,0.13 0.48,0.2 0.96,0.2l0.23 0 0 1.18 -0.42 0c-0.49,0 -0.84,-0.04 -1.06,-0.12 -0.32,-0.12 -0.58,-0.3 -0.79,-0.56 -0.21,-0.25 -0.35,-0.58 -0.41,-0.97 -0.06,-0.39 -0.09,-1.04 -0.1,-1.93 0,-0.9 -0.05,-1.52 -0.13,-1.86 -0.08,-0.34 -0.23,-0.61 -0.47,-0.81 -0.25,-0.2 -0.56,-0.31 -0.94,-0.32l0 -1.22zm30.63 0l0 1.22c-0.39,0.01 -0.7,0.12 -0.94,0.32 -0.25,0.2 -0.41,0.47 -0.49,0.81 -0.08,0.34 -0.12,0.92 -0.13,1.75 0,0.83 -0.01,1.38 -0.04,1.65 -0.04,0.42 -0.12,0.75 -0.25,1.01 -0.12,0.25 -0.27,0.45 -0.45,0.6 -0.18,0.15 -0.41,0.27 -0.69,0.35 -0.19,0.05 -0.5,0.08 -0.93,0.08l-0.41 0 0 -1.18 0.23 0c0.52,0 0.86,-0.09 1.03,-0.28 0.17,-0.19 0.25,-0.6 0.25,-1.26 0,-1.24 0.02,-2.03 0.06,-2.36 0.08,-0.55 0.24,-0.99 0.48,-1.32 0.24,-0.34 0.58,-0.59 1.02,-0.78 -0.58,-0.27 -0.98,-0.63 -1.22,-1.08 -0.24,-0.45 -0.35,-1.21 -0.35,-2.28 0,-0.97 -0.01,-1.55 -0.02,-1.74 -0.04,-0.33 -0.13,-0.57 -0.3,-0.7 -0.16,-0.13 -0.48,-0.2 -0.95,-0.2l-0.23 0 0 -1.18 0.41 0c0.49,0 0.85,0.04 1.06,0.12 0.32,0.11 0.59,0.3 0.8,0.56 0.2,0.25 0.34,0.58 0.4,0.97 0.06,0.4 0.1,1.04 0.1,1.94 0.01,0.9 0.05,1.51 0.13,1.85 0.08,0.35 0.24,0.62 0.49,0.82 0.24,0.19 0.55,0.3 0.94,0.31z"/>
   <g>
    <path class="fil3" d="M218.25 57.68c1.08,0 1.96,0.88 1.96,1.96 0,1.09 -0.88,1.96 -1.96,1.96 -1.09,0 -1.96,-0.87 -1.96,-1.96 0,-1.08 0.87,-1.96 1.96,-1.96z"/>
    <path class="fil3" d="M224.98 57.68c1.09,0 1.97,0.88 1.97,1.96 0,1.09 -0.88,1.96 -1.97,1.96 -1.08,0 -1.96,-0.87 -1.96,-1.96 0,-1.08 0.88,-1.96 1.96,-1.96z"/>
    <path class="fil3" d="M231.72 57.68c1.09,0 1.96,0.88 1.96,1.96 0,1.09 -0.87,1.96 -1.96,1.96 -1.08,0 -1.96,-0.87 -1.96,-1.96 0,-1.08 0.88,-1.96 1.96,-1.96z"/>
   </g>
   <polygon class="fil3" points="199.8,28.88 212.86,26.68 222.46,35.81 209.4,38.01 "/>
  </g>
 </g>
</svg>
