<?xml version="1.0" encoding="UTF-8"?>
<!DOCTYPE svg PUBLIC "-//W3C//DTD SVG 1.1//EN" "http://www.w3.org/Graphics/SVG/1.1/DTD/svg11.dtd">
<!-- Creator: CorelDRAW -->
<svg xmlns="http://www.w3.org/2000/svg" xml:space="preserve" width="508px" height="508px" version="1.1" style="shape-rendering:geometricPrecision; text-rendering:geometricPrecision; image-rendering:optimizeQuality; fill-rule:evenodd; clip-rule:evenodd"
viewBox="0 0 1715.18 1715.18"
 xmlns:xlink="http://www.w3.org/1999/xlink"
 xmlns:xodm="http://www.corel.com/coreldraw/odm/2003">
 <defs>
  <style type="text/css">
   <![CDATA[
    .fil1 {fill:#91D8F7}
    .fil2 {fill:#0AADEE}
    .fil0 {fill:#133E86}
   ]]>
  </style>
 </defs>
 <g id="Layer_x0020_1">
  <metadata id="CorelCorpID_0Corel-Layer"/>
  <g id="_2156428469024">
   <path class="fil0" d="M857.59 0c473.63,0 857.59,383.95 857.59,857.59 0,473.63 -383.96,857.59 -857.59,857.59 -473.64,0 -857.59,-383.96 -857.59,-857.59 0,-473.64 383.95,-857.59 857.59,-857.59z"/>
   <g>
    <path class="fil1" d="M688.99 713.28c54.06,-67.59 189.15,-93.93 289.35,-47.96 79.34,36.4 161,101.1 250.19,139.7l-1.38 -241.79c-29.87,-25.44 -178.61,-106.7 -210.81,-119.18 -41.11,33.86 -71.22,64.84 -139.36,65.75 -60.81,0.8 -111.24,-23.18 -135.67,-63.17 -31.83,9.7 -157.03,79.96 -188.89,102.96 -63.59,45.9 -84.09,144.15 -56.68,223.39 26.28,75.95 302.67,217.17 335.59,227.04 -0.1,-279.02 21.17,-184.47 -142.34,-286.74z"/>
    <path class="fil1" d="M730 370.29c48.01,172.67 321.55,120.94 285.24,-72.46 -13.14,-70 -82.33,-130.93 -179.87,-109.43 -67.39,14.87 -129.84,93.9 -105.37,181.89z"/>
   </g>
   <g>
    <path class="fil2" d="M1026.2 1001.9c-54.07,67.59 -189.16,93.93 -289.36,47.96 -79.34,-36.4 -161,-101.1 -250.19,-139.7l1.38 241.79c29.87,25.43 178.62,106.7 210.81,119.18 41.12,-33.87 71.22,-64.84 139.36,-65.76 60.81,-0.79 111.24,23.18 135.68,63.18 31.82,-9.7 157.02,-79.96 188.89,-102.97 63.58,-45.9 84.08,-144.15 56.67,-223.38 -26.28,-75.96 -302.67,-217.18 -335.59,-227.05 0.11,279.03 -21.18,184.48 142.35,286.75z"/>
    <path class="fil2" d="M985.18 1344.88c-48,-172.66 -321.55,-120.93 -285.24,72.46 13.14,70.01 82.34,130.94 179.88,109.43 67.38,-14.86 129.83,-93.89 105.36,-181.89z"/>
   </g>
  </g>
 </g>
</svg>
