<?xml version="1.0" encoding="UTF-8"?>
<!DOCTYPE svg PUBLIC "-//W3C//DTD SVG 1.1//EN" "http://www.w3.org/Graphics/SVG/1.1/DTD/svg11.dtd">
<!-- Creator: CorelDRAW -->
<svg xmlns="http://www.w3.org/2000/svg" xml:space="preserve" width="550px" height="550px" version="1.1" style="shape-rendering:geometricPrecision; text-rendering:geometricPrecision; image-rendering:optimizeQuality; fill-rule:evenodd; clip-rule:evenodd"
viewBox="0 0 230.13 230.13"
 xmlns:xlink="http://www.w3.org/1999/xlink"
 xmlns:xodm="http://www.corel.com/coreldraw/odm/2003">
 <defs>
  <style type="text/css">
   <![CDATA[
    .fil0 {fill:#133E86}
    .fil1 {fill:#FEFEFE;fill-rule:nonzero}
   ]]>
  </style>
 </defs>
 <g id="Layer_x0020_1">
  <metadata id="CorelCorpID_0Corel-Layer"/>
  <g id="_2192530739104">
   <path class="fil0" d="M115.06 0c63.55,0 115.07,51.52 115.07,115.06 0,63.55 -51.52,115.07 -115.07,115.07 -63.54,0 -115.06,-51.52 -115.06,-115.07 0,-63.54 51.52,-115.06 115.06,-115.06z"/>
   <path class="fil1" d="M104.55 54.95c-2.89,1.16 -5.01,3.51 -7.54,4.88l-0.98 -0.8c-7.04,-6.29 -20.33,-6.34 -28.86,-3.81 -2.27,0.67 -4.51,1.61 -6.2,3.16l-1.58 1.45c-1.59,-0.81 -2.82,-2.23 -4.48,-2.68 0.01,1.95 -0.02,3.89 -0.02,5.83 0,3.65 0.75,2.14 1.06,4.12 0.25,1.64 -0.14,2.04 0.54,4.48 0.19,0.65 0.54,1.69 0.64,2.29 0.63,3.95 -6.29,1.76 -6.29,1.76 -0.63,-1.07 -0.38,-1.12 0.13,-2.67 1.19,-3.66 1.18,-5.82 1.8,-7.19 0.75,-1.65 0.39,-4.4 0.42,-6.5 0.04,-4.08 0.44,-2.57 -1.42,-4.82 8.1,-6.37 17.91,-12.37 26.43,-18.22 3.95,2 25.77,17.6 26.35,18.72zm20.35 0c2.89,1.16 5.01,3.51 7.54,4.88l0.98 -0.8c7.04,-6.29 20.33,-6.34 28.86,-3.81 2.27,0.67 4.51,1.61 6.2,3.16l1.58 1.45c1.58,-0.81 2.82,-2.23 4.48,-2.68 -0.01,1.95 0.02,3.89 0.02,5.83 0,3.65 -0.75,2.14 -1.06,4.12 -0.25,1.64 0.14,2.04 -0.54,4.48 -0.19,0.65 -0.55,1.69 -0.64,2.29 -0.63,3.95 6.29,1.76 6.29,1.76 0.63,-1.07 0.37,-1.12 -0.13,-2.67 -1.19,-3.66 -1.19,-5.82 -1.81,-7.19 -0.74,-1.65 -0.38,-4.4 -0.41,-6.5 -0.04,-4.08 -0.44,-2.57 1.42,-4.82 -8.1,-6.37 -17.91,-12.37 -26.43,-18.22 -3.95,2 -25.77,17.6 -26.35,18.72zm43.93 16.14c0.16,-2.25 0.37,-6.44 0.17,-8.57 -0.75,-7.88 -22.46,-9.18 -31.72,-4.51 -4.65,2.35 -4.13,5.55 -3.71,12.9 -1.38,2.7 -2.16,5.75 -2.16,8.99 0,8.32 5.15,15.43 12.43,18.34 -1.26,0.33 -2.49,0.75 -3.71,1.24 -3.73,1.53 -6.95,3.53 -9.65,6.07 -2.69,2.55 -4.83,5.56 -6.42,9.08 -1.61,3.51 -2.4,7.2 -2.4,11.03l0 32.43c0,1.32 0.46,2.41 1.39,3.29 0.93,0.88 2.07,1.32 3.4,1.32 1.3,0 2.4,-0.44 3.31,-1.34 0.9,-0.9 1.34,-1.99 1.34,-3.27l0 -32.43c0,-5.3 2.03,-9.88 6.07,-13.69 4.06,-3.83 8.94,-5.73 14.63,-5.73 5.56,0 10.33,1.9 14.3,5.73 3.99,3.81 5.98,8.39 5.98,13.69l0 32.43c0,1.28 0.48,2.37 1.45,3.27 0.98,0.9 2.12,1.34 3.4,1.34 1.3,0 2.43,-0.44 3.4,-1.34 0.97,-0.9 1.46,-1.99 1.46,-3.27l0 -32.43c0,-5.15 -1.35,-9.9 -4.04,-14.27 -2.69,-4.38 -6.36,-7.83 -10.97,-10.36 -2.49,-1.37 -5.08,-2.37 -7.79,-3 7.01,-3.03 11.91,-10.01 11.91,-18.13 0,-3.17 -0.74,-6.16 -2.07,-8.81zm-120.49 54.57c0,-3.83 0.79,-7.52 2.41,-11.03 1.58,-3.52 3.72,-6.53 6.42,-9.08 2.69,-2.54 5.91,-4.54 9.64,-6.07 1.29,-0.52 2.59,-0.95 3.91,-1.29 -7.21,-2.94 -12.3,-10.02 -12.3,-18.29 0,-3.25 0.79,-6.32 2.18,-9.02 -0.15,-2.3 -0.34,-6.29 -0.15,-8.36 0.75,-7.88 22.46,-9.18 31.72,-4.51 4.7,2.37 4.12,5.61 3.69,13.12 1.31,2.64 2.05,5.62 2.05,8.77 0,8.17 -4.96,15.17 -12.03,18.18 2.64,0.63 5.16,1.62 7.58,2.95 4.62,2.53 8.28,5.98 10.97,10.36 2.69,4.37 4.04,9.12 4.04,14.27l0 32.43c0,0.78 -0.18,1.49 -0.54,2.13l0 5.41c0,5.38 1.85,9.94 5.59,13.71 3.73,3.75 8.25,5.63 13.55,5.63 5.17,0 9.64,-1.88 13.35,-5.67 3.74,-3.77 5.59,-8.33 5.59,-13.67l0 -31.96c0,-1.23 0.43,-2.28 1.27,-3.19 0.84,-0.91 1.86,-1.37 3.04,-1.37 1.21,0 2.25,0.46 3.14,1.37 0.9,0.91 1.35,1.96 1.35,3.19l0 31.96c0,3.79 -0.73,7.46 -2.2,10.96 -1.49,3.47 -3.45,6.5 -5.94,9.02 -2.47,2.53 -5.41,4.54 -8.84,6.05 -3.43,1.49 -7.02,2.23 -10.76,2.23 -7.65,0 -14.22,-2.77 -19.67,-8.3 -5.47,-5.55 -8.21,-12.19 -8.21,-19.96l0 -5.62c-0.29,-0.59 -0.43,-1.22 -0.43,-1.92l0 -32.43c0,-5.3 -1.99,-9.88 -5.98,-13.69 -3.97,-3.83 -8.74,-5.73 -14.3,-5.73 -5.69,0 -10.57,1.9 -14.63,5.73 -4.04,3.81 -6.07,8.39 -6.07,13.69l0 32.43c0,1.28 -0.44,2.37 -1.34,3.27 -0.91,0.9 -2.01,1.34 -3.31,1.34 -1.32,0 -2.47,-0.44 -3.4,-1.32 -0.93,-0.88 -1.39,-1.97 -1.39,-3.29l0 -32.43z"/>
  </g>
 </g>
</svg>
