<?xml version="1.0" encoding="UTF-8"?>
<!DOCTYPE svg PUBLIC "-//W3C//DTD SVG 1.1//EN" "http://www.w3.org/Graphics/SVG/1.1/DTD/svg11.dtd">
<!-- Creator: CorelDRAW -->
<svg xmlns="http://www.w3.org/2000/svg" xml:space="preserve" width="1500px" height="299px" version="1.1" style="shape-rendering:geometricPrecision; text-rendering:geometricPrecision; image-rendering:optimizeQuality; fill-rule:evenodd; clip-rule:evenodd"
viewBox="0 0 566.41 113.34"
 xmlns:xlink="http://www.w3.org/1999/xlink"
 xmlns:xodm="http://www.corel.com/coreldraw/odm/2003">
 <defs>
  <style type="text/css">
   <![CDATA[
    .fil0 {fill:#FEFEFE}
    .fil1 {fill:#0AADEE}
    .fil3 {fill:#133E86}
    .fil2 {fill:#FEFEFE;fill-rule:nonzero}
    .fil4 {fill:#133E86;fill-rule:nonzero}
   ]]>
  </style>
 </defs>
 <g id="Layer_x0020_1">
  <metadata id="CorelCorpID_0Corel-Layer"/>
  <g id="_2192969135200">
   <path class="fil0" d="M39.26 17.41l200.83 0c21.59,0 39.26,17.67 39.26,39.26l0 0c0,7.3 -2.02,14.15 -5.52,20.02l0 -0.01c-4.83,8.86 -2.85,17.02 3.21,23.83 -9.78,0.84 -16.09,-3.14 -19.69,-8.6 -5.22,2.57 -11.08,4.02 -17.26,4.02l-200.83 0c-21.59,0 -39.26,-17.67 -39.26,-39.26l0 0c0,-21.59 17.67,-39.26 39.26,-39.26z"/>
   <path class="fil1" d="M435.11 17.41l92.04 0c21.59,0 39.26,17.67 39.26,39.26l0 0c0,21.6 -17.67,39.26 -39.26,39.26l-92.04 0c-21.59,0 -39.26,-17.66 -39.26,-39.26l0 0c0,-21.59 17.67,-39.26 39.26,-39.26z"/>
   <path class="fil2" d="M432.29 77.7c-1.83,0 -3.55,-0.11 -5.18,-0.34 -1.62,-0.23 -3.11,-0.53 -4.46,-0.89 -1.35,-0.37 -2.55,-0.74 -3.59,-1.14l-0.96 -10.23c1.66,0.7 3.63,1.38 5.89,2 2.27,0.65 4.65,0.96 7.15,0.96 2.23,0 3.78,-0.23 4.67,-0.69 0.87,-0.45 1.32,-1.19 1.32,-2.21l0 -0.13c0,-0.68 -0.22,-1.25 -0.63,-1.7 -0.44,-0.45 -1.15,-0.88 -2.15,-1.28 -0.99,-0.41 -2.34,-0.88 -4.02,-1.42 -2.73,-0.87 -5.03,-1.82 -6.9,-2.86 -1.87,-1.02 -3.28,-2.32 -4.24,-3.87 -0.96,-1.55 -1.44,-3.52 -1.44,-5.93l0 -0.47c0,-3.73 1.29,-6.57 3.86,-8.54 2.56,-1.96 6.32,-2.95 11.25,-2.95 2.89,0 5.39,0.24 7.51,0.72 2.11,0.48 3.93,1.06 5.47,1.75l0.96 9.55c-1.66,-0.75 -3.51,-1.38 -5.55,-1.86 -2.04,-0.49 -4.18,-0.73 -6.43,-0.73 -1.47,0 -2.63,0.09 -3.44,0.29 -0.82,0.2 -1.39,0.49 -1.71,0.87 -0.31,0.39 -0.46,0.87 -0.46,1.43l0 0.09c0,0.58 0.19,1.09 0.58,1.54 0.38,0.45 1.08,0.91 2.1,1.36 1.02,0.46 2.47,0.99 4.37,1.59 2.7,0.86 4.98,1.75 6.82,2.69 1.84,0.93 3.23,2.14 4.16,3.6 0.94,1.46 1.41,3.45 1.41,5.95l0 0.43c0,4.14 -1.35,7.25 -4.03,9.31 -2.68,2.07 -6.79,3.11 -12.33,3.11zm33.05 -0.18c-2.85,0 -5.12,-0.44 -6.78,-1.3 -1.68,-0.87 -2.87,-2.15 -3.59,-3.85 -0.73,-1.71 -1.08,-3.81 -1.08,-6.31l0 -16.47 10.95 0 0 14.6c0,1.33 0.3,2.31 0.91,2.91 0.6,0.63 1.78,0.93 3.55,0.93 0.96,0 1.92,-0.1 2.86,-0.33 0.95,-0.21 1.8,-0.47 2.57,-0.76l-0.93 9.05c-1.09,0.45 -2.33,0.83 -3.75,1.11 -1.41,0.27 -2.98,0.42 -4.71,0.42zm-15.29 -22.81l0 -8.65 24.37 0 -0.94 8.65 -23.43 0zm3.99 -7.9l-0.03 -7.71 10.89 -0.96 -0.37 8.67 -10.49 0zm35.02 -0.75l0 17.66c0,0.98 0.12,1.82 0.36,2.53 0.24,0.71 0.64,1.25 1.23,1.62 0.58,0.38 1.37,0.57 2.37,0.57 0.79,0 1.48,-0.14 2.08,-0.41 0.58,-0.27 1.09,-0.63 1.53,-1.09 0.42,-0.46 0.76,-0.96 1.01,-1.5l1.68 4.56 -1.78 0c-0.31,1.41 -0.83,2.69 -1.57,3.83 -0.75,1.15 -1.77,2.05 -3.08,2.72 -1.31,0.66 -3,1 -5.08,1 -2.23,0 -4.07,-0.44 -5.53,-1.31 -1.45,-0.88 -2.53,-2.2 -3.22,-3.96 -0.7,-1.75 -1.05,-3.97 -1.05,-6.65l0 -19.57 11.05 0zm19.5 0l0 30.74 -10.99 0 0.35 -7.9 -0.41 -1.12 0 -21.72 11.05 0zm15.57 31.49c-3.54,0 -6.21,-1.2 -8.03,-3.58 -1.82,-2.37 -2.74,-5.95 -2.74,-10.71l0 -3.28c0,-4.85 0.92,-8.51 2.74,-10.97 1.82,-2.47 4.6,-3.7 8.34,-3.7 1.83,0 3.35,0.31 4.56,0.94 1.2,0.62 2.15,1.5 2.86,2.62 0.68,1.12 1.17,2.46 1.44,3.99l2.84 0 -2.49 6.4c-0.02,-1.08 -0.21,-2 -0.58,-2.77 -0.37,-0.74 -0.89,-1.34 -1.56,-1.75 -0.68,-0.42 -1.51,-0.63 -2.51,-0.63 -1.48,0 -2.6,0.44 -3.37,1.31 -0.77,0.88 -1.16,2.19 -1.16,3.93l0 3.78c0,1.77 0.4,3.1 1.18,3.97 0.78,0.9 1.94,1.34 3.5,1.34 0.77,0 1.46,-0.14 2.08,-0.41 0.61,-0.27 1.14,-0.64 1.57,-1.12 0.44,-0.48 0.78,-1.03 1.03,-1.66l2.72 4.75 -3.06 0c-0.29,1.41 -0.79,2.69 -1.5,3.83 -0.71,1.15 -1.69,2.05 -2.96,2.72 -1.27,0.66 -2.9,1 -4.9,1zm9.39 -0.75l0.31 -8.02 -0.18 -1.53 0 -12.3 0 -1.4 -0.13 -9.02 0 -8.89 10.98 0 0 41.16 -10.98 0z"/>
   <path class="fil3" d="M301.59 29.78c0.19,-0.19 0.18,-0.33 0.65,-0.59 0.58,-0.34 0.65,-0.28 1.26,-0.48l-1.91 1.07z"/>
   <g>
    <path class="fil0" d="M326.2 64.2l-24.89 0c-9.82,0 -17.86,8.04 -17.86,17.87l0 0c0,9.82 8.04,17.86 17.86,17.86l24.89 0c9.82,0 17.86,-8.04 17.86,-17.86l0 0c0,-9.83 -8.04,-17.87 -17.86,-17.87z"/>
    <path class="fil0" d="M297.84 32.95c-0.29,0.36 -0.57,0.73 -0.88,1.09 -0.45,-1.98 -1.17,-5.79 -1.3,-7.77 -0.49,-7.18 17.66,-11.63 26.15,-8.83 4.28,1.41 4.27,4.38 4.97,11.1 -3.34,-3.07 -7.8,-4.94 -12.69,-4.94 -5.19,0 -9.88,2.11 -13.28,5.51 -1.15,1.14 -2.15,2.43 -2.97,3.84z"/>
    <path class="fil0" d="M314.09 24.63c-9.81,0 -17.77,7.95 -17.77,17.76 0,9.82 7.96,17.77 17.77,17.77 5.5,0 10.41,-2.49 13.67,-6.41l-7.91 -7.51 11.92 -2.01c0.06,-0.61 0.09,-1.22 0.09,-1.84 0,-9.81 -7.95,-17.76 -17.77,-17.76z"/>
    <path class="fil0" d="M331.83 12.82c-2.27,1.48 -3.73,3.91 -5.68,5.52l-0.94 -0.57c-6.83,-4.58 -18.07,-2.62 -24.92,0.94 -1.82,0.94 -3.57,2.12 -4.79,3.78l-1.12 1.54c-1.46,-0.49 -2.7,-1.58 -4.17,-1.73 0.29,1.74 0.54,3.49 0.81,5.23 0.52,3.28 0.94,1.81 1.48,3.54 0.45,1.43 0.17,1.85 1.1,3.94 0.25,0.56 0.7,1.44 0.86,1.95 1.1,3.46 -5.06,2.54 -5.06,2.54 -0.69,-0.87 -0.48,-0.95 -0.27,-2.42 0.49,-3.47 0.17,-5.4 0.5,-6.72 0.4,-1.6 -0.29,-4.01 -0.57,-5.9 -0.55,-3.67 0.01,-2.37 -1.89,-4.12 5.71,-6.67 13.68,-14.11 19.74,-20.34 3.53,1.17 24.41,12.1 24.92,12.82z"/>
   </g>
   <path class="fil1" d="M345.37 77.61l29.59 0c9.83,0 17.87,8.04 17.87,17.87l0 0c0,9.82 -8.04,17.86 -17.87,17.86l-29.59 0c-9.82,0 -17.86,-8.04 -17.86,-17.86l0 0c0,-9.83 8.04,-17.87 17.86,-17.87z"/>
   <path class="fil1" d="M378.43 46.36c0.29,0.36 0.58,0.73 0.89,1.09 0.45,-1.98 1.16,-5.79 1.3,-7.77 0.49,-7.18 -17.67,-11.63 -26.15,-8.83 -4.29,1.41 -4.28,4.38 -4.98,11.1 3.35,-3.07 7.8,-4.94 12.69,-4.94 5.19,0 9.89,2.11 13.29,5.51 1.14,1.14 2.14,2.43 2.96,3.84z"/>
   <path class="fil1" d="M374.68 43.19c-0.19,-0.19 -0.18,-0.33 -0.64,-0.59 -0.59,-0.34 -0.66,-0.28 -1.26,-0.48l1.9 1.07z"/>
   <path class="fil1" d="M362.18 38.04c9.82,0 17.77,7.95 17.77,17.76 0,9.82 -7.95,17.77 -17.77,17.77 -8.64,0 -15.83,-6.16 -17.43,-14.33l11.37 -1.92 -9.87 -9.39c2.9,-5.86 8.95,-9.89 15.93,-9.89z"/>
   <path class="fil1" d="M344.44 26.23c2.28,1.48 3.73,3.91 5.68,5.52l0.94 -0.57c6.84,-4.58 18.08,-2.62 24.92,0.94 1.82,0.94 3.58,2.12 4.79,3.78l1.12 1.54c1.46,-0.49 2.71,-1.58 4.17,-1.73 -0.28,1.74 -0.53,3.49 -0.81,5.23 -0.52,3.28 -0.94,1.81 -1.48,3.54 -0.44,1.43 -0.17,1.85 -1.1,3.94 -0.24,0.56 -0.69,1.44 -0.86,1.95 -1.09,3.46 5.06,2.54 5.06,2.54 0.69,-0.87 0.48,-0.96 0.27,-2.42 -0.48,-3.47 -0.17,-5.4 -0.5,-6.72 -0.39,-1.6 0.3,-4.01 0.58,-5.9 0.54,-3.67 -0.01,-2.38 1.88,-4.12 -5.71,-6.67 -13.67,-14.11 -19.74,-20.34 -3.53,1.17 -24.41,12.1 -24.92,12.82z"/>
   <path class="fil1" d="M406.12 83.07l19.29 9.15c-2.45,8.21 -8.28,17.06 -21.46,15.93 7.73,-4.83 8.04,-17.89 2.17,-25.08z"/>
   <g>
    <path class="fil3" d="M302.97 78.92c1.74,0 3.14,1.41 3.14,3.15 0,1.73 -1.4,3.14 -3.14,3.14 -1.73,0 -3.14,-1.41 -3.14,-3.14 0,-1.74 1.41,-3.15 3.14,-3.15z"/>
    <path class="fil3" d="M313.76 78.92c1.73,0 3.14,1.41 3.14,3.15 0,1.73 -1.41,3.14 -3.14,3.14 -1.74,0 -3.15,-1.41 -3.15,-3.14 0,-1.74 1.41,-3.15 3.15,-3.15z"/>
    <path class="fil3" d="M324.54 78.92c1.73,0 3.14,1.41 3.14,3.15 0,1.73 -1.41,3.14 -3.14,3.14 -1.74,0 -3.14,-1.41 -3.14,-3.14 0,-1.74 1.4,-3.15 3.14,-3.15z"/>
   </g>
   <g>
    <path class="fil2" d="M335.65 94.5c0.62,-0.02 1.12,-0.18 1.51,-0.5 0.39,-0.32 0.65,-0.75 0.78,-1.3 0.12,-0.55 0.19,-1.49 0.2,-2.82 0,-1.33 0.03,-2.21 0.06,-2.63 0.08,-0.67 0.21,-1.2 0.4,-1.61 0.19,-0.41 0.44,-0.73 0.72,-0.98 0.29,-0.24 0.65,-0.43 1.1,-0.55 0.3,-0.08 0.79,-0.12 1.48,-0.12l0.66 0 0 1.88 -0.36 0c-0.83,0 -1.37,0.15 -1.64,0.45 -0.26,0.3 -0.4,0.97 -0.4,2 0,2.09 -0.04,3.41 -0.13,3.96 -0.15,0.85 -0.39,1.51 -0.74,1.97 -0.35,0.46 -0.9,0.88 -1.65,1.23 0.88,0.37 1.53,0.93 1.93,1.68 0.39,0.75 0.59,1.98 0.59,3.69 0,1.56 0.01,2.48 0.03,2.77 0.06,0.55 0.22,0.92 0.48,1.14 0.26,0.21 0.77,0.32 1.52,0.32l0.37 0 0 1.89 -0.67 0c-0.78,0 -1.34,-0.07 -1.7,-0.2 -0.5,-0.18 -0.93,-0.47 -1.26,-0.89 -0.34,-0.4 -0.55,-0.92 -0.65,-1.55 -0.1,-0.63 -0.16,-1.66 -0.16,-3.1 -0.01,-1.43 -0.08,-2.42 -0.21,-2.97 -0.12,-0.55 -0.38,-0.98 -0.76,-1.3 -0.39,-0.32 -0.88,-0.49 -1.5,-0.5l0 -1.96zm49.03 0l0 1.96c-0.62,0.01 -1.12,0.18 -1.51,0.5 -0.39,0.32 -0.65,0.75 -0.77,1.29 -0.13,0.55 -0.2,1.49 -0.21,2.82 0,1.33 -0.02,2.2 -0.06,2.63 -0.07,0.67 -0.2,1.21 -0.4,1.61 -0.19,0.4 -0.44,0.73 -0.73,0.97 -0.28,0.24 -0.65,0.43 -1.1,0.56 -0.3,0.08 -0.79,0.13 -1.48,0.13l-0.67 0 0 -1.89 0.37 0c0.83,0 1.37,-0.15 1.65,-0.45 0.27,-0.3 0.4,-0.97 0.4,-2.01 0,-1.99 0.03,-3.25 0.1,-3.78 0.13,-0.88 0.38,-1.59 0.77,-2.12 0.38,-0.53 0.93,-0.94 1.63,-1.24 -0.92,-0.44 -1.58,-1.02 -1.96,-1.73 -0.38,-0.73 -0.56,-1.94 -0.56,-3.66 0,-1.55 -0.01,-2.48 -0.03,-2.78 -0.05,-0.53 -0.21,-0.91 -0.47,-1.12 -0.26,-0.21 -0.77,-0.32 -1.53,-0.32l-0.37 0 0 -1.88 0.67 0c0.78,0 1.34,0.06 1.69,0.19 0.51,0.17 0.94,0.47 1.27,0.88 0.33,0.42 0.55,0.94 0.65,1.57 0.1,0.63 0.15,1.66 0.16,3.1 0.01,1.43 0.08,2.42 0.21,2.97 0.12,0.54 0.38,0.98 0.77,1.29 0.39,0.32 0.89,0.49 1.51,0.51z"/>
    <path class="fil0" d="M349.38 92.33c1.74,0 3.15,1.41 3.15,3.15 0,1.73 -1.41,3.14 -3.15,3.14 -1.73,0 -3.14,-1.41 -3.14,-3.14 0,-1.74 1.41,-3.15 3.14,-3.15z"/>
    <path class="fil0" d="M360.17 92.33c1.73,0 3.14,1.41 3.14,3.15 0,1.73 -1.41,3.14 -3.14,3.14 -1.74,0 -3.15,-1.41 -3.15,-3.14 0,-1.74 1.41,-3.15 3.15,-3.15z"/>
    <path class="fil0" d="M370.95 92.33c1.74,0 3.14,1.41 3.14,3.15 0,1.73 -1.4,3.14 -3.14,3.14 -1.73,0 -3.14,-1.41 -3.14,-3.14 0,-1.74 1.41,-3.15 3.14,-3.15z"/>
   </g>
   <path class="fil4" d="M39.93 77.5c-6.27,0 -10.94,-1.54 -13.96,-4.62 -3.04,-3.08 -4.57,-7.48 -4.57,-13.2l0 -6.3c0,-5.62 1.54,-9.95 4.6,-13 3.05,-3.04 7.66,-4.57 13.8,-4.57 1.58,0 3.04,0.11 4.36,0.31 1.33,0.21 2.54,0.5 3.63,0.86 1.1,0.37 2.08,0.79 2.93,1.27l0.86 9.51c-1.27,-0.58 -2.65,-1.09 -4.13,-1.52 -1.48,-0.42 -3.18,-0.63 -5.09,-0.63 -3.05,0 -5.27,0.73 -6.68,2.18 -1.4,1.46 -2.1,3.49 -2.1,6.09l0 5.34c0,2.57 0.71,4.59 2.14,6.06 1.42,1.48 3.79,2.2 7.1,2.2 1.85,0 3.5,-0.21 4.97,-0.67 1.47,-0.44 2.84,-0.98 4.12,-1.6l-0.86 9.7c-0.83,0.48 -1.81,0.92 -2.94,1.31 -1.13,0.4 -2.38,0.71 -3.74,0.94 -1.36,0.23 -2.84,0.34 -4.44,0.34zm31.49 0.03c-5.42,0 -9.51,-1.26 -12.25,-3.76 -2.76,-2.51 -4.14,-5.98 -4.14,-10.44l0 -3.9c0,-4.55 1.38,-8.11 4.15,-10.67 2.76,-2.56 6.84,-3.84 12.24,-3.84 5.42,0 9.51,1.28 12.26,3.84 2.74,2.56 4.12,6.12 4.12,10.67l0 3.9c0,4.46 -1.37,7.93 -4.11,10.44 -2.74,2.5 -6.83,3.76 -12.27,3.76zm0 -8.67c1.55,0 2.73,-0.45 3.54,-1.33 0.8,-0.88 1.2,-2.15 1.2,-3.79l0 -4.74c0,-1.77 -0.4,-3.11 -1.2,-4.03 -0.81,-0.91 -1.99,-1.37 -3.54,-1.37 -1.54,0 -2.71,0.46 -3.52,1.37 -0.81,0.92 -1.22,2.26 -1.22,4.03l0 4.74c0,1.64 0.41,2.91 1.22,3.79 0.81,0.88 1.98,1.33 3.52,1.33zm41.88 7.74l0 -17.67c0,-0.97 -0.12,-1.82 -0.37,-2.52 -0.25,-0.71 -0.69,-1.25 -1.31,-1.63 -0.61,-0.37 -1.44,-0.56 -2.5,-0.56 -0.81,0 -1.53,0.14 -2.17,0.41 -0.63,0.27 -1.17,0.62 -1.62,1.07 -0.45,0.46 -0.81,0.96 -1.08,1.52l-1.77 -4.56 1.87 0c0.33,-1.43 0.89,-2.72 1.67,-3.86 0.77,-1.13 1.85,-2.02 3.26,-2.69 1.38,-0.67 3.17,-1 5.34,-1 2.37,0 4.32,0.44 5.84,1.31 1.53,0.88 2.66,2.19 3.39,3.94 0.73,1.76 1.1,3.99 1.1,6.67l0 19.57 -11.65 0zm-20.56 0l0 -30.74 11.58 0 -0.36 7.89 0.43 1.13 0 21.72 -11.65 0zm58.6 0l0 -17.67c0,-0.97 -0.12,-1.82 -0.38,-2.52 -0.25,-0.71 -0.69,-1.25 -1.3,-1.63 -0.61,-0.37 -1.45,-0.56 -2.5,-0.56 -0.81,0 -1.54,0.14 -2.17,0.41 -0.64,0.27 -1.18,0.62 -1.63,1.07 -0.44,0.46 -0.81,0.96 -1.07,1.52l-1.78 -4.56 1.88 0c0.33,-1.43 0.89,-2.72 1.67,-3.86 0.76,-1.13 1.85,-2.02 3.25,-2.69 1.38,-0.67 3.17,-1 5.34,-1 2.37,0 4.33,0.44 5.85,1.31 1.52,0.88 2.65,2.19 3.39,3.94 0.72,1.76 1.1,3.99 1.1,6.67l0 19.57 -11.65 0zm-20.57 0l0 -30.74 11.59 0 -0.37 7.89 0.43 1.13 0 21.72 -11.65 0zm54.95 0.81c-6.21,0 -10.77,-1.28 -13.66,-3.84 -2.91,-2.56 -4.37,-6.3 -4.37,-11.23l0 -2.41c0,-4.89 1.37,-8.61 4.1,-11.17 2.72,-2.56 6.71,-3.84 11.96,-3.84 3.48,0 6.39,0.54 8.72,1.64 2.32,1.09 4.08,2.66 5.25,4.71 1.17,2.05 1.75,4.52 1.75,7.41l0 0.97c0,0.83 -0.03,1.68 -0.1,2.54 -0.08,0.86 -0.2,1.66 -0.36,2.39l-10.43 0c0.09,-1.27 0.16,-2.46 0.19,-3.59 0.03,-1.12 0.04,-2.13 0.04,-3.02 0,-1.08 -0.17,-1.99 -0.52,-2.74 -0.35,-0.74 -0.9,-1.3 -1.65,-1.68 -0.74,-0.39 -1.71,-0.58 -2.89,-0.58 -1.78,0 -3.06,0.44 -3.86,1.32 -0.8,0.87 -1.21,2.11 -1.21,3.71l0 2.78 0.07 1.18 0 1.94c0,0.64 0.12,1.26 0.36,1.87 0.24,0.6 0.69,1.14 1.34,1.6 0.64,0.48 1.56,0.84 2.76,1.11 1.18,0.27 2.74,0.41 4.65,0.41 1.95,0 3.86,-0.16 5.73,-0.46 1.86,-0.29 3.66,-0.72 5.39,-1.26l-0.92 8.02c-1.51,0.71 -3.31,1.26 -5.41,1.65 -2.09,0.37 -4.41,0.57 -6.93,0.57zm-11.88 -12.83l0 -6.49 22.84 0 0 6.49 -22.84 0zm44.98 12.86c-5.28,0 -9.2,-1.31 -11.74,-3.93 -2.55,-2.62 -3.82,-6.32 -3.82,-11.08l0 -2.65c0,-4.62 1.27,-8.24 3.82,-10.86 2.54,-2.62 6.44,-3.93 11.71,-3.93 1.29,0 2.52,0.07 3.68,0.22 1.17,0.16 2.24,0.38 3.23,0.66 0.99,0.28 1.86,0.6 2.63,0.96l0.92 9.01c-1.07,-0.52 -2.24,-0.95 -3.49,-1.29 -1.25,-0.35 -2.64,-0.51 -4.17,-0.51 -2.37,0 -4.06,0.51 -5.08,1.52 -1.02,1.02 -1.54,2.49 -1.54,4.4l0 2.03c0,2 0.56,3.53 1.68,4.6 1.12,1.08 2.87,1.61 5.27,1.61 1.49,0 2.85,-0.15 4.06,-0.47 1.22,-0.31 2.42,-0.72 3.6,-1.24l-0.89 9.04c-1.2,0.57 -2.66,1.02 -4.37,1.38 -1.72,0.35 -3.55,0.53 -5.5,0.53zm29.22 -0.13c-3.01,0 -5.4,-0.43 -7.15,-1.3 -1.77,-0.86 -3.03,-2.14 -3.78,-3.85 -0.77,-1.7 -1.15,-3.8 -1.15,-6.3l0 -16.47 11.55 0 0 14.6c0,1.33 0.32,2.31 0.96,2.91 0.63,0.63 1.88,0.93 3.75,0.93 1.01,0 2.02,-0.11 3.01,-0.34 1,-0.2 1.9,-0.46 2.71,-0.75l-0.98 9.04c-1.14,0.46 -2.46,0.84 -3.95,1.12 -1.49,0.27 -3.15,0.41 -4.97,0.41zm-16.12 -22.81l0 -8.64 25.69 0 -0.98 8.64 -24.71 0zm4.21 -7.89l-0.03 -7.71 11.48 -0.97 -0.4 8.68 -11.05 0z"/>
  </g>
 </g>
</svg>
