<?xml version="1.0" encoding="UTF-8"?>
<!DOCTYPE svg PUBLIC "-//W3C//DTD SVG 1.1//EN" "http://www.w3.org/Graphics/SVG/1.1/DTD/svg11.dtd">
<!-- Creator: CorelDRAW -->
<svg xmlns="http://www.w3.org/2000/svg" xml:space="preserve" width="937px" height="187px" version="1.1" style="shape-rendering:geometricPrecision; text-rendering:geometricPrecision; image-rendering:optimizeQuality; fill-rule:evenodd; clip-rule:evenodd"
viewBox="0 0 1446 289.35"
 xmlns:xlink="http://www.w3.org/1999/xlink"
 xmlns:xodm="http://www.corel.com/coreldraw/odm/2003">
 <defs>
  <style type="text/css">
   <![CDATA[
    .fil4 {fill:#FEFEFE}
    .fil0 {fill:#F58634}
    .fil1 {fill:#0AADEE}
    .fil3 {fill:#133E86}
    .fil5 {fill:#FEFEFE;fill-rule:nonzero}
    .fil2 {fill:#FEFEFE;fill-rule:nonzero}
   ]]>
  </style>
 </defs>
 <g id="Layer_x0020_1">
  <metadata id="CorelCorpID_0Corel-Layer"/>
  <g id="_2192047172544">
   <path class="fil0" d="M100.23 44.45l512.7 0c55.13,0 100.23,45.1 100.23,100.23l0 0c0,18.63 -5.15,36.11 -14.1,51.1l0.01 -0.01c-12.33,22.62 -7.29,43.43 8.2,60.82 -24.99,2.15 -41.09,-8 -50.29,-21.95 -13.31,6.57 -28.27,10.26 -44.05,10.26l-512.7 0c-55.13,0 -100.23,-45.1 -100.23,-100.22l0 0c0,-55.13 45.1,-100.23 100.23,-100.23z"/>
   <path class="fil1" d="M1110.81 44.45l234.96 0c55.13,0 100.23,45.1 100.23,100.22l0 0.01c0,55.13 -45.1,100.22 -100.23,100.22l-234.96 0c-55.13,0 -100.23,-45.09 -100.23,-100.22l0 -0.01c0,-55.12 45.1,-100.22 100.23,-100.22z"/>
   <path class="fil2" d="M1103.62 198.37c-4.68,0 -9.08,-0.29 -13.23,-0.88 -4.14,-0.58 -7.94,-1.35 -11.39,-2.28 -3.45,-0.93 -6.5,-1.89 -9.16,-2.9l-2.47 -26.12c4.25,1.8 9.27,3.53 15.06,5.12 5.78,1.65 11.87,2.44 18.24,2.44 5.68,0 9.64,-0.58 11.92,-1.75 2.23,-1.17 3.37,-3.05 3.37,-5.65l0 -0.32c0,-1.76 -0.55,-3.22 -1.62,-4.36 -1.11,-1.14 -2.92,-2.23 -5.47,-3.26 -2.54,-1.04 -5.97,-2.23 -10.27,-3.61 -6.96,-2.24 -12.83,-4.65 -17.61,-7.31 -4.78,-2.6 -8.39,-5.92 -10.83,-9.88 -2.44,-3.95 -3.67,-9 -3.67,-15.16l0 -1.19c0,-9.51 3.3,-16.76 9.85,-21.8 6.54,-5 16.12,-7.52 28.71,-7.52 7.38,0 13.78,0.61 19.17,1.83 5.39,1.23 10.04,2.71 13.97,4.46l2.47 24.38c-4.25,-1.91 -8.98,-3.5 -14.18,-4.75 -5.21,-1.25 -10.68,-1.86 -16.41,-1.86 -3.77,0 -6.72,0.24 -8.79,0.74 -2.1,0.51 -3.56,1.25 -4.36,2.23 -0.79,0.99 -1.19,2.21 -1.19,3.64l0 0.24c0,1.49 0.5,2.79 1.49,3.93 0.98,1.14 2.76,2.31 5.36,3.48 2.6,1.17 6.32,2.52 11.15,4.06 6.91,2.18 12.72,4.46 17.42,6.85 4.7,2.39 8.23,5.47 10.62,9.19 2.39,3.74 3.59,8.82 3.59,15.19l0 1.11c0,10.57 -3.43,18.51 -10.28,23.77 -6.85,5.28 -17.34,7.94 -31.46,7.94zm84.36 -0.48c-7.28,0 -13.07,-1.11 -17.32,-3.32 -4.27,-2.2 -7.32,-5.47 -9.16,-9.82 -1.86,-4.36 -2.76,-9.72 -2.76,-16.09l0 -42.06 27.96 0 0 37.28c0,3.39 0.77,5.89 2.31,7.43 1.54,1.59 4.57,2.37 9.09,2.37 2.44,0 4.88,-0.27 7.3,-0.86 2.41,-0.53 4.59,-1.19 6.56,-1.93l-2.39 23.1c-2.77,1.17 -5.95,2.12 -9.56,2.84 -3.61,0.69 -7.62,1.06 -12.03,1.06zm-39.04 -58.23l0 -22.07 62.22 0 -2.39 22.07 -59.83 0zm10.2 -20.15l-0.08 -19.68 27.8 -2.47 -0.95 22.15 -26.77 0zm89.38 -1.92l0 45.09c0,2.5 0.32,4.65 0.93,6.45 0.61,1.81 1.65,3.19 3.13,4.15 1.49,0.95 3.51,1.43 6.06,1.43 2.02,0 3.77,-0.35 5.31,-1.03 1.49,-0.7 2.79,-1.63 3.9,-2.79 1.09,-1.17 1.94,-2.45 2.58,-3.83l4.3 11.63 -4.54 0c-0.8,3.61 -2.13,6.88 -4.01,9.8 -1.91,2.92 -4.51,5.23 -7.86,6.93 -3.35,1.7 -7.67,2.55 -12.98,2.55 -5.69,0 -10.39,-1.11 -14.11,-3.35 -3.71,-2.23 -6.47,-5.6 -8.23,-10.08 -1.78,-4.49 -2.68,-10.15 -2.68,-17l0 -49.95 28.2 0zm49.79 0l0 78.47 -28.04 0 0.88 -20.16 -1.04 -2.86 0 -55.45 28.2 0zm39.75 80.38c-9.03,0 -15.85,-3.05 -20.5,-9.13 -4.64,-6.06 -6.98,-15.19 -6.98,-27.35l0 -8.37c0,-12.37 2.34,-21.72 6.98,-28.01 4.65,-6.3 11.74,-9.43 21.3,-9.43 4.67,0 8.55,0.8 11.63,2.39 3.08,1.59 5.5,3.82 7.3,6.69 1.75,2.87 3,6.27 3.69,10.2l7.25 0 -6.37 16.33c-0.06,-2.76 -0.53,-5.1 -1.46,-7.06 -0.96,-1.92 -2.29,-3.43 -3.99,-4.49 -1.75,-1.06 -3.87,-1.6 -6.42,-1.6 -3.77,0 -6.64,1.12 -8.61,3.35 -1.96,2.23 -2.94,5.58 -2.94,10.04l0 9.64c0,4.51 1.01,7.91 3,10.14 1.99,2.29 4.96,3.4 8.95,3.4 1.96,0 3.71,-0.35 5.31,-1.03 1.54,-0.7 2.89,-1.65 4.01,-2.87 1.11,-1.22 1.99,-2.63 2.63,-4.22l6.93 12.1 -7.81 0c-0.74,3.61 -2.02,6.88 -3.82,9.8 -1.81,2.92 -4.33,5.23 -7.57,6.93 -3.24,1.7 -7.41,2.55 -12.51,2.55zm23.98 -1.91l0.8 -20.47 -0.48 -3.91 0 -31.38 0 -3.59 -0.32 -23.02 0 -22.7 28.04 0 0 105.07 -28.04 0z"/>
   <path class="fil3" d="M769.94 76.03c0.49,-0.5 0.47,-0.84 1.65,-1.51 1.5,-0.86 1.66,-0.7 3.21,-1.22l-4.86 2.73z"/>
   <g>
    <path class="fil0" d="M832.76 163.9l-63.54 0c-25.08,0 -45.6,20.52 -45.6,45.61l0 0c0,25.09 20.52,45.61 45.6,45.61l63.54 0c25.09,0 45.61,-20.52 45.61,-45.61l0 0c0,-25.09 -20.52,-45.61 -45.61,-45.61z"/>
    <path class="fil0" d="M760.37 84.12c-0.74,0.92 -1.47,1.85 -2.26,2.79 -1.15,-5.05 -2.98,-14.79 -3.32,-19.84 -1.25,-18.34 45.1,-29.69 66.76,-22.55 10.94,3.6 10.92,11.18 12.7,28.33 -8.54,-7.82 -19.91,-12.59 -32.4,-12.59 -13.24,0 -25.23,5.37 -33.91,14.05 -2.93,2.92 -5.47,6.22 -7.57,9.81z"/>
    <path class="fil0" d="M801.85 62.87c-25.05,0 -45.36,20.31 -45.36,45.36 0,25.05 20.31,45.36 45.36,45.36 14.03,0 26.56,-6.36 34.88,-16.36l-20.18 -19.19 30.43 -5.13c0.16,-1.54 0.24,-3.1 0.24,-4.68 0,-25.05 -20.31,-45.36 -45.37,-45.36z"/>
    <path class="fil0" d="M847.14 32.73c-5.81,3.77 -9.52,9.98 -14.5,14.09l-2.4 -1.44c-17.45,-11.7 -46.15,-6.7 -63.62,2.38 -4.64,2.42 -9.13,5.43 -12.22,9.64l-2.87 3.94c-3.72,-1.25 -6.9,-4.03 -10.64,-4.42 0.73,4.46 1.36,8.91 2.07,13.36 1.32,8.37 2.39,4.63 3.77,9.03 1.15,3.65 0.44,4.73 2.81,10.06 0.63,1.43 1.78,3.67 2.2,5 2.8,8.81 -12.92,6.46 -12.92,6.46 -1.76,-2.21 -1.22,-2.43 -0.69,-6.16 1.24,-8.86 0.44,-13.79 1.28,-17.17 1.01,-4.07 -0.76,-10.23 -1.47,-15.07 -1.39,-9.36 0.03,-6.05 -4.81,-10.5 14.57,-17.03 34.91,-36.03 50.39,-51.93 9.01,2.98 62.32,30.89 63.62,32.73z"/>
   </g>
   <path class="fil1" d="M881.71 198.14l75.54 0c25.09,0 45.61,20.52 45.61,45.6l0 0c0,25.09 -20.52,45.61 -45.61,45.61l-75.54 0c-25.08,0 -45.61,-20.52 -45.61,-45.61l0 0c0,-25.08 20.53,-45.6 45.61,-45.6z"/>
   <path class="fil1" d="M966.1 118.36c0.74,0.91 1.48,1.85 2.27,2.79 1.15,-5.06 2.97,-14.8 3.32,-19.84 1.25,-18.35 -45.11,-29.7 -66.76,-22.56 -10.94,3.61 -10.92,11.19 -12.7,28.34 8.54,-7.82 19.91,-12.59 32.39,-12.59 13.25,0 25.24,5.37 33.92,14.05 2.92,2.92 5.47,6.21 7.56,9.81z"/>
   <path class="fil1" d="M956.54 110.27c-0.49,-0.5 -0.47,-0.85 -1.65,-1.52 -1.5,-0.85 -1.67,-0.7 -3.22,-1.22l4.87 2.74z"/>
   <path class="fil1" d="M924.62 97.1c25.06,0 45.37,20.31 45.37,45.37 0,25.05 -20.31,45.35 -45.37,45.35 -22.05,0 -40.42,-15.73 -44.51,-36.59l29.05 -4.9 -25.21 -23.96c7.41,-14.97 22.84,-25.27 40.67,-25.27z"/>
   <path class="fil1" d="M879.33 66.96c5.82,3.77 9.53,9.98 14.51,14.09l2.4 -1.44c17.45,-11.7 46.14,-6.7 63.62,2.39 4.64,2.41 9.12,5.42 12.22,9.64l2.86 3.93c3.73,-1.25 6.91,-4.02 10.64,-4.41 -0.72,4.45 -1.36,8.91 -2.06,13.36 -1.33,8.36 -2.4,4.62 -3.78,9.02 -1.14,3.66 -0.44,4.73 -2.8,10.07 -0.63,1.42 -1.78,3.67 -2.2,4.99 -2.8,8.81 12.92,6.47 12.92,6.46 1.76,-2.2 1.22,-2.42 0.69,-6.16 -1.25,-8.85 -0.45,-13.78 -1.28,-17.17 -1.01,-4.06 0.76,-10.23 1.47,-15.06 1.38,-9.36 -0.03,-6.05 4.8,-10.51 -14.56,-17.02 -34.91,-36.02 -50.38,-51.93 -9.02,2.99 -62.32,30.89 -63.63,32.73z"/>
   <path class="fil1" d="M1036.79 212.08l49.24 23.35c-6.25,20.95 -21.13,43.56 -54.78,40.66 19.75,-12.33 20.53,-45.65 5.54,-64.01z"/>
   <g>
    <path class="fil4" d="M773.46 201.49c4.44,0 8.03,3.59 8.03,8.02 0,4.43 -3.59,8.03 -8.03,8.03 -4.43,0 -8.02,-3.6 -8.02,-8.03 0,-4.43 3.59,-8.02 8.02,-8.02z"/>
    <path class="fil4" d="M800.99 201.49c4.44,0 8.03,3.59 8.03,8.02 0,4.43 -3.59,8.03 -8.03,8.03 -4.43,0 -8.02,-3.6 -8.02,-8.03 0,-4.43 3.59,-8.02 8.02,-8.02z"/>
    <path class="fil4" d="M828.52 201.49c4.43,0 8.03,3.59 8.03,8.02 0,4.43 -3.6,8.03 -8.03,8.03 -4.43,0 -8.02,-3.6 -8.02,-8.03 0,-4.43 3.59,-8.02 8.02,-8.02z"/>
   </g>
   <g>
    <path class="fil2" d="M856.9 241.24c1.57,-0.04 2.86,-0.46 3.85,-1.27 0.99,-0.8 1.65,-1.91 1.98,-3.3 0.32,-1.41 0.5,-3.81 0.52,-7.21 0.01,-3.39 0.06,-5.63 0.15,-6.72 0.19,-1.71 0.53,-3.07 1.03,-4.12 0.49,-1.03 1.1,-1.86 1.83,-2.49 0.73,-0.61 1.67,-1.09 2.81,-1.41 0.77,-0.2 2.02,-0.31 3.77,-0.31l1.7 0 0 4.82 -0.94 0c-2.1,0 -3.48,0.38 -4.17,1.14 -0.68,0.77 -1.02,2.47 -1.02,5.11 0,5.33 -0.12,8.7 -0.35,10.1 -0.36,2.18 -1,3.86 -1.88,5.04 -0.9,1.18 -2.3,2.23 -4.21,3.14 2.26,0.93 3.9,2.36 4.92,4.28 1.01,1.92 1.52,5.06 1.52,9.43 0,3.96 0.02,6.32 0.06,7.07 0.17,1.39 0.57,2.35 1.23,2.9 0.67,0.55 1.96,0.82 3.89,0.82l0.95 0 0 4.82 -1.71 0c-1.99,0 -3.44,-0.17 -4.34,-0.49 -1.29,-0.47 -2.37,-1.22 -3.23,-2.28 -0.85,-1.04 -1.41,-2.36 -1.66,-3.97 -0.26,-1.6 -0.39,-4.24 -0.41,-7.9 -0.02,-3.66 -0.2,-6.19 -0.53,-7.59 -0.32,-1.4 -0.96,-2.51 -1.94,-3.32 -0.99,-0.82 -2.26,-1.24 -3.82,-1.28l0 -5.01zm125.16 0l0 5.01c-1.58,0.04 -2.86,0.46 -3.85,1.28 -0.99,0.81 -1.66,1.92 -1.98,3.3 -0.32,1.4 -0.5,3.79 -0.52,7.18 -0.01,3.4 -0.06,5.63 -0.16,6.72 -0.18,1.72 -0.52,3.09 -1.02,4.12 -0.5,1.03 -1.11,1.85 -1.85,2.48 -0.73,0.61 -1.67,1.09 -2.82,1.41 -0.77,0.22 -2.03,0.34 -3.79,0.34l-1.71 0 0 -4.82 0.95 0c2.11,0 3.51,-0.38 4.21,-1.14 0.69,-0.77 1.03,-2.48 1.03,-5.13 0,-5.09 0.08,-8.3 0.25,-9.67 0.32,-2.25 0.98,-4.05 1.96,-5.41 0.99,-1.35 2.38,-2.39 4.18,-3.15 -2.37,-1.12 -4.04,-2.6 -5,-4.43 -0.97,-1.85 -1.45,-4.96 -1.45,-9.33 0,-3.96 -0.02,-6.34 -0.07,-7.11 -0.14,-1.36 -0.54,-2.32 -1.21,-2.85 -0.66,-0.54 -1.96,-0.81 -3.9,-0.81l-0.95 0 0 -4.82 1.71 0c1.99,0 3.44,0.17 4.33,0.49 1.31,0.45 2.38,1.2 3.24,2.26 0.85,1.06 1.4,2.39 1.65,4 0.26,1.6 0.4,4.24 0.42,7.91 0.02,3.66 0.2,6.19 0.52,7.58 0.32,1.39 0.99,2.5 1.98,3.31 0.99,0.81 2.27,1.24 3.85,1.28z"/>
    <path class="fil4" d="M891.95 235.72c4.43,0 8.03,3.59 8.03,8.02 0,4.44 -3.6,8.03 -8.03,8.03 -4.43,0 -8.02,-3.59 -8.02,-8.03 0,-4.43 3.59,-8.02 8.02,-8.02z"/>
    <path class="fil4" d="M919.48 235.72c4.43,0 8.03,3.59 8.03,8.02 0,4.44 -3.6,8.03 -8.03,8.03 -4.43,0 -8.02,-3.59 -8.02,-8.03 0,-4.43 3.59,-8.02 8.02,-8.02z"/>
    <path class="fil4" d="M947.01 235.72c4.43,0 8.02,3.59 8.02,8.02 0,4.44 -3.59,8.03 -8.02,8.03 -4.43,0 -8.02,-3.59 -8.02,-8.03 0,-4.43 3.59,-8.02 8.02,-8.02z"/>
   </g>
   <path class="fil5" d="M101.94 197.85c-16.02,0 -27.92,-3.93 -35.65,-11.79 -7.75,-7.86 -11.65,-19.09 -11.65,-33.69l0 -16.09c0,-14.34 3.92,-25.42 11.74,-33.2 7.78,-7.75 19.54,-11.65 35.22,-11.65 4.03,0 7.76,0.26 11.14,0.79 3.39,0.53 6.47,1.28 9.27,2.18 2.8,0.96 5.29,2.02 7.48,3.24l2.18 24.3c-3.24,-1.49 -6.75,-2.79 -10.53,-3.88 -3.78,-1.09 -8.12,-1.62 -12.99,-1.62 -7.78,0 -13.47,1.86 -17.05,5.58 -3.58,3.71 -5.38,8.89 -5.38,15.53l0 13.62c0,6.59 1.82,11.74 5.46,15.48 3.64,3.77 9.69,5.63 18.15,5.63 4.7,0 8.93,-0.56 12.68,-1.72 3.75,-1.12 7.25,-2.5 10.5,-4.09l-2.18 24.77c-2.13,1.22 -4.62,2.34 -7.51,3.35 -2.88,1.01 -6.07,1.8 -9.54,2.39 -3.48,0.58 -7.26,0.87 -11.34,0.87zm80.38 0.08c-13.83,0 -24.27,-3.21 -31.27,-9.61 -7.03,-6.4 -10.56,-15.27 -10.56,-26.63l0 -9.96c0,-11.63 3.53,-20.71 10.59,-27.24 7.05,-6.54 17.47,-9.8 31.24,-9.8 13.83,0 24.28,3.26 31.31,9.8 7,6.53 10.52,15.61 10.52,27.24l0 9.96c0,11.36 -3.5,20.23 -10.5,26.63 -6.99,6.4 -17.44,9.61 -31.33,9.61zm0 -22.14c3.98,0 6.97,-1.14 9.05,-3.4 2.04,-2.23 3.05,-5.47 3.05,-9.67l0 -12.11c0,-4.51 -1.01,-7.93 -3.05,-10.27 -2.08,-2.34 -5.07,-3.51 -9.05,-3.51 -3.92,0 -6.91,1.17 -8.99,3.51 -2.07,2.34 -3.1,5.76 -3.1,10.27l0 12.11c0,4.2 1.03,7.44 3.1,9.67 2.08,2.26 5.07,3.4 8.99,3.4zm106.93 19.75l0 -45.09c0,-2.49 -0.31,-4.64 -0.95,-6.45 -0.64,-1.8 -1.76,-3.18 -3.33,-4.14 -1.57,-0.96 -3.7,-1.43 -6.39,-1.43 -2.07,0 -3.92,0.34 -5.54,1.03 -1.62,0.69 -2.99,1.59 -4.14,2.74 -1.15,1.16 -2.07,2.44 -2.75,3.87l-4.53 -11.63 4.78 0c0.84,-3.66 2.27,-6.96 4.26,-9.85 1.96,-2.89 4.73,-5.18 8.32,-6.88 3.52,-1.7 8.09,-2.55 13.63,-2.55 6.05,0 11.03,1.12 14.93,3.35 3.89,2.23 6.77,5.58 8.65,10.07 1.85,4.48 2.8,10.16 2.8,17.02l0 49.94 -29.74 0zm-52.5 0l0 -78.46 29.57 0 -0.92 20.15 1.09 2.87 0 55.44 -29.74 0zm149.6 0l0 -45.09c0,-2.49 -0.3,-4.64 -0.95,-6.45 -0.64,-1.8 -1.76,-3.18 -3.33,-4.14 -1.57,-0.96 -3.7,-1.43 -6.38,-1.43 -2.07,0 -3.92,0.34 -5.55,1.03 -1.62,0.69 -2.99,1.59 -4.14,2.74 -1.15,1.16 -2.07,2.44 -2.75,3.87l-4.53 -11.63 4.79 0c0.84,-3.66 2.26,-6.96 4.25,-9.85 1.96,-2.89 4.73,-5.18 8.32,-6.88 3.52,-1.7 8.09,-2.55 13.63,-2.55 6.05,0 11.04,1.12 14.93,3.35 3.89,2.23 6.77,5.58 8.65,10.07 1.85,4.48 2.8,10.16 2.8,17.02l0 49.94 -29.74 0zm-52.49 0l0 -78.46 29.56 0 -0.92 20.15 1.09 2.87 0 55.44 -29.73 0zm140.27 2.07c-15.84,0 -27.49,-3.26 -34.89,-9.79 -7.41,-6.54 -11.14,-16.1 -11.14,-28.68l0 -6.14c0,-12.48 3.5,-21.98 10.47,-28.51 6.95,-6.54 17.14,-9.8 30.52,-9.8 8.9,0 16.33,1.38 22.26,4.17 5.94,2.78 10.42,6.79 13.41,12.02 3,5.24 4.48,11.56 4.48,18.94l0 2.47c0,2.12 -0.08,4.27 -0.28,6.48 -0.19,2.2 -0.5,4.25 -0.89,6.1l-26.63 0c0.22,-3.24 0.39,-6.29 0.48,-9.16 0.08,-2.87 0.11,-5.44 0.11,-7.72 0,-2.77 -0.45,-5.08 -1.34,-6.99 -0.9,-1.88 -2.3,-3.32 -4.2,-4.3 -1.91,-0.98 -4.37,-1.46 -7.4,-1.46 -4.53,0 -7.81,1.11 -9.85,3.35 -2.05,2.23 -3.08,5.38 -3.08,9.47l0 7.09 0.17 3.03 0 4.94c0,1.65 0.3,3.24 0.92,4.78 0.61,1.54 1.76,2.92 3.42,4.09 1.65,1.22 4,2.15 7.05,2.84 3.02,0.69 7,1.04 11.87,1.04 4.99,0 9.86,-0.4 14.62,-1.17 4.76,-0.74 9.35,-1.83 13.77,-3.21l-2.35 20.47c-3.86,1.8 -8.45,3.21 -13.8,4.19 -5.35,0.96 -11.26,1.46 -17.7,1.46zm-30.32 -32.74l0 -16.57 58.29 0 0 16.57 -58.29 0zm114.82 32.82c-13.49,0 -23.49,-3.34 -29.98,-10.03 -6.5,-6.69 -9.75,-16.12 -9.75,-28.28l0 -6.77c0,-11.79 3.25,-21.03 9.75,-27.73 6.49,-6.69 16.46,-10.03 29.9,-10.03 3.3,0 6.44,0.18 9.41,0.58 2.97,0.4 5.71,0.96 8.23,1.67 2.52,0.72 4.76,1.54 6.72,2.45l2.35 23.02c-2.74,-1.33 -5.71,-2.45 -8.9,-3.32 -3.19,-0.88 -6.75,-1.3 -10.67,-1.3 -6.05,0 -10.36,1.3 -12.96,3.9 -2.61,2.6 -3.92,6.35 -3.92,11.23l0 5.18c0,5.1 1.43,9 4.28,11.74 2.86,2.76 7.34,4.11 13.44,4.11 3.81,0 7.28,-0.39 10.39,-1.19 3.11,-0.8 6.16,-1.86 9.18,-3.19l-2.26 23.1c-3.09,1.44 -6.81,2.61 -11.18,3.51 -4.37,0.9 -9.04,1.35 -14.03,1.35zm74.6 -0.31c-7.67,0 -13.78,-1.12 -18.26,-3.32 -4.51,-2.21 -7.73,-5.47 -9.66,-9.83 -1.96,-4.35 -2.91,-9.72 -2.91,-16.09l0 -42.06 29.48 0 0 37.28c0,3.4 0.82,5.89 2.44,7.43 1.62,1.6 4.82,2.37 9.57,2.37 2.58,0 5.16,-0.27 7.7,-0.85 2.55,-0.53 4.85,-1.2 6.92,-1.94l-2.52 23.1c-2.91,1.17 -6.27,2.13 -10.08,2.84 -3.81,0.69 -8.04,1.07 -12.68,1.07zm-41.16 -58.24l0 -22.06 65.6 0 -2.52 22.06 -63.08 0zm10.75 -20.15l-0.08 -19.68 29.31 -2.47 -1.01 22.15 -28.22 0z"/>
  </g>
 </g>
</svg>
