<?xml version="1.0" encoding="UTF-8"?>
<!DOCTYPE svg PUBLIC "-//W3C//DTD SVG 1.1//EN" "http://www.w3.org/Graphics/SVG/1.1/DTD/svg11.dtd">
<!-- Creator: CorelDRAW -->
<svg xmlns="http://www.w3.org/2000/svg" xml:space="preserve" width="525px" height="525px" version="1.1" style="shape-rendering:geometricPrecision; text-rendering:geometricPrecision; image-rendering:optimizeQuality; fill-rule:evenodd; clip-rule:evenodd"
viewBox="0 0 243.09 243.09"
 xmlns:xlink="http://www.w3.org/1999/xlink"
 xmlns:xodm="http://www.corel.com/coreldraw/odm/2003">
 <defs>
  <style type="text/css">
   <![CDATA[
    .str0 {stroke:#133E86;stroke-width:7.72;stroke-miterlimit:22.9256}
    .str1 {stroke:#FEFEFE;stroke-width:15.14;stroke-linecap:round;stroke-linejoin:round;stroke-miterlimit:22.9256}
    .str2 {stroke:#FEFEFE;stroke-width:15.14;stroke-linecap:round;stroke-linejoin:round;stroke-miterlimit:22.9256}
    .fil1 {fill:none}
    .fil0 {fill:#FEFEFE}
    .fil2 {fill:#09B0EE}
    .fil3 {fill:#133E86}
   ]]>
  </style>
 </defs>
 <g id="Layer_x0020_1">
  <metadata id="CorelCorpID_0Corel-Layer"/>
  <path class="fil0 str0" d="M121.55 3.86c64.99,0 117.68,52.69 117.68,117.69 0,64.99 -52.69,117.68 -117.68,117.68 -65,0 -117.69,-52.69 -117.69,-117.68 0,-65 52.69,-117.69 117.69,-117.69z"/>
  <g id="_2192969154544">
   <g>
    <g>
     <path class="fil1 str1" d="M98.41 101.74c7.42,-9.27 25.96,-12.89 39.71,-6.58 10.88,5 22.09,13.87 34.33,19.17l-0.19 -33.18c-4.1,-3.49 -24.51,-14.64 -28.93,-16.35 -5.64,4.64 -9.77,8.89 -19.12,9.02 -8.35,0.11 -15.27,-3.18 -18.62,-8.67 -4.37,1.33 -21.55,10.97 -25.92,14.13 -8.73,6.3 -11.54,19.78 -7.78,30.65 3.61,10.43 41.54,29.81 46.05,31.16 -0.01,-38.29 2.91,-25.31 -19.53,-39.35z"/>
     <path id="_1" class="fil2" d="M98.41 101.74c7.42,-9.27 25.96,-12.89 39.71,-6.58 10.88,5 22.09,13.87 34.33,19.17l-0.19 -33.18c-4.1,-3.49 -24.51,-14.64 -28.93,-16.35 -5.64,4.64 -9.77,8.89 -19.12,9.02 -8.35,0.11 -15.27,-3.18 -18.62,-8.67 -4.37,1.33 -21.55,10.97 -25.92,14.13 -8.73,6.3 -11.54,19.78 -7.78,30.65 3.61,10.43 41.54,29.81 46.05,31.16 -0.01,-38.29 2.91,-25.31 -19.53,-39.35z"/>
    </g>
    <g>
     <path class="fil1 str1" d="M104.04 54.67c6.58,23.7 44.12,16.6 39.14,-9.94 -1.8,-9.61 -11.3,-17.97 -24.68,-15.02 -9.25,2.04 -17.82,12.89 -14.46,24.96z"/>
     <path id="_1_0" class="fil2" d="M104.04 54.67c6.58,23.7 44.12,16.6 39.14,-9.94 -1.8,-9.61 -11.3,-17.97 -24.68,-15.02 -9.25,2.04 -17.82,12.89 -14.46,24.96z"/>
    </g>
   </g>
   <g>
    <g>
     <path class="fil1 str2" d="M144.68 141.35c-7.42,9.28 -25.95,12.89 -39.7,6.58 -10.89,-4.99 -22.1,-13.87 -34.34,-19.17l0.19 33.18c4.1,3.49 24.51,14.64 28.93,16.36 5.64,-4.65 9.77,-8.9 19.13,-9.03 8.34,-0.11 15.26,3.18 18.61,8.67 4.37,-1.33 21.55,-10.97 25.93,-14.13 8.72,-6.3 11.53,-19.78 7.77,-30.65 -3.6,-10.43 -41.53,-29.81 -46.05,-31.16 0.01,38.29 -2.91,25.31 19.53,39.35z"/>
     <path id="_1_1" class="fil3" d="M144.68 141.35c-7.42,9.28 -25.95,12.89 -39.7,6.58 -10.89,-4.99 -22.1,-13.87 -34.34,-19.17l0.19 33.18c4.1,3.49 24.51,14.64 28.93,16.36 5.64,-4.65 9.77,-8.9 19.13,-9.03 8.34,-0.11 15.26,3.18 18.61,8.67 4.37,-1.33 21.55,-10.97 25.93,-14.13 8.72,-6.3 11.53,-19.78 7.77,-30.65 -3.6,-10.43 -41.53,-29.81 -46.05,-31.16 0.01,38.29 -2.91,25.31 19.53,39.35z"/>
    </g>
    <g>
     <path class="fil1 str2" d="M139.06 188.42c-6.59,-23.7 -44.13,-16.6 -39.15,9.94 1.8,9.61 11.3,17.97 24.69,15.02 9.24,-2.04 17.81,-12.89 14.46,-24.96z"/>
     <path id="_1_2" class="fil3" d="M139.06 188.42c-6.59,-23.7 -44.13,-16.6 -39.15,9.94 1.8,9.61 11.3,17.97 24.69,15.02 9.24,-2.04 17.81,-12.89 14.46,-24.96z"/>
    </g>
   </g>
  </g>
 </g>
</svg>
