<?xml version="1.0" encoding="UTF-8"?>
<!DOCTYPE svg PUBLIC "-//W3C//DTD SVG 1.1//EN" "http://www.w3.org/Graphics/SVG/1.1/DTD/svg11.dtd">
<!-- Creator: CorelDRAW -->
<svg xmlns="http://www.w3.org/2000/svg" xml:space="preserve" width="1613px" height="343px" version="1.1" style="shape-rendering:geometricPrecision; text-rendering:geometricPrecision; image-rendering:optimizeQuality; fill-rule:evenodd; clip-rule:evenodd"
viewBox="0 0 1617.69 343.9"
 xmlns:xlink="http://www.w3.org/1999/xlink"
 xmlns:xodm="http://www.corel.com/coreldraw/odm/2003">
 <defs>
  <style type="text/css">
   <![CDATA[
    .fil0 {fill:#FEFEFE;fill-rule:nonzero}
    .fil1 {fill:#0AADEE;fill-rule:nonzero}
   ]]>
  </style>
 </defs>
 <g id="Layer_x0020_1">
  <metadata id="CorelCorpID_0Corel-Layer"/>
  <g id="_2192712897808">
   <path class="fil0" d="M7.92 216.6c-5.28,-11.84 -7.92,-24.22 -7.92,-37.25 0,-12.97 2.64,-25.35 7.92,-37.19 5.33,-11.84 12.48,-21.99 21.46,-30.55 9.03,-8.52 19.73,-15.34 32.16,-20.4 12.39,-5.05 25.4,-7.6 39.03,-7.6 13.69,0 26.65,2.5 38.89,7.51 12.19,5.05 23.14,11.97 32.69,20.76 2.07,1.96 3.07,4.46 3.07,7.47 0,3 -1,5.51 -3.07,7.47 -2.16,2.04 -4.8,3.09 -7.87,3.09 -3.12,0 -5.86,-1.05 -8.31,-3.09 -7.24,-6.65 -15.6,-11.93 -25.2,-15.76 -9.55,-3.78 -19.63,-5.69 -30.2,-5.69 -14.06,0 -27.12,3.28 -39.17,9.83 -12.05,6.61 -21.6,15.58 -28.66,26.96 -7.01,11.38 -10.51,23.81 -10.51,37.19 0,13.44 3.5,25.86 10.51,37.25 7.06,11.38 16.61,20.35 28.66,26.95 12.05,6.56 25.11,9.83 39.17,9.83 10.66,0 20.79,-1.86 30.34,-5.64 9.61,-3.78 17.91,-9.06 25.06,-15.8 2.16,-2.05 4.9,-3.1 8.31,-3.1 3.36,0 6,1.05 7.87,3.1 2.07,2.23 3.07,4.78 3.07,7.65 0,2.91 -1,5.33 -3.07,7.28 -9.41,8.88 -20.21,15.85 -32.5,20.81 -12.29,4.96 -25.3,7.47 -39.08,7.47 -13.63,0 -26.64,-2.55 -39.03,-7.61 -12.43,-5.05 -23.13,-11.88 -32.16,-20.39 -8.98,-8.56 -16.13,-18.72 -21.46,-30.55zm525.93 -175.88c6.28,2.53 10.89,7.65 16.41,10.62l2.13 -1.73c15.31,-13.68 44.23,-13.8 62.79,-8.3 4.93,1.46 9.8,3.5 13.49,6.88l3.42 3.16c3.46,-1.77 6.15,-4.85 9.75,-5.83 -0.02,4.23 0.05,8.45 0.05,12.68 0,7.94 -1.63,4.66 -2.3,8.95 -0.55,3.57 0.3,4.44 -1.19,9.76 -0.4,1.42 -1.18,3.68 -1.38,4.97 -1.38,8.6 13.68,3.84 13.68,3.84 1.38,-2.33 0.82,-2.44 -0.28,-5.81 -2.6,-7.97 -2.58,-12.65 -3.93,-15.64 -1.62,-3.59 -0.84,-9.57 -0.89,-14.15 -0.1,-8.87 -0.98,-5.58 3.08,-10.49 -17.62,-13.85 -38.96,-26.9 -57.5,-39.63 -8.6,4.35 -56.06,38.28 -57.33,40.72zm95.58 35.13c0.33,-4.91 0.8,-14.02 0.36,-18.66 -1.63,-17.15 -48.87,-19.98 -69,-9.81 -10.13,5.11 -8.99,12.07 -8.07,28.07 -3,5.86 -4.7,12.51 -4.7,19.56 0,18.09 11.19,33.58 27.03,39.9 -2.73,0.72 -5.42,1.62 -8.08,2.7 -8.11,3.32 -15.12,7.69 -20.98,13.2 -5.85,5.55 -10.51,12.11 -13.97,19.76 -3.5,7.65 -5.23,15.66 -5.23,23.99l0 70.57c0,2.87 1.01,5.24 3.02,7.15 2.02,1.91 4.52,2.87 7.4,2.87 2.83,0 5.23,-0.96 7.2,-2.92 1.97,-1.95 2.93,-4.32 2.93,-7.1l0 -70.57c0,-11.52 4.41,-21.49 13.2,-29.77 8.83,-8.34 19.44,-12.48 31.83,-12.48 12.1,0 22.47,4.14 31.11,12.48 8.69,8.28 13.01,18.25 13.01,29.77l0 70.57c0,2.78 1.05,5.15 3.16,7.1 2.12,1.96 4.61,2.92 7.4,2.92 2.83,0 5.28,-0.96 7.39,-2.92 2.11,-1.95 3.17,-4.32 3.17,-7.1l0 -70.57c0,-11.2 -2.93,-21.53 -8.79,-31.05 -5.85,-9.51 -13.82,-17.03 -23.86,-22.54 -5.41,-2.97 -11.06,-5.14 -16.95,-6.52 15.25,-6.59 25.92,-21.77 25.92,-39.44 0,-6.89 -1.62,-13.4 -4.5,-19.16zm-139.86 -35.13c-6.28,2.53 -10.89,7.65 -16.41,10.62l-2.13 -1.73c-15.31,-13.68 -44.24,-13.8 -62.79,-8.3 -4.93,1.46 -9.8,3.5 -13.49,6.88l-3.42 3.16c-3.46,-1.77 -6.15,-4.85 -9.75,-5.83 0.02,4.23 -0.05,8.45 -0.05,12.68 0,7.94 1.63,4.66 2.3,8.95 0.55,3.57 -0.3,4.44 1.19,9.76 0.39,1.42 1.17,3.68 1.38,4.97 1.38,8.6 -13.68,3.84 -13.68,3.84 -1.38,-2.33 -0.82,-2.44 0.28,-5.81 2.6,-7.97 2.58,-12.65 3.93,-15.64 1.62,-3.59 0.84,-9.57 0.89,-14.15 0.1,-8.87 0.97,-5.58 -3.08,-10.49 17.62,-13.85 38.96,-26.9 57.5,-39.63 8.6,4.35 56.06,38.28 57.33,40.72zm-95.61 34.65c-0.33,-5 -0.75,-13.68 -0.33,-18.18 1.63,-17.15 48.87,-19.98 69,-9.81 10.23,5.17 8.96,12.22 8.04,28.55 2.85,5.75 4.46,12.22 4.46,19.08 0,17.77 -10.79,33.02 -26.18,39.55 5.73,1.38 11.23,3.52 16.5,6.41 10.03,5.51 18,13.03 23.86,22.54 5.86,9.52 8.78,19.85 8.78,31.05 0,29 -0.29,58.01 -0.29,86.97 0,5.74 0.99,11.04 2.97,15.9 1.98,4.86 4.96,9.29 8.94,13.3 3.98,4 8.37,7 13.18,9 4.8,1.99 10.03,3 15.68,3 5.51,0 10.65,-1.01 15.39,-3.02 4.73,-2.01 9.08,-5.03 13.03,-9.06 3.99,-4.02 6.97,-8.46 8.95,-13.3 1.98,-4.84 2.96,-10.11 2.96,-15.82l0 -69.54c0,-1.44 0.26,-2.79 0.76,-4.05 0.5,-1.26 1.25,-2.42 2.23,-3.49 0.99,-1.07 2.1,-1.89 3.31,-2.43 1.22,-0.55 2.55,-0.83 3.96,-0.83 1.42,0 2.76,0.28 4.01,0.82 1.25,0.54 2.39,1.35 3.45,2.42 1.05,1.07 1.85,2.23 2.38,3.49 0.54,1.27 0.81,2.62 0.81,4.07l0 69.54c0,4.17 -0.41,8.29 -1.23,12.34 -0.81,4.04 -2.02,7.99 -3.64,11.83 -1.64,3.84 -3.54,7.42 -5.72,10.74 -2.18,3.32 -4.63,6.39 -7.39,9.18 -2.72,2.78 -5.7,5.29 -8.96,7.51 -3.25,2.23 -6.76,4.17 -10.54,5.83 -3.79,1.65 -7.66,2.88 -11.62,3.71 -3.97,0.82 -8.02,1.23 -12.14,1.23 -8.43,0 -16.29,-1.53 -23.54,-4.59 -7.25,-3.06 -13.88,-7.64 -19.89,-13.73 -6.03,-6.12 -10.56,-12.85 -13.58,-20.19 -3.02,-7.35 -4.53,-15.3 -4.53,-23.86 0,-28.99 -0.06,-57.98 -0.06,-86.97 0,-11.52 -4.32,-21.49 -13.01,-29.77 -8.64,-8.34 -19.01,-12.48 -31.11,-12.48 -12.38,0 -22.99,4.14 -31.82,12.48 -8.79,8.28 -13.21,18.25 -13.21,29.77l0 70.57c0,2.78 -0.96,5.15 -2.93,7.1 -1.96,1.96 -4.36,2.92 -7.2,2.92 -2.88,0 -5.37,-0.96 -7.39,-2.87 -2.02,-1.91 -3.02,-4.28 -3.02,-7.15l0 -70.57c0,-8.33 1.72,-16.34 5.23,-23.99 3.45,-7.65 8.11,-14.21 13.97,-19.76 5.86,-5.51 12.86,-9.88 20.98,-13.2 2.8,-1.13 5.63,-2.07 8.51,-2.81 -15.69,-6.4 -26.75,-21.8 -26.75,-39.79 0,-7.08 1.71,-13.75 4.74,-19.64zm-194.98 156.3c-3.99,-8.79 -5.96,-18.08 -5.96,-27.73 0,-9.7 1.97,-18.94 5.96,-27.77 3.98,-8.79 9.31,-16.39 16.03,-22.72 6.72,-6.37 14.69,-11.43 24,-15.16 9.27,-3.73 18.97,-5.6 29.1,-5.6 10.13,0 19.82,1.87 29.14,5.6 9.26,3.73 17.23,8.79 23.9,15.16 6.63,6.33 11.96,13.93 15.94,22.72 3.99,8.83 6,18.07 6,27.77 0,9.65 -2.01,18.94 -6,27.73 -3.98,8.78 -9.31,16.39 -15.94,22.72 -6.67,6.37 -14.64,11.42 -23.9,15.16 -9.32,3.73 -19.01,5.6 -29.14,5.6 -10.13,0 -19.83,-1.87 -29.1,-5.6 -9.31,-3.74 -17.28,-8.79 -24,-15.16 -6.72,-6.33 -12.05,-13.94 -16.03,-22.72zm123.57 -27.78c0,-14.38 -5.29,-26.63 -15.9,-36.74 -10.61,-10.06 -23.42,-15.11 -38.54,-15.11 -15.08,0 -27.94,5.05 -38.55,15.11 -10.57,10.11 -15.89,22.36 -15.89,36.74 0,14.25 5.32,26.41 15.98,36.52 10.66,10.06 23.48,15.11 38.46,15.11 15.02,0 27.84,-5.05 38.45,-15.11 10.66,-10.11 15.99,-22.27 15.99,-36.52zm381.23 50.31c-14.74,-13.97 -22.08,-30.73 -22.08,-50.31 0,-19.53 7.34,-36.28 22.08,-50.26 14.69,-13.98 32.36,-20.94 53,-20.94 9.55,0 18.77,1.68 27.55,5.05 8.84,3.42 16.52,7.97 23.1,13.75 6.57,5.78 11.9,12.7 16.08,20.76 4.18,8.06 6.57,16.57 7.25,25.54 1.05,4.28 0.62,7.61 -1.25,9.97 -1.87,2.42 -5.28,3.65 -10.13,3.65l-115.74 0c1.58,12.52 7.44,22.99 17.61,31.46 10.18,8.46 22.04,12.65 35.53,12.65 14.83,0 27.55,-5.05 38.26,-15.2 2.26,-1.87 4.71,-2.78 7.3,-2.78 3.12,0 5.52,0.91 7.2,2.78 2.16,2.05 3.22,4.41 3.22,7.1 0,2.64 -1.06,4.96 -3.22,6.92 -6.96,6.56 -14.93,11.7 -24,15.34 -9.03,3.64 -18.63,5.47 -28.76,5.47 -20.64,0 -38.31,-6.97 -53,-20.95zm105.76 -57.36c-1.35,-12.52 -7.06,-23.09 -17.24,-31.69 -10.17,-8.56 -22.03,-12.84 -35.52,-12.84 -13.49,0 -25.35,4.28 -35.53,12.84 -10.17,8.6 -16.03,19.17 -17.61,31.69l105.9 0zm114.63 78.31c-20.65,0 -38.31,-6.97 -53,-20.95 -14.74,-13.97 -22.09,-30.73 -22.09,-50.31 0,-19.53 7.35,-36.28 22.09,-50.26 14.69,-13.98 32.35,-20.94 53,-20.94 20.45,0 38.11,6.92 53.04,20.8 1.97,1.87 2.93,4.15 2.93,6.88 0,2.73 -0.96,5.1 -2.93,7.15 -2.25,1.86 -4.65,2.78 -7.2,2.78 -3.17,0 -5.71,-1.01 -7.58,-3.06 -10.8,-9.97 -23.52,-14.93 -38.26,-14.93 -14.98,0 -27.8,5.06 -38.46,15.12 -10.65,10.1 -15.98,22.26 -15.98,36.46 0,14.25 5.33,26.41 15.98,36.52 10.66,10.06 23.48,15.11 38.46,15.11 14.83,0 27.55,-5.05 38.26,-15.2 2.26,-1.87 4.8,-2.78 7.58,-2.78 2.84,0 5.24,0.91 7.2,2.78 1.97,2.05 2.93,4.37 2.93,7.01 0,2.64 -0.96,4.96 -2.93,7.01 -14.93,13.89 -32.59,20.81 -53.04,20.81zm105.12 -181.94c0,-2.68 1.01,-4.96 3.07,-6.82 2.07,-1.87 4.52,-2.78 7.3,-2.78 2.93,0 5.42,0.91 7.49,2.78 2.06,1.86 3.07,4.14 3.07,6.82l0 39.48 26.6 0c2.97,0 5.47,0.91 7.44,2.73 1.97,1.82 2.97,4.1 2.97,6.88 0,2.68 -1,4.96 -3.02,6.87 -2.02,1.91 -4.51,2.87 -7.39,2.87l-26.6 0 0 113.5c0,2.78 -1.01,5.1 -3.02,7.01 -2.02,1.91 -4.52,2.87 -7.54,2.87 -2.78,0 -5.23,-0.96 -7.3,-2.87 -2.06,-1.91 -3.07,-4.23 -3.07,-7.01l0 -113.5 -26.59 0c-2.84,0 -5.19,-0.96 -7.21,-2.87 -1.97,-1.91 -2.92,-4.19 -2.92,-6.87 0,-2.78 0.95,-5.06 2.92,-6.88 2.02,-1.82 4.37,-2.73 7.21,-2.73l26.59 0 0 -39.48z"/>
   <path class="fil1" d="M1214.1 226.52c0,-50.26 -79.21,-68.56 -79.21,-94.24 0,-14.75 14.98,-20.22 28.52,-20.22 14.4,0 27.94,4.92 40.61,10.66l0 -30.33c-12.67,-4.37 -25.92,-7.1 -39.46,-7.1 -31.97,0 -64.52,13.66 -64.52,48.08 0,48.35 78.92,60.1 78.92,95.06 0,15.85 -17.57,22.95 -31.97,22.95 -16.42,0 -31.97,-6.28 -46.66,-12.84l0 31.69c14.4,4.92 29.67,8.47 45.22,8.47 33.99,0 68.55,-16.12 68.55,-52.18zm111.78 45.62l0 -31.41c-11.24,4.91 -23.05,9.56 -35.72,9.56 -14.98,0 -15.55,-13.39 -15.55,-24.31l0 -51.36 44.64 0 0 -29.5 -44.64 0 0 -38.79 -36.01 0 0 115c0,36.06 6.91,58.19 49.54,58.19 13.25,0 25.64,-2.73 37.74,-7.38zm137.41 -1.09l0 -125.93 -36.01 0 0 102.44c-6.62,1.09 -13.25,1.91 -19.59,1.91 -25.05,0 -31.97,-20.22 -31.97,-40.16l0 -64.19 -36 0 0 65.28c-0.29,42.07 18.72,68.02 65.67,68.02 19.88,0 38.89,-3.27 57.9,-7.37zm154.4 0.54l0 -205.42 -36.29 0 0 89.33c-10.08,-9.29 -21.32,-13.11 -34.86,-13.11 -39.75,0 -57.6,32.23 -57.6,65.83 0,43.43 28.51,69.39 74.02,69.39 18.44,0 36.58,-3.28 54.73,-6.02zm-36.58 -24.58c-6.63,0.82 -12.67,1.64 -19.01,1.64 -26.5,0 -37.74,-18.03 -37.74,-41.25 0,-16.94 6.92,-36.6 27.95,-36.6 18.43,0 28.8,17.75 28.8,33.32l0 42.89z"/>
  </g>
 </g>
</svg>
