<?xml version="1.0" encoding="UTF-8"?>
<!DOCTYPE svg PUBLIC "-//W3C//DTD SVG 1.1//EN" "http://www.w3.org/Graphics/SVG/1.1/DTD/svg11.dtd">
<!-- Creator: CorelDRAW -->
<svg xmlns="http://www.w3.org/2000/svg" xml:space="preserve" width="739px" height="129px" version="1.1" style="shape-rendering:geometricPrecision; text-rendering:geometricPrecision; image-rendering:optimizeQuality; fill-rule:evenodd; clip-rule:evenodd"
viewBox="0 0 581.18 101.29"
 xmlns:xlink="http://www.w3.org/1999/xlink"
 xmlns:xodm="http://www.corel.com/coreldraw/odm/2003">
 <defs>
  <style type="text/css">
   <![CDATA[
    .fil1 {fill:#91D8F7}
    .fil0 {fill:#00AFEF}
    .fil2 {fill:#91D8F7;fill-rule:nonzero}
    .fil3 {fill:#00AFEF;fill-rule:nonzero}
   ]]>
  </style>
 </defs>
 <g id="Layer_x0020_1">
  <metadata id="CorelCorpID_0Corel-Layer"/>
  <g id="_2192960130688">
   <g>
    <g>
     <path class="fil0" d="M369.04 39.8c4.06,-5.09 14.22,-7.07 21.76,-3.61 5.96,2.74 12.1,7.6 18.81,10.5l-0.11 -18.18c-2.24,-1.91 -13.43,-8.02 -15.85,-8.96 -3.09,2.55 -5.35,4.88 -10.48,4.95 -4.57,0.06 -8.36,-1.75 -10.2,-4.75 -2.39,0.73 -11.8,6.01 -14.2,7.74 -4.78,3.45 -6.32,10.84 -4.26,16.8 1.97,5.71 22.76,16.32 25.23,17.07 -0.01,-20.98 1.59,-13.87 -10.7,-21.56z"/>
     <path class="fil0" d="M372.12 14.01c3.61,12.98 24.18,9.09 21.45,-5.45 -0.99,-5.27 -6.19,-9.85 -13.52,-8.23 -5.07,1.12 -9.77,7.06 -7.93,13.68z"/>
    </g>
    <g>
     <path class="fil1" d="M394.39 61.5c-4.06,5.08 -14.22,7.06 -21.75,3.6 -5.97,-2.73 -12.11,-7.6 -18.81,-10.5l0.1 18.18c2.24,1.91 13.43,8.02 15.85,8.96 3.09,-2.54 5.36,-4.87 10.48,-4.94 4.57,-0.06 8.36,1.74 10.2,4.75 2.39,-0.73 11.81,-6.02 14.2,-7.74 4.79,-3.46 6.33,-10.84 4.26,-16.8 -1.97,-5.71 -22.75,-16.33 -25.23,-17.07 0.01,20.98 -1.59,13.87 10.7,21.56z"/>
     <path class="fil1" d="M391.31 87.29c-3.61,-12.98 -24.18,-9.1 -21.45,5.45 0.99,5.26 6.19,9.84 13.53,8.22 5.06,-1.11 9.76,-7.06 7.92,-13.67z"/>
    </g>
   </g>
   <path class="fil2" d="M24.36 84.88c-8.06,0 -14.13,-2.24 -18.22,-6.69 -4.09,-4.46 -6.14,-10.74 -6.14,-18.85l0 -6.54c0,-8.05 2.03,-14.3 6.09,-18.73 4.05,-4.43 10.06,-6.63 18.03,-6.63 2.51,0 4.79,0.21 6.85,0.66 2.06,0.44 3.91,1.01 5.55,1.71 1.63,0.71 3.03,1.45 4.2,2.23l0.71 8.25c-2.01,-1.37 -4.36,-2.58 -7.05,-3.61 -2.69,-1.03 -5.85,-1.55 -9.47,-1.55 -5.33,0 -9.37,1.55 -12.13,4.65 -2.76,3.09 -4.15,7.45 -4.15,13.07l0 6.32c0,5.61 1.4,9.99 4.19,13.12 2.78,3.14 6.97,4.72 12.57,4.72 3.46,0 6.56,-0.52 9.31,-1.53 2.74,-1.02 5.13,-2.24 7.16,-3.67l-0.67 8.38c-1.16,0.78 -2.57,1.52 -4.24,2.24 -1.66,0.71 -3.54,1.3 -5.63,1.76 -2.1,0.46 -4.43,0.69 -6.96,0.69zm290.35 -1.25l0 -52.67 8.4 0 0 52.67 -8.4 0zm-18.33 -47.47l0 -7.48 45.03 0 0 7.48 -45.03 0zm-23.65 48.72c-8.05,0 -14.12,-2.24 -18.22,-6.69 -4.09,-4.46 -6.14,-10.74 -6.14,-18.85l0 -6.54c0,-8.05 2.04,-14.3 6.09,-18.73 4.05,-4.43 10.06,-6.63 18.03,-6.63 2.51,0 4.8,0.21 6.86,0.66 2.06,0.44 3.9,1.01 5.54,1.71 1.64,0.71 3.04,1.45 4.2,2.23l0.71 8.25c-2,-1.37 -4.35,-2.58 -7.05,-3.61 -2.69,-1.03 -5.85,-1.55 -9.46,-1.55 -5.34,0 -9.38,1.55 -12.14,4.65 -2.76,3.09 -4.14,7.45 -4.14,13.07l0 6.32c0,5.61 1.4,9.99 4.18,13.12 2.79,3.14 6.97,4.72 12.57,4.72 3.46,0 6.56,-0.52 9.31,-1.53 2.75,-1.02 5.13,-2.24 7.17,-3.67l-0.68 8.38c-1.16,0.78 -2.57,1.52 -4.23,2.24 -1.67,0.71 -3.54,1.3 -5.64,1.76 -2.1,0.46 -4.42,0.69 -6.96,0.69zm-70.98 -1.25l0 -54.95 8.24 0 0 54.95 -8.24 0zm1.39 0l0 -7.52 37.83 0 0 7.52 -37.83 0zm3.13 -24.25l0 -7.39 33.55 0 0 7.39 -33.55 0zm-3.17 -23.22l0 -7.48 37.47 0 0 7.48 -37.47 0zm-45.86 -7.48l24.39 45.58 0.6 0 -0.32 -22.79 0 -22.79 8.28 0 0 54.95 -12 0 -24.76 -46.22 -0.1 0 0 46.22 -0.17 0 -8.28 0 -3.55 0 -24.75 -46.22 -0.6 0 0.32 24.12 0 22.1 -8.28 0 0 -54.95 12.36 0 24.4 45.58 0.1 0 0 -45.58 0.18 0 8.27 0 3.91 0zm-83.81 56.2c-7.97,0 -14.07,-2.22 -18.3,-6.65 -4.22,-4.43 -6.33,-10.72 -6.33,-18.89l0 -6.41c0,-8.17 2.11,-14.47 6.33,-18.9 4.23,-4.43 10.33,-6.64 18.3,-6.64 8,0 14.11,2.21 18.33,6.64 4.21,4.43 6.31,10.73 6.31,18.9l0 6.41c0,8.17 -2.1,14.46 -6.31,18.89 -4.22,4.43 -10.33,6.65 -18.33,6.65zm0 -7.53c5.31,0 9.31,-1.57 11.99,-4.71 2.68,-3.14 4.01,-7.51 4.01,-13.13l0 -6.79c0,-5.62 -1.33,-9.99 -4.01,-13.12 -2.68,-3.12 -6.68,-4.68 -11.99,-4.68 -5.31,0 -9.29,1.56 -11.97,4.68 -2.68,3.13 -4.03,7.5 -4.03,13.12l0 6.79c0,5.62 1.35,9.99 4.03,13.13 2.68,3.14 6.66,4.71 11.97,4.71z"/>
   <g>
    <path class="fil3" d="M432.82 83.63l0 -50.39 15.24 0 0 50.39 -15.24 0zm-16.52 -41.66l0 -13.29 48.28 0 0 13.29 -48.28 0z"/>
    <path class="fil3" d="M496.5 85.31c-8.55,0 -14.93,-2.15 -19.13,-6.45 -4.19,-4.3 -6.29,-10.65 -6.29,-19.05l0 -31.13 15.21 0 0 31.22c0,3.84 0.84,6.75 2.53,8.73 1.69,1.97 4.25,2.96 7.68,2.96 3.41,0 5.96,-0.99 7.65,-2.96 1.69,-1.98 2.53,-4.89 2.53,-8.73l0 -31.22 15.21 0 0 31.13c0,8.4 -2.08,14.75 -6.26,19.05 -4.17,4.3 -10.55,6.45 -19.13,6.45z"/>
    <path class="fil3" d="M541.93 83.63l0 -13.54 13.39 0c3.46,0 6.05,-0.99 7.76,-2.97 1.72,-1.98 2.58,-4.71 2.58,-8.21l0 -5.68c0,-3.49 -0.86,-6.22 -2.58,-8.17 -1.71,-1.95 -4.3,-2.92 -7.76,-2.92l-13.39 0 0 -13.46 13.83 0c8.42,0 14.77,2.11 19.03,6.34 4.27,4.23 6.39,10.29 6.39,18.17l0 5.72c0,7.94 -2.12,14.04 -6.37,18.31 -4.25,4.28 -10.6,6.41 -19.05,6.41l-13.83 0zm-11.01 0l0 -54.95 15.05 0 0 54.95 -15.05 0z"/>
   </g>
  </g>
 </g>
</svg>
