<?xml version="1.0" encoding="UTF-8"?>
<!DOCTYPE svg PUBLIC "-//W3C//DTD SVG 1.1//EN" "http://www.w3.org/Graphics/SVG/1.1/DTD/svg11.dtd">
<!-- Creator: CorelDRAW -->
<svg xmlns="http://www.w3.org/2000/svg" xml:space="preserve" width="189px" height="189px" version="1.1" style="shape-rendering:geometricPrecision; text-rendering:geometricPrecision; image-rendering:optimizeQuality; fill-rule:evenodd; clip-rule:evenodd"
viewBox="0 0 24.56 24.56"
 xmlns:xlink="http://www.w3.org/1999/xlink"
 xmlns:xodm="http://www.corel.com/coreldraw/odm/2003">
 <defs>
  <style type="text/css">
   <![CDATA[
    .str0 {stroke:#133E86;stroke-width:2.84;stroke-linecap:round;stroke-linejoin:round;stroke-miterlimit:22.9256}
    .str1 {stroke:#FEFEFE;stroke-width:1.4;stroke-linecap:round;stroke-linejoin:round;stroke-miterlimit:22.9256}
    .str2 {stroke:#FEFEFE;stroke-width:1.4;stroke-linecap:round;stroke-linejoin:round;stroke-miterlimit:22.9256}
    .fil0 {fill:none}
    .fil1 {fill:#FEFEFE}
    .fil2 {fill:#09B0EE}
    .fil3 {fill:#133E86}
   ]]>
  </style>
 </defs>
 <g id="Layer_x0020_1">
  <metadata id="CorelCorpID_0Corel-Layer"/>
  <g id="_2192960149312">
   <g>
    <path class="fil0 str0" d="M12.28 1.42c6,0 10.87,4.86 10.87,10.86 0,6 -4.87,10.87 -10.87,10.87 -6,0 -10.86,-4.87 -10.86,-10.87 0,-6 4.86,-10.86 10.86,-10.86z"/>
    <path id="_1" class="fil1" d="M12.28 1.42c6,0 10.87,4.86 10.87,10.86 0,6 -4.87,10.87 -10.87,10.87 -6,0 -10.86,-4.87 -10.86,-10.87 0,-6 4.86,-10.86 10.86,-10.86z"/>
   </g>
   <g>
    <g>
     <g>
      <path class="fil0 str1" d="M10.15 10.45c0.68,-0.85 2.39,-1.19 3.66,-0.6 1.01,0.46 2.04,1.28 3.17,1.77l-0.02 -3.07c-0.37,-0.32 -2.26,-1.35 -2.67,-1.51 -0.52,0.43 -0.9,0.83 -1.76,0.84 -0.77,0.01 -1.41,-0.3 -1.72,-0.8 -0.4,0.12 -1.99,1.01 -2.39,1.3 -0.81,0.58 -1.07,1.83 -0.72,2.83 0.33,0.96 3.83,2.75 4.25,2.88 0,-3.54 0.27,-2.34 -1.8,-3.64z"/>
      <path id="_1_0" class="fil2" d="M10.15 10.45c0.68,-0.85 2.39,-1.19 3.66,-0.6 1.01,0.46 2.04,1.28 3.17,1.77l-0.02 -3.07c-0.37,-0.32 -2.26,-1.35 -2.67,-1.51 -0.52,0.43 -0.9,0.83 -1.76,0.84 -0.77,0.01 -1.41,-0.3 -1.72,-0.8 -0.4,0.12 -1.99,1.01 -2.39,1.3 -0.81,0.58 -1.07,1.83 -0.72,2.83 0.33,0.96 3.83,2.75 4.25,2.88 0,-3.54 0.27,-2.34 -1.8,-3.64z"/>
     </g>
     <g>
      <path class="fil0 str1" d="M10.67 6.11c0.6,2.19 4.07,1.53 3.61,-0.92 -0.17,-0.88 -1.04,-1.66 -2.28,-1.38 -0.85,0.18 -1.64,1.19 -1.33,2.3z"/>
      <path id="_1_1" class="fil2" d="M10.67 6.11c0.6,2.19 4.07,1.53 3.61,-0.92 -0.17,-0.88 -1.04,-1.66 -2.28,-1.38 -0.85,0.18 -1.64,1.19 -1.33,2.3z"/>
     </g>
    </g>
    <g>
     <g>
      <path class="fil0 str2" d="M14.42 14.11c-0.69,0.86 -2.4,1.19 -3.67,0.61 -1,-0.46 -2.04,-1.28 -3.17,-1.77l0.02 3.06c0.38,0.32 2.26,1.35 2.67,1.51 0.52,-0.43 0.9,-0.82 1.77,-0.83 0.77,-0.01 1.41,0.29 1.72,0.8 0.4,-0.12 1.98,-1.01 2.39,-1.31 0.8,-0.58 1.06,-1.82 0.72,-2.83 -0.34,-0.96 -3.84,-2.75 -4.25,-2.87 0,3.53 -0.27,2.33 1.8,3.63z"/>
      <path id="_1_2" class="fil3" d="M14.42 14.11c-0.69,0.86 -2.4,1.19 -3.67,0.61 -1,-0.46 -2.04,-1.28 -3.17,-1.77l0.02 3.06c0.38,0.32 2.26,1.35 2.67,1.51 0.52,-0.43 0.9,-0.82 1.77,-0.83 0.77,-0.01 1.41,0.29 1.72,0.8 0.4,-0.12 1.98,-1.01 2.39,-1.31 0.8,-0.58 1.06,-1.82 0.72,-2.83 -0.34,-0.96 -3.84,-2.75 -4.25,-2.87 0,3.53 -0.27,2.33 1.8,3.63z"/>
     </g>
     <g>
      <path class="fil0 str2" d="M13.9 18.45c-0.61,-2.18 -4.07,-1.53 -3.61,0.92 0.16,0.89 1.04,1.66 2.27,1.39 0.86,-0.19 1.65,-1.19 1.34,-2.31z"/>
      <path id="_1_3" class="fil3" d="M13.9 18.45c-0.61,-2.18 -4.07,-1.53 -3.61,0.92 0.16,0.89 1.04,1.66 2.27,1.39 0.86,-0.19 1.65,-1.19 1.34,-2.31z"/>
     </g>
    </g>
   </g>
  </g>
 </g>
</svg>
