<?xml version="1.0" encoding="UTF-8"?>
<!DOCTYPE svg PUBLIC "-//W3C//DTD SVG 1.1//EN" "http://www.w3.org/Graphics/SVG/1.1/DTD/svg11.dtd">
<!-- Creator: CorelDRAW -->
<svg xmlns="http://www.w3.org/2000/svg" xml:space="preserve" width="1613px" height="343px" version="1.1" style="shape-rendering:geometricPrecision; text-rendering:geometricPrecision; image-rendering:optimizeQuality; fill-rule:evenodd; clip-rule:evenodd"
viewBox="0 0 1846.07 392.45"
 xmlns:xlink="http://www.w3.org/1999/xlink"
 xmlns:xodm="http://www.corel.com/coreldraw/odm/2003">
 <defs>
  <style type="text/css">
   <![CDATA[
    .fil0 {fill:#FEFEFE;fill-rule:nonzero}
    .fil1 {fill:#0AADEE;fill-rule:nonzero}
   ]]>
  </style>
 </defs>
 <g id="Layer_x0020_1">
  <metadata id="CorelCorpID_0Corel-Layer"/>
  <g id="_2192969127376">
   <path class="fil0" d="M9.04 247.17c-6.03,-13.5 -9.04,-27.64 -9.04,-42.49 0,-14.81 3.01,-28.94 9.04,-42.45 6.08,-13.51 14.24,-25.1 24.49,-34.87 10.3,-9.71 22.51,-17.5 36.7,-23.27 14.14,-5.77 28.98,-8.68 44.54,-8.68 15.62,0 30.41,2.86 44.38,8.58 13.91,5.76 26.4,13.66 37.31,23.69 2.35,2.23 3.5,5.09 3.5,8.52 0,3.43 -1.15,6.28 -3.5,8.52 -2.47,2.34 -5.48,3.53 -8.99,3.53 -3.56,0 -6.68,-1.19 -9.48,-3.53 -8.27,-7.59 -17.8,-13.61 -28.76,-17.98 -10.9,-4.31 -22.4,-6.49 -34.46,-6.49 -16.05,0 -30.95,3.74 -44.7,11.22 -13.75,7.53 -24.65,17.77 -32.71,30.76 -8,12.99 -11.99,27.17 -11.99,42.45 0,15.32 3.99,29.51 11.99,42.49 8.06,13 18.96,23.23 32.71,30.76 13.75,7.48 28.65,11.23 44.7,11.23 12.16,0 23.72,-2.13 34.63,-6.45 10.95,-4.31 20.43,-10.34 28.59,-18.03 2.47,-2.33 5.59,-3.53 9.48,-3.53 3.84,0 6.85,1.2 8.99,3.53 2.35,2.55 3.5,5.46 3.5,8.73 0,3.33 -1.15,6.08 -3.5,8.32 -10.74,10.13 -23.07,18.08 -37.09,23.74 -14.03,5.66 -28.87,8.52 -44.6,8.52 -15.56,0 -30.4,-2.91 -44.54,-8.68 -14.19,-5.76 -26.4,-13.56 -36.7,-23.27 -10.25,-9.77 -18.41,-21.36 -24.49,-34.87zm600.17 -200.7c7.18,2.88 12.44,8.72 18.74,12.11l2.43 -1.96c17.46,-15.62 50.47,-15.76 71.65,-9.48 5.62,1.67 11.18,4 15.39,7.86l3.91 3.6c3.94,-2.02 7.01,-5.54 11.13,-6.65 -0.03,4.82 0.05,9.64 0.05,14.46 0,9.06 -1.86,5.33 -2.62,10.22 -0.64,4.07 0.34,5.07 -1.36,11.14 -0.45,1.61 -1.34,4.2 -1.58,5.67 -1.57,9.81 15.61,4.38 15.62,4.38 1.57,-2.66 0.93,-2.79 -0.33,-6.63 -2.96,-9.09 -2.94,-14.44 -4.48,-17.84 -1.85,-4.1 -0.96,-10.93 -1.02,-16.15 -0.11,-10.13 -1.11,-6.38 3.52,-11.98 -20.11,-15.8 -44.46,-30.69 -65.62,-45.22 -9.82,4.97 -63.98,43.68 -65.43,46.47zm109.08 40.08c0.38,-5.6 0.91,-15.99 0.41,-21.29 -1.86,-19.56 -55.76,-22.79 -78.74,-11.19 -11.56,5.84 -10.26,13.78 -9.21,32.03 -3.43,6.69 -5.36,14.28 -5.36,22.32 0,20.65 12.77,38.32 30.85,45.54 -3.12,0.82 -6.19,1.85 -9.22,3.07 -9.26,3.79 -17.26,8.78 -23.94,15.07 -6.69,6.34 -12,13.82 -15.95,22.55 -4,8.73 -5.97,17.87 -5.97,27.38l0 80.53c0,3.27 1.15,5.98 3.45,8.16 2.3,2.18 5.15,3.27 8.44,3.27 3.23,0 5.97,-1.09 8.22,-3.32 2.24,-2.24 3.34,-4.94 3.34,-8.11l0 -80.53c0,-13.15 5.04,-24.52 15.06,-33.98 10.08,-9.51 22.19,-14.24 36.33,-14.24 13.8,0 25.64,4.73 35.5,14.24 9.91,9.46 14.84,20.83 14.84,33.98l0 80.53c0,3.17 1.21,5.87 3.62,8.11 2.41,2.23 5.26,3.32 8.43,3.32 3.24,0 6.03,-1.09 8.44,-3.32 2.41,-2.24 3.62,-4.94 3.62,-8.11l0 -80.53c0,-12.78 -3.34,-24.58 -10.03,-35.44 -6.68,-10.85 -15.78,-19.43 -27.22,-25.71 -6.18,-3.39 -12.63,-5.88 -19.36,-7.45 17.41,-7.52 29.59,-24.84 29.59,-45.01 0,-7.86 -1.85,-15.28 -5.14,-21.87zm-159.6 -40.08c-7.17,2.88 -12.43,8.72 -18.73,12.11l-2.43 -1.96c-17.47,-15.62 -50.48,-15.76 -71.66,-9.48 -5.62,1.67 -11.18,4 -15.39,7.86l-3.9 3.6c-3.95,-2.02 -7.02,-5.54 -11.13,-6.65 0.02,4.82 -0.06,9.64 -0.06,14.46 0,9.06 1.86,5.33 2.62,10.22 0.64,4.07 -0.34,5.07 1.36,11.14 0.46,1.61 1.35,4.2 1.58,5.67 1.57,9.81 -15.61,4.38 -15.61,4.38 -1.58,-2.66 -0.93,-2.79 0.32,-6.63 2.96,-9.09 2.94,-14.44 4.48,-17.84 1.85,-4.1 0.96,-10.93 1.02,-16.15 0.11,-10.13 1.11,-6.38 -3.52,-11.98 20.11,-15.8 44.47,-30.69 65.63,-45.22 9.81,4.97 63.97,43.68 65.42,46.47zm-109.12 39.54c-0.37,-5.7 -0.85,-15.61 -0.36,-20.75 1.85,-19.56 55.76,-22.79 78.74,-11.19 11.67,5.89 10.22,13.94 9.17,32.58 3.25,6.56 5.09,13.95 5.09,21.77 0,20.28 -12.31,37.68 -29.87,45.14 6.53,1.57 12.81,4.01 18.82,7.32 11.45,6.28 20.54,14.86 27.23,25.71 6.68,10.86 10.02,22.66 10.02,35.44 0,33.1 -0.33,66.2 -0.33,99.25 0,6.55 1.13,12.6 3.39,18.14 2.26,5.55 5.66,10.61 10.2,15.18 4.54,4.56 9.55,7.98 15.03,10.26 5.48,2.28 11.45,3.43 17.91,3.43 6.29,0 12.15,-1.15 17.55,-3.45 5.4,-2.29 10.37,-5.74 14.88,-10.34 4.54,-4.58 7.95,-9.64 10.21,-15.17 2.25,-5.52 3.38,-11.54 3.38,-18.05l0 -79.37c0,-1.63 0.29,-3.17 0.87,-4.61 0.57,-1.44 1.42,-2.77 2.54,-3.98 1.13,-1.23 2.39,-2.16 3.78,-2.78 1.39,-0.63 2.9,-0.94 4.51,-0.94 1.63,0 3.16,0.31 4.59,0.93 1.42,0.62 2.73,1.54 3.93,2.76 1.2,1.22 2.11,2.55 2.72,3.99 0.61,1.44 0.92,2.99 0.92,4.63l0 79.37c0,4.76 -0.47,9.46 -1.4,14.08 -0.93,4.61 -2.32,9.12 -4.16,13.5 -1.87,4.38 -4.04,8.47 -6.53,12.26 -2.48,3.79 -5.28,7.28 -8.42,10.47 -3.11,3.18 -6.52,6.04 -10.23,8.57 -3.71,2.54 -7.72,4.76 -12.03,6.66 -4.32,1.87 -8.75,3.28 -13.26,4.22 -4.53,0.94 -9.15,1.41 -13.85,1.41 -9.63,0 -18.59,-1.75 -26.87,-5.24 -8.27,-3.49 -15.84,-8.71 -22.7,-15.67 -6.88,-6.98 -12.04,-14.66 -15.49,-23.04 -3.45,-8.38 -5.17,-17.45 -5.17,-27.22 0,-33.08 -0.07,-66.17 -0.07,-99.25 0,-13.15 -4.93,-24.52 -14.85,-33.98 -9.86,-9.51 -21.69,-14.24 -35.5,-14.24 -14.13,0 -26.24,4.73 -36.32,14.24 -10.02,9.46 -15.06,20.83 -15.06,33.98l0 80.53c0,3.17 -1.1,5.87 -3.35,8.11 -2.24,2.23 -4.98,3.32 -8.22,3.32 -3.28,0 -6.13,-1.09 -8.43,-3.27 -2.3,-2.18 -3.45,-4.89 -3.45,-8.16l0 -80.53c0,-9.51 1.97,-18.65 5.97,-27.38 3.94,-8.73 9.26,-16.21 15.94,-22.55 6.69,-6.29 14.68,-11.28 23.94,-15.07 3.2,-1.29 6.43,-2.36 9.72,-3.2 -17.91,-7.3 -30.53,-24.88 -30.53,-45.41 0,-8.07 1.95,-15.69 5.4,-22.41zm-222.5 178.36c-4.55,-10.02 -6.8,-20.62 -6.8,-31.64 0,-11.06 2.25,-21.61 6.8,-31.69 4.54,-10.03 10.62,-18.7 18.29,-25.93 7.67,-7.27 16.77,-13.04 27.4,-17.3 10.57,-4.26 21.64,-6.39 33.2,-6.39 11.56,0 22.62,2.13 33.25,6.39 10.57,4.26 19.67,10.03 27.28,17.3 7.56,7.23 13.64,15.9 18.19,25.93 4.55,10.08 6.85,20.63 6.85,31.69 0,11.02 -2.3,21.62 -6.85,31.64 -4.55,10.03 -10.63,18.71 -18.19,25.93 -7.61,7.27 -16.71,13.04 -27.28,17.3 -10.63,4.26 -21.69,6.39 -33.25,6.39 -11.56,0 -22.63,-2.13 -33.2,-6.39 -10.63,-4.26 -19.73,-10.03 -27.4,-17.3 -7.67,-7.22 -13.75,-15.9 -18.29,-25.93zm141.01 -31.69c0,-16.42 -6.03,-30.39 -18.13,-41.93 -12.11,-11.48 -26.74,-17.25 -43.99,-17.25 -17.21,0 -31.89,5.77 -43.99,17.25 -12.06,11.54 -18.14,25.51 -18.14,41.93 0,16.26 6.08,30.13 18.24,41.67 12.17,11.48 26.79,17.25 43.89,17.25 17.14,0 31.77,-5.77 43.88,-17.25 12.16,-11.54 18.24,-25.41 18.24,-41.67zm435.06 57.41c-16.82,-15.95 -25.2,-35.07 -25.2,-57.41 0,-22.29 8.38,-41.41 25.2,-57.36 16.76,-15.95 36.92,-23.9 60.48,-23.9 10.9,0 21.42,1.92 31.44,5.77 10.08,3.89 18.85,9.09 26.36,15.69 7.5,6.6 13.58,14.5 18.35,23.69 4.77,9.2 7.5,18.91 8.27,29.15 1.21,4.88 0.71,8.67 -1.42,11.38 -2.14,2.75 -6.03,4.15 -11.56,4.15l-132.09 0c1.81,14.29 8.49,26.24 20.11,35.9 11.61,9.67 25.14,14.45 40.54,14.45 16.93,0 31.44,-5.77 43.66,-17.36 2.58,-2.13 5.37,-3.16 8.33,-3.16 3.56,0 6.3,1.03 8.22,3.16 2.46,2.34 3.67,5.04 3.67,8.11 0,3.01 -1.21,5.66 -3.67,7.9 -7.95,7.48 -17.04,13.35 -27.4,17.51 -10.29,4.15 -21.25,6.23 -32.81,6.23 -23.56,0 -43.72,-7.95 -60.48,-23.9zm120.69 -65.46c-1.54,-14.29 -8.06,-26.34 -19.67,-36.17 -11.61,-9.76 -25.15,-14.65 -40.54,-14.65 -15.4,0 -28.93,4.89 -40.54,14.65 -11.62,9.83 -18.3,21.88 -20.11,36.17l120.86 0zm130.81 89.36c-23.56,0 -43.72,-7.95 -60.48,-23.9 -16.82,-15.95 -25.2,-35.07 -25.2,-57.41 0,-22.29 8.38,-41.41 25.2,-57.36 16.76,-15.95 36.92,-23.9 60.48,-23.9 23.34,0 43.5,7.9 60.54,23.74 2.24,2.14 3.34,4.73 3.34,7.85 0,3.12 -1.1,5.82 -3.34,8.16 -2.58,2.13 -5.32,3.17 -8.22,3.17 -3.62,0 -6.52,-1.15 -8.66,-3.48 -12.33,-11.38 -26.84,-17.05 -43.66,-17.05 -17.09,0 -31.72,5.77 -43.88,17.25 -12.17,11.54 -18.25,25.41 -18.25,41.62 0,16.26 6.08,30.13 18.25,41.67 12.16,11.48 26.79,17.25 43.88,17.25 16.93,0 31.44,-5.77 43.66,-17.36 2.58,-2.13 5.48,-3.16 8.66,-3.16 3.23,0 5.97,1.03 8.22,3.16 2.24,2.34 3.34,4.99 3.34,8 0,3.02 -1.1,5.67 -3.34,8.01 -17.04,15.84 -37.2,23.74 -60.54,23.74zm119.96 -207.62c0,-3.06 1.15,-5.66 3.51,-7.79 2.36,-2.13 5.15,-3.17 8.33,-3.17 3.34,0 6.19,1.04 8.54,3.17 2.36,2.13 3.51,4.73 3.51,7.79l0 45.05 30.35 0c3.4,0 6.24,1.04 8.49,3.12 2.25,2.08 3.4,4.67 3.4,7.84 0,3.07 -1.15,5.67 -3.45,7.85 -2.31,2.18 -5.15,3.27 -8.44,3.27l-30.35 0 0 129.53c0,3.17 -1.15,5.82 -3.45,8 -2.3,2.18 -5.15,3.27 -8.6,3.27 -3.18,0 -5.97,-1.09 -8.33,-3.27 -2.36,-2.18 -3.51,-4.83 -3.51,-8l0 -129.53 -30.35 0c-3.23,0 -5.91,-1.09 -8.21,-3.27 -2.25,-2.18 -3.35,-4.78 -3.35,-7.85 0,-3.17 1.1,-5.76 3.35,-7.84 2.3,-2.08 4.98,-3.12 8.21,-3.12l30.35 0 0 -45.05z"/>
   <path class="fil1" d="M1385.51 258.5c0,-57.36 -90.4,-78.24 -90.4,-107.55 0,-16.83 17.1,-23.07 32.55,-23.07 16.43,0 31.88,5.62 46.34,12.16l0 -34.6c-14.46,-4.99 -29.58,-8.11 -45.03,-8.11 -36.49,0 -73.63,15.59 -73.63,54.87 0,55.18 90.07,68.58 90.07,108.48 0,18.08 -20.05,26.19 -36.49,26.19 -18.74,0 -36.49,-7.17 -53.25,-14.65l0 36.16c16.44,5.61 33.85,9.66 51.61,9.66 38.78,0 78.23,-18.39 78.23,-59.54zm127.55 52.06l0 -35.85c-12.82,5.61 -26.29,10.91 -40.76,10.91 -17.09,0 -17.75,-15.27 -17.75,-27.74l0 -58.61 50.95 0 0 -33.66 -50.95 0 0 -44.27 -41.09 0 0 131.24c0,41.15 7.89,66.4 56.54,66.4 15.12,0 29.26,-3.12 43.06,-8.42zm156.81 -1.25l0 -143.7 -41.09 0 0 116.9c-7.56,1.24 -15.12,2.18 -22.35,2.18 -28.6,0 -36.49,-23.07 -36.49,-45.83l0 -73.25 -41.09 0 0 74.5c-0.32,48.01 21.37,77.62 74.95,77.62 22.68,0 44.37,-3.74 66.07,-8.42zm176.2 0.63l0 -234.43 -41.42 0 0 101.94c-11.5,-10.6 -24.32,-14.96 -39.77,-14.96 -45.36,0 -65.74,36.78 -65.74,75.13 0,49.56 32.54,79.18 84.48,79.18 21.03,0 41.74,-3.74 62.45,-6.86zm-41.75 -28.06c-7.55,0.94 -14.46,1.87 -21.69,1.87 -30.24,0 -43.06,-20.57 -43.06,-47.07 0,-19.33 7.89,-41.77 31.89,-41.77 21.03,0 32.86,20.26 32.86,38.03l0 48.94z"/>
  </g>
 </g>
</svg>
