<?xml version="1.0" encoding="UTF-8"?>
<!DOCTYPE svg PUBLIC "-//W3C//DTD SVG 1.1//EN" "http://www.w3.org/Graphics/SVG/1.1/DTD/svg11.dtd">
<!-- Creator: CorelDRAW -->
<svg xmlns="http://www.w3.org/2000/svg" xml:space="preserve" width="516px" height="516px" version="1.1" style="shape-rendering:geometricPrecision; text-rendering:geometricPrecision; image-rendering:optimizeQuality; fill-rule:evenodd; clip-rule:evenodd"
viewBox="0 0 91.23 91.23"
 xmlns:xlink="http://www.w3.org/1999/xlink"
 xmlns:xodm="http://www.corel.com/coreldraw/odm/2003">
 <defs>
  <style type="text/css">
   <![CDATA[
    .fil0 {fill:#0AADEE}
    .fil1 {fill:#FEFEFE;fill-rule:nonzero}
   ]]>
  </style>
 </defs>
 <g id="Layer_x0020_1">
  <metadata id="CorelCorpID_0Corel-Layer"/>
  <g id="_2193987389728">
   <path class="fil0" d="M45.61 0c25.2,0 45.62,20.42 45.62,45.61 0,25.2 -20.42,45.62 -45.62,45.62 -25.19,0 -45.61,-20.42 -45.61,-45.62 0,-25.19 20.42,-45.61 45.61,-45.61z"/>
   <path class="fil1" d="M41.45 21.78c-1.15,0.46 -1.99,1.4 -2.99,1.94l-0.39 -0.32c-2.79,-2.49 -8.06,-2.51 -11.44,-1.51 -0.9,0.27 -1.79,0.64 -2.46,1.25l-0.62 0.58c-0.63,-0.32 -1.12,-0.88 -1.78,-1.06 0,0.77 -0.01,1.54 -0.01,2.31 0,1.44 0.3,0.85 0.42,1.63 0.1,0.65 -0.06,0.81 0.22,1.78 0.07,0.26 0.21,0.67 0.25,0.9 0.25,1.57 -2.49,0.7 -2.5,0.7 -0.25,-0.42 -0.14,-0.44 0.06,-1.06 0.47,-1.45 0.47,-2.3 0.71,-2.85 0.3,-0.65 0.16,-1.74 0.16,-2.57 0.02,-1.62 0.18,-1.02 -0.56,-1.92 3.21,-2.52 7.1,-4.9 10.48,-7.22 1.57,0.8 10.21,6.98 10.45,7.42zm8.06 0c1.15,0.46 1.99,1.4 2.99,1.94l0.39 -0.32c2.79,-2.49 8.06,-2.51 11.44,-1.51 0.9,0.27 1.79,0.64 2.46,1.25l0.62 0.58c0.63,-0.32 1.12,-0.88 1.78,-1.06 0,0.77 0.01,1.54 0.01,2.31 0,1.44 -0.3,0.85 -0.42,1.63 -0.1,0.65 0.06,0.81 -0.22,1.78 -0.07,0.26 -0.21,0.67 -0.25,0.9 -0.25,1.57 2.49,0.7 2.5,0.7 0.25,-0.42 0.14,-0.44 -0.06,-1.06 -0.47,-1.45 -0.47,-2.3 -0.71,-2.85 -0.3,-0.65 -0.16,-1.74 -0.16,-2.57 -0.02,-1.62 -0.18,-1.02 0.56,-1.92 -3.21,-2.52 -7.1,-4.9 -10.48,-7.22 -1.57,0.8 -10.22,6.98 -10.45,7.42zm17.42 6.4c0.06,-0.89 0.14,-2.55 0.06,-3.4 -0.29,-3.12 -8.9,-3.64 -12.57,-1.78 -1.84,0.93 -1.64,2.2 -1.47,5.11 -0.55,1.07 -0.85,2.28 -0.85,3.56 0,3.3 2.04,6.12 4.92,7.28 -0.5,0.13 -0.99,0.29 -1.47,0.49 -1.48,0.6 -2.76,1.4 -3.82,2.4 -1.07,1.01 -1.92,2.21 -2.55,3.6 -0.64,1.4 -0.95,2.86 -0.95,4.37l0 12.86c0,0.52 0.18,0.96 0.55,1.3 0.37,0.35 0.82,0.53 1.35,0.53 0.51,0 0.95,-0.18 1.31,-0.53 0.36,-0.36 0.53,-0.79 0.53,-1.3l0 -12.86c0,-2.1 0.81,-3.91 2.41,-5.42 1.61,-1.52 3.54,-2.28 5.8,-2.28 2.2,0 4.09,0.76 5.67,2.28 1.58,1.51 2.37,3.32 2.37,5.42l0 12.86c0,0.51 0.19,0.94 0.57,1.3 0.39,0.35 0.84,0.53 1.35,0.53 0.52,0 0.96,-0.18 1.35,-0.53 0.38,-0.36 0.57,-0.79 0.57,-1.3l0 -12.86c0,-2.04 -0.53,-3.92 -1.6,-5.65 -1.06,-1.74 -2.52,-3.11 -4.34,-4.11 -0.99,-0.54 -2.02,-0.94 -3.09,-1.19 2.78,-1.2 4.72,-3.97 4.72,-7.19 0,-1.25 -0.3,-2.44 -0.82,-3.49zm-47.77 21.63c0,-1.51 0.32,-2.97 0.96,-4.37 0.63,-1.39 1.48,-2.59 2.54,-3.6 1.07,-1 2.35,-1.8 3.83,-2.4 0.5,-0.21 1.02,-0.38 1.55,-0.52 -2.86,-1.16 -4.88,-3.97 -4.88,-7.25 0,-1.28 0.31,-2.5 0.86,-3.57 -0.06,-0.91 -0.13,-2.5 -0.05,-3.32 0.29,-3.12 8.9,-3.64 12.57,-1.78 1.86,0.94 1.63,2.22 1.46,5.2 0.52,1.05 0.81,2.23 0.81,3.47 0,3.24 -1.96,6.02 -4.76,7.21 1.04,0.25 2.04,0.64 3,1.17 1.83,1 3.28,2.37 4.35,4.11 1.07,1.73 1.6,3.61 1.6,5.65l0 12.86c0,0.31 -0.07,0.59 -0.22,0.84l0 2.15c0,2.13 0.74,3.94 2.22,5.43 1.48,1.49 3.27,2.24 5.37,2.24 2.05,0 3.82,-0.75 5.3,-2.25 1.48,-1.5 2.21,-3.3 2.21,-5.42l0 -12.67c0,-0.49 0.17,-0.9 0.51,-1.27 0.33,-0.36 0.73,-0.54 1.2,-0.54 0.48,0 0.89,0.18 1.25,0.54 0.35,0.37 0.53,0.78 0.53,1.27l0 12.67c0,1.5 -0.29,2.96 -0.87,4.34 -0.59,1.38 -1.37,2.58 -2.36,3.58 -0.98,1 -2.14,1.8 -3.5,2.4 -1.36,0.59 -2.78,0.88 -4.27,0.88 -3.03,0 -5.63,-1.1 -7.8,-3.29 -2.16,-2.2 -3.25,-4.83 -3.25,-7.91l0 -2.23c-0.11,-0.23 -0.17,-0.48 -0.17,-0.76l0 -12.86c0,-2.1 -0.79,-3.91 -2.37,-5.42 -1.57,-1.52 -3.46,-2.28 -5.67,-2.28 -2.25,0 -4.19,0.76 -5.8,2.28 -1.6,1.51 -2.4,3.32 -2.4,5.42l0 12.86c0,0.51 -0.18,0.94 -0.54,1.3 -0.35,0.35 -0.79,0.53 -1.31,0.53 -0.52,0 -0.98,-0.18 -1.35,-0.53 -0.36,-0.34 -0.55,-0.78 -0.55,-1.3l0 -12.86z"/>
  </g>
 </g>
</svg>
