<?xml version="1.0" encoding="UTF-8"?>
<!DOCTYPE svg PUBLIC "-//W3C//DTD SVG 1.1//EN" "http://www.w3.org/Graphics/SVG/1.1/DTD/svg11.dtd">
<!-- Creator: CorelDRAW -->
<svg xmlns="http://www.w3.org/2000/svg" xml:space="preserve" width="687px" height="111px" version="1.1" style="shape-rendering:geometricPrecision; text-rendering:geometricPrecision; image-rendering:optimizeQuality; fill-rule:evenodd; clip-rule:evenodd"
viewBox="0 0 276.57 44.76"
 xmlns:xlink="http://www.w3.org/1999/xlink"
 xmlns:xodm="http://www.corel.com/coreldraw/odm/2003">
 <defs>
  <style type="text/css">
   <![CDATA[
    .fil2 {fill:#91D8F7}
    .fil3 {fill:#0AADEE}
    .fil4 {fill:#1176BC}
    .fil1 {fill:#91D8F7;fill-rule:nonzero}
    .fil0 {fill:#00AFEF;fill-rule:nonzero}
   ]]>
  </style>
 </defs>
 <g id="Layer_x0020_1">
  <metadata id="CorelCorpID_0Corel-Layer"/>
  <g id="_2193987407872">
   <g>
    <g>
     <path class="fil0" d="M62.6 44.75c-3.8,0 -6.61,-0.94 -8.44,-2.8 -1.84,-1.86 -2.76,-4.52 -2.76,-7.98l0 -3.81c0,-3.39 0.93,-6.01 2.78,-7.85 1.84,-1.84 4.62,-2.77 8.34,-2.77 0.95,0 1.83,0.07 2.63,0.19 0.81,0.13 1.54,0.31 2.2,0.52 0.66,0.23 1.25,0.48 1.77,0.77l0.52 5.75c-0.77,-0.35 -1.6,-0.66 -2.5,-0.92 -0.89,-0.26 -1.92,-0.38 -3.07,-0.38 -1.85,0 -3.19,0.44 -4.04,1.32 -0.85,0.88 -1.27,2.1 -1.27,3.68l0 3.22c0,1.56 0.43,2.78 1.29,3.67 0.86,0.89 2.29,1.33 4.3,1.33 1.11,0 2.11,-0.13 3,-0.41 0.89,-0.26 1.72,-0.59 2.49,-0.97l-0.52 5.87c-0.51,0.29 -1.1,0.55 -1.78,0.79 -0.68,0.24 -1.44,0.43 -2.26,0.57 -0.82,0.14 -1.72,0.21 -2.68,0.21zm19.03 0.01c-3.28,0 -5.75,-0.76 -7.41,-2.27 -1.66,-1.52 -2.49,-3.62 -2.49,-6.31l0 -2.36c0,-2.75 0.83,-4.9 2.5,-6.45 1.67,-1.54 4.14,-2.32 7.4,-2.32 3.28,0 5.75,0.78 7.41,2.32 1.66,1.55 2.5,3.7 2.5,6.45l0 2.36c0,2.69 -0.83,4.79 -2.49,6.31 -1.66,1.51 -4.13,2.27 -7.42,2.27zm0 -5.24c0.94,0 1.65,-0.27 2.14,-0.8 0.49,-0.53 0.72,-1.3 0.72,-2.29l0 -2.87c0,-1.07 -0.23,-1.88 -0.72,-2.43 -0.49,-0.56 -1.2,-0.83 -2.14,-0.83 -0.93,0 -1.64,0.27 -2.13,0.83 -0.49,0.55 -0.73,1.36 -0.73,2.43l0 2.87c0,0.99 0.24,1.76 0.73,2.29 0.49,0.53 1.2,0.8 2.13,0.8zm25.32 4.68l0 -10.68c0,-0.59 -0.07,-1.1 -0.23,-1.53 -0.15,-0.42 -0.41,-0.75 -0.78,-0.98 -0.38,-0.22 -0.88,-0.34 -1.52,-0.34 -0.49,0 -0.92,0.09 -1.31,0.25 -0.38,0.16 -0.71,0.38 -0.98,0.65 -0.27,0.27 -0.49,0.58 -0.65,0.92l-1.07 -2.76 1.13 0c0.2,-0.87 0.54,-1.65 1.01,-2.33 0.46,-0.69 1.12,-1.23 1.97,-1.63 0.83,-0.4 1.91,-0.6 3.23,-0.6 1.43,0 2.61,0.26 3.53,0.79 0.92,0.53 1.6,1.32 2.05,2.38 0.44,1.06 0.66,2.41 0.66,4.03l0 11.83 -7.04 0zm-12.43 0l0 -18.58 7 0 -0.22 4.77 0.26 0.68 0 13.13 -7.04 0zm35.42 0l0 -10.68c0,-0.59 -0.07,-1.1 -0.22,-1.53 -0.16,-0.42 -0.42,-0.75 -0.79,-0.98 -0.37,-0.22 -0.88,-0.34 -1.51,-0.34 -0.49,0 -0.93,0.09 -1.32,0.25 -0.38,0.16 -0.71,0.38 -0.98,0.65 -0.27,0.27 -0.49,0.58 -0.65,0.92l-1.07 -2.76 1.13 0c0.2,-0.87 0.54,-1.65 1.01,-2.33 0.46,-0.69 1.12,-1.23 1.97,-1.63 0.83,-0.4 1.92,-0.6 3.23,-0.6 1.43,0 2.61,0.26 3.53,0.79 0.92,0.53 1.61,1.32 2.05,2.38 0.44,1.06 0.66,2.41 0.66,4.03l0 11.83 -7.04 0zm-12.43 0l0 -18.58 7 0 -0.22 4.77 0.26 0.68 0 13.13 -7.04 0zm33.22 0.49c-3.76,0 -6.51,-0.77 -8.26,-2.32 -1.76,-1.55 -2.64,-3.81 -2.64,-6.79l0 -1.45c0,-2.96 0.83,-5.21 2.48,-6.76 1.64,-1.54 4.05,-2.32 7.22,-2.32 2.11,0 3.87,0.33 5.27,0.99 1.41,0.66 2.47,1.61 3.18,2.85 0.71,1.24 1.06,2.73 1.06,4.48l0 0.59c0,0.5 -0.02,1.01 -0.07,1.53 -0.04,0.52 -0.12,1.01 -0.21,1.45l-6.3 0c0.05,-0.77 0.09,-1.49 0.11,-2.17 0.02,-0.68 0.03,-1.29 0.03,-1.83 0,-0.66 -0.11,-1.2 -0.32,-1.66 -0.21,-0.44 -0.55,-0.78 -1,-1.01 -0.45,-0.24 -1.03,-0.35 -1.75,-0.35 -1.07,0 -1.85,0.26 -2.33,0.79 -0.48,0.53 -0.73,1.28 -0.73,2.25l0 1.68 0.04 0.71 0 1.17c0,0.39 0.07,0.77 0.22,1.13 0.14,0.37 0.42,0.69 0.81,0.97 0.39,0.29 0.95,0.51 1.67,0.67 0.71,0.17 1.66,0.25 2.81,0.25 1.18,0 2.33,-0.09 3.46,-0.28 1.13,-0.17 2.21,-0.43 3.26,-0.76l-0.55 4.85c-0.92,0.43 -2.01,0.76 -3.27,0.99 -1.27,0.23 -2.67,0.35 -4.19,0.35zm-7.18 -7.75l0 -3.93 13.8 0 0 3.93 -13.8 0zm27.19 7.77c-3.2,0 -5.57,-0.79 -7.1,-2.38 -1.54,-1.58 -2.31,-3.82 -2.31,-6.7l0 -1.6c0,-2.79 0.77,-4.98 2.31,-6.56 1.53,-1.59 3.89,-2.38 7.08,-2.38 0.78,0 1.52,0.04 2.22,0.14 0.71,0.09 1.36,0.23 1.95,0.39 0.6,0.17 1.13,0.37 1.59,0.58l0.56 5.45c-0.65,-0.31 -1.35,-0.57 -2.11,-0.78 -0.75,-0.21 -1.6,-0.31 -2.52,-0.31 -1.44,0 -2.46,0.31 -3.07,0.92 -0.62,0.62 -0.93,1.51 -0.93,2.66l0 1.23c0,1.21 0.34,2.13 1.01,2.78 0.68,0.65 1.74,0.97 3.19,0.97 0.9,0 1.72,-0.09 2.46,-0.28 0.73,-0.19 1.45,-0.44 2.17,-0.75l-0.54 5.47c-0.73,0.34 -1.61,0.61 -2.64,0.83 -1.04,0.21 -2.14,0.32 -3.32,0.32zm17.66 -0.08c-1.82,0 -3.26,-0.26 -4.33,-0.78 -1.06,-0.53 -1.83,-1.3 -2.28,-2.33 -0.47,-1.03 -0.69,-2.3 -0.69,-3.81l0 -9.96 6.98 0 0 8.83c0,0.8 0.19,1.39 0.58,1.76 0.38,0.38 1.14,0.56 2.26,0.56 0.61,0 1.22,-0.06 1.83,-0.2 0.6,-0.13 1.14,-0.29 1.63,-0.46l-0.59 5.47c-0.69,0.27 -1.49,0.5 -2.39,0.67 -0.9,0.16 -1.9,0.25 -3,0.25zm-9.75 -13.79l0 -5.22 15.54 0 -0.6 5.22 -14.94 0zm2.55 -4.77l-0.02 -4.66 6.94 -0.58 -0.24 5.24 -6.68 0z"/>
     <path class="fil1" d="M205.05 44.75c-1.17,0 -2.27,-0.07 -3.31,-0.21 -1.03,-0.14 -1.98,-0.32 -2.84,-0.54 -0.86,-0.22 -1.63,-0.45 -2.29,-0.69l-0.61 -6.19c1.06,0.43 2.31,0.84 3.75,1.22 1.45,0.39 2.97,0.58 4.56,0.58 1.42,0 2.41,-0.14 2.98,-0.42 0.55,-0.27 0.84,-0.72 0.84,-1.34l0 -0.07c0,-0.42 -0.14,-0.76 -0.41,-1.03 -0.28,-0.27 -0.73,-0.53 -1.36,-0.78 -0.64,-0.24 -1.49,-0.53 -2.57,-0.85 -1.74,-0.53 -3.2,-1.1 -4.39,-1.73 -1.2,-0.62 -2.1,-1.4 -2.71,-2.34 -0.61,-0.94 -0.91,-2.13 -0.91,-3.59l0 -0.28c0,-2.25 0.82,-3.97 2.46,-5.17 1.63,-1.18 4.02,-1.78 7.16,-1.78 1.85,0 3.44,0.15 4.79,0.44 1.35,0.29 2.51,0.64 3.49,1.05l0.61 5.78c-1.06,-0.46 -2.24,-0.83 -3.54,-1.13 -1.3,-0.29 -2.66,-0.44 -4.09,-0.44 -0.94,0 -1.68,0.06 -2.2,0.18 -0.52,0.12 -0.89,0.29 -1.09,0.53 -0.19,0.23 -0.29,0.52 -0.29,0.86l0 0.05c0,0.36 0.12,0.66 0.37,0.93 0.24,0.27 0.69,0.55 1.34,0.83 0.65,0.27 1.57,0.6 2.78,0.96 1.72,0.52 3.18,1.06 4.35,1.62 1.17,0.57 2.06,1.3 2.65,2.18 0.6,0.88 0.9,2.09 0.9,3.59l0 0.27c0,2.5 -0.86,4.38 -2.57,5.63 -1.71,1.25 -4.33,1.88 -7.85,1.88zm21.06 -0.12c-1.82,0 -3.26,-0.26 -4.32,-0.78 -1.07,-0.53 -1.83,-1.3 -2.29,-2.33 -0.47,-1.03 -0.69,-2.3 -0.69,-3.81l0 -9.96 6.98 0 0 8.83c0,0.8 0.19,1.39 0.58,1.76 0.38,0.38 1.14,0.56 2.26,0.56 0.61,0 1.22,-0.06 1.83,-0.2 0.6,-0.13 1.14,-0.29 1.64,-0.46l-0.6 5.47c-0.69,0.27 -1.49,0.5 -2.39,0.67 -0.9,0.16 -1.9,0.25 -3,0.25zm-9.75 -13.79l0 -5.22 15.54 0 -0.6 5.22 -14.94 0zm2.55 -4.77l-0.02 -4.66 6.94 -0.58 -0.24 5.24 -6.68 0zm22.31 -0.45l0 10.67c0,0.6 0.08,1.11 0.24,1.53 0.15,0.43 0.41,0.76 0.78,0.98 0.37,0.23 0.87,0.34 1.51,0.34 0.5,0 0.94,-0.08 1.33,-0.24 0.37,-0.17 0.69,-0.39 0.97,-0.66 0.27,-0.28 0.48,-0.58 0.64,-0.91l1.08 2.76 -1.14 0c-0.19,0.85 -0.53,1.62 -1,2.32 -0.47,0.69 -1.12,1.24 -1.96,1.64 -0.83,0.4 -1.92,0.6 -3.24,0.6 -1.42,0 -2.59,-0.26 -3.52,-0.79 -0.93,-0.53 -1.62,-1.33 -2.06,-2.39 -0.44,-1.06 -0.67,-2.4 -0.67,-4.02l0 -11.83 7.04 0zm12.44 0l0 18.58 -7.01 0 0.22 -4.77 -0.26 -0.68 0 -13.13 7.05 0zm9.92 19.03c-2.25,0 -3.96,-0.72 -5.12,-2.16 -1.16,-1.44 -1.74,-3.6 -1.74,-6.48l0 -1.98c0,-2.93 0.58,-5.14 1.74,-6.63 1.16,-1.49 2.93,-2.23 5.32,-2.23 1.17,0 2.13,0.18 2.9,0.56 0.77,0.38 1.38,0.91 1.83,1.59 0.43,0.68 0.75,1.48 0.92,2.41l1.81 0 -1.59 3.87c-0.02,-0.66 -0.14,-1.21 -0.37,-1.67 -0.24,-0.46 -0.57,-0.82 -0.99,-1.07 -0.44,-0.25 -0.97,-0.37 -1.61,-0.37 -0.94,0 -1.65,0.26 -2.15,0.79 -0.49,0.53 -0.73,1.32 -0.73,2.37l0 2.29c0,1.07 0.25,1.87 0.75,2.4 0.5,0.54 1.24,0.8 2.23,0.8 0.49,0 0.93,-0.08 1.33,-0.24 0.38,-0.17 0.72,-0.39 1,-0.68 0.28,-0.29 0.5,-0.62 0.66,-1l1.73 2.87 -1.95 0c-0.19,0.85 -0.51,1.62 -0.96,2.32 -0.45,0.69 -1.08,1.24 -1.89,1.64 -0.81,0.4 -1.85,0.6 -3.12,0.6zm5.99 -0.45l0.2 -4.85 -0.12 -0.92 0 -7.44 0 -0.84 -0.08 -5.46 0 -5.37 7 0 0 24.88 -7 0z"/>
    </g>
   </g>
   <g>
    <g>
     <path class="fil1" d="M0 27.83c0.84,-0.02 1.52,-0.25 2.04,-0.68 0.53,-0.43 0.89,-1.01 1.06,-1.76 0.17,-0.74 0.26,-2.02 0.27,-3.82 0.01,-1.81 0.04,-3 0.09,-3.58 0.1,-0.91 0.28,-1.63 0.54,-2.19 0.26,-0.55 0.59,-0.99 0.98,-1.32 0.38,-0.33 0.88,-0.58 1.49,-0.76 0.41,-0.1 1.07,-0.16 2,-0.16l0.56 0 0 1.83c-1.84,0.18 -3.29,1.74 -3.29,3.62l0 6.71c-0.2,0.73 -0.47,1.32 -0.81,1.78 -0.47,0.62 -1.22,1.18 -2.24,1.66 1.02,0.49 1.77,1.05 2.24,1.67 0.34,0.46 0.61,1.05 0.81,1.78l0 6.71c0,2 1.64,3.63 3.64,3.63l1.47 0c0.05,0.69 0.15,1.29 0.29,1.81l-2.67 0c-0.93,0 -1.59,-0.04 -2,-0.16 -0.61,-0.16 -1.11,-0.42 -1.49,-0.75 -0.39,-0.33 -0.72,-0.78 -0.98,-1.32 -0.26,-0.56 -0.44,-1.28 -0.54,-2.19 -0.05,-0.58 -0.08,-1.77 -0.09,-3.58 -0.01,-1.81 -0.1,-3.08 -0.27,-3.83 -0.17,-0.74 -0.53,-1.33 -1.06,-1.75 -0.52,-0.44 -1.2,-0.66 -2.04,-0.68l0 -1.34 0 -1.33zm42.9 0c-0.83,-0.02 -1.52,-0.25 -2.04,-0.68 -0.53,-0.43 -0.88,-1.01 -1.06,-1.76 -0.17,-0.74 -0.26,-2.02 -0.27,-3.82 -0.01,-1.81 -0.04,-3 -0.09,-3.58 -0.1,-0.91 -0.27,-1.63 -0.54,-2.19 -0.26,-0.55 -0.59,-0.99 -0.97,-1.32 -0.39,-0.33 -0.89,-0.58 -1.5,-0.76 -0.41,-0.1 -1.07,-0.16 -2,-0.16l-0.56 0 0 1.83c1.84,0.18 3.29,1.74 3.29,3.62l0 6.71c0.2,0.73 0.47,1.32 0.81,1.78 0.48,0.62 1.22,1.18 2.24,1.66 -1.02,0.49 -1.76,1.05 -2.24,1.67 -0.34,0.46 -0.61,1.05 -0.81,1.78l0 6.71c0,2 -1.64,3.63 -3.63,3.63l-0.39 0 0 0.13c0,0.66 -0.11,1.22 -0.3,1.68l1.59 0c0.93,0 1.6,-0.04 2,-0.16 0.61,-0.16 1.11,-0.42 1.5,-0.75 0.38,-0.33 0.71,-0.78 0.97,-1.32 0.27,-0.56 0.44,-1.28 0.54,-2.19 0.05,-0.58 0.08,-1.77 0.09,-3.58 0.01,-1.81 0.1,-3.08 0.27,-3.83 0.18,-0.74 0.53,-1.33 1.06,-1.75 0.52,-0.44 1.21,-0.66 2.04,-0.68l0 -1.34 0 -1.33z"/>
     <path class="fil2" d="M38.33 10.51l-4.46 2.83 0 -3.05c0,-0.43 -0.26,-0.8 -0.63,-0.97 -3.27,-1.74 -7.54,-2.61 -11.79,-2.61 -4.28,0 -8.58,0.88 -11.86,2.65 -0.35,0.19 -0.56,0.55 -0.56,0.93l0 0 0 3 -4.36 -2.78 16.83 -10.51 16.83 10.51z"/>
     <path class="fil2" d="M32.81 15.33l0 -5.04c-6.23,-3.36 -16.48,-3.36 -22.72,0l0 5.04c2.98,-1.61 6.97,-2.59 11.36,-2.59 4.39,0 8.38,0.98 11.36,2.59z"/>
    </g>
    <path class="fil3" d="M32.45 20.79l-9.64 0c-1.45,0 -2.64,1.19 -2.64,2.64l0 14.54c0,1.45 1.19,2.64 2.64,2.64l2.57 0 0.94 0.89 0.95 0.9 0.67 0.64c0.31,0.29 0.85,0.85 1.4,1.29 0.97,0.78 1.99,0.59 1.99,-1.25l0 -2.34 0 -0.13 1.12 0c1.45,0 2.64,-1.19 2.64,-2.64l0 -14.54c0,-1.45 -1.19,-2.64 -2.64,-2.64z"/>
    <path class="fil3" d="M10.1 17.72l12.29 0c1.25,0 2.28,1.03 2.28,2.28l0 15.72c0,1.26 -1.03,2.28 -2.28,2.28l-3.09 0 -1.02 1.45 -1.04 1.47 -0.74 1.04c-0.34,0.48 -0.92,1.38 -1.53,2.1 -1.05,1.27 -2.17,0.96 -2.17,-2.04l0 -3.81 0 -0.21 -2.7 0c-1.26,0 -2.29,-1.02 -2.29,-2.28l0 -15.72c0,-1.25 1.03,-2.28 2.29,-2.28z"/>
    <path class="fil4" d="M24.67 20.79l0 14.93c0,1.26 -1.03,2.28 -2.28,2.28l-2.21 0 -0.01 -0.03 0 -14.54c0,-1.45 1.19,-2.64 2.64,-2.64l1.86 0z"/>
   </g>
  </g>
 </g>
</svg>
