<?xml version="1.0" encoding="UTF-8"?>
<!DOCTYPE svg PUBLIC "-//W3C//DTD SVG 1.1//EN" "http://www.w3.org/Graphics/SVG/1.1/DTD/svg11.dtd">
<!-- Creator: CorelDRAW -->
<svg xmlns="http://www.w3.org/2000/svg" xml:space="preserve" width="894px" height="523px" version="1.1" style="shape-rendering:geometricPrecision; text-rendering:geometricPrecision; image-rendering:optimizeQuality; fill-rule:evenodd; clip-rule:evenodd"
viewBox="0 0 257.01 150.4"
 xmlns:xlink="http://www.w3.org/1999/xlink"
 xmlns:xodm="http://www.corel.com/coreldraw/odm/2003">
 <defs>
  <style type="text/css">
   <![CDATA[
    .fil2 {fill:#91D8F7}
    .fil3 {fill:#0AADEE}
    .fil4 {fill:#1176BC}
    .fil1 {fill:#91D8F7;fill-rule:nonzero}
    .fil0 {fill:#00AFEF;fill-rule:nonzero}
   ]]>
  </style>
 </defs>
 <g id="Layer_x0020_1">
  <metadata id="CorelCorpID_0Corel-Layer"/>
  <g id="_2192529128624">
   <g>
    <g>
     <path class="fil0" d="M12.78 150.37c-4.33,0 -7.54,-1.06 -9.63,-3.18 -2.1,-2.13 -3.15,-5.16 -3.15,-9.11l0 -4.35c0,-3.87 1.06,-6.87 3.17,-8.97 2.1,-2.09 5.28,-3.15 9.52,-3.15 1.09,0 2.1,0.07 3.01,0.22 0.92,0.14 1.75,0.34 2.51,0.58 0.75,0.26 1.43,0.55 2.02,0.88l0.59 6.57c-0.88,-0.41 -1.83,-0.76 -2.85,-1.05 -1.02,-0.3 -2.19,-0.44 -3.51,-0.44 -2.1,0 -3.64,0.5 -4.61,1.51 -0.97,1 -1.45,2.4 -1.45,4.2l0 3.68c0,1.78 0.49,3.17 1.48,4.18 0.98,1.02 2.61,1.52 4.9,1.52 1.27,0 2.41,-0.15 3.43,-0.46 1.01,-0.3 1.96,-0.68 2.83,-1.11l-0.59 6.7c-0.57,0.33 -1.24,0.63 -2.02,0.9 -0.78,0.27 -1.65,0.49 -2.58,0.65 -0.94,0.16 -1.96,0.23 -3.07,0.23zm21.73 0.03c-3.74,0 -6.56,-0.87 -8.46,-2.6 -1.9,-1.73 -2.85,-4.13 -2.85,-7.2l0 -2.69c0,-3.14 0.95,-5.6 2.86,-7.36 1.91,-1.77 4.72,-2.65 8.45,-2.65 3.73,0 6.56,0.88 8.46,2.65 1.89,1.76 2.84,4.22 2.84,7.36l0 2.69c0,3.07 -0.94,5.47 -2.84,7.2 -1.89,1.73 -4.71,2.6 -8.46,2.6zm0 -5.99c1.07,0 1.88,-0.31 2.44,-0.92 0.55,-0.6 0.83,-1.48 0.83,-2.61l0 -3.27c0,-1.22 -0.28,-2.15 -0.83,-2.78 -0.56,-0.63 -1.37,-0.95 -2.44,-0.95 -1.06,0 -1.87,0.32 -2.43,0.95 -0.56,0.63 -0.84,1.56 -0.84,2.78l0 3.27c0,1.13 0.28,2.01 0.84,2.61 0.56,0.61 1.37,0.92 2.43,0.92zm28.9 5.34l0 -12.19c0,-0.67 -0.09,-1.25 -0.26,-1.74 -0.18,-0.49 -0.48,-0.86 -0.9,-1.12 -0.43,-0.26 -1,-0.39 -1.73,-0.39 -0.56,0 -1.06,0.1 -1.5,0.28 -0.43,0.19 -0.81,0.43 -1.12,0.74 -0.31,0.32 -0.56,0.66 -0.74,1.05l-1.22 -3.14 1.29 0c0.23,-0.99 0.61,-1.88 1.15,-2.67 0.53,-0.78 1.28,-1.4 2.25,-1.85 0.95,-0.46 2.19,-0.69 3.68,-0.69 1.64,0 2.99,0.3 4.04,0.9 1.05,0.6 1.83,1.51 2.34,2.72 0.49,1.21 0.75,2.75 0.75,4.6l0 13.5 -8.03 0zm-14.19 0l0 -21.21 7.99 0 -0.25 5.45 0.29 0.78 0 14.98 -8.03 0zm40.43 0l0 -12.19c0,-0.67 -0.08,-1.25 -0.26,-1.74 -0.17,-0.49 -0.47,-0.86 -0.9,-1.12 -0.42,-0.26 -1,-0.39 -1.72,-0.39 -0.56,0 -1.06,0.1 -1.5,0.28 -0.44,0.19 -0.81,0.43 -1.12,0.74 -0.31,0.32 -0.56,0.66 -0.74,1.05l-1.23 -3.14 1.29 0c0.23,-0.99 0.62,-1.88 1.15,-2.67 0.53,-0.78 1.28,-1.4 2.25,-1.85 0.96,-0.46 2.19,-0.69 3.69,-0.69 1.63,0 2.98,0.3 4.03,0.9 1.05,0.6 1.83,1.51 2.34,2.72 0.5,1.21 0.76,2.75 0.76,4.6l0 13.5 -8.04 0zm-14.19 0l0 -21.21 7.99 0 -0.25 5.45 0.3 0.78 0 14.98 -8.04 0zm37.91 0.56c-4.28,0 -7.43,-0.88 -9.43,-2.65 -2,-1.76 -3.01,-4.35 -3.01,-7.75l0 -1.66c0,-3.37 0.95,-5.94 2.83,-7.7 1.88,-1.77 4.63,-2.65 8.25,-2.65 2.41,0 4.41,0.37 6.02,1.12 1.6,0.76 2.81,1.84 3.62,3.25 0.81,1.42 1.21,3.13 1.21,5.12l0 0.67c0,0.57 -0.02,1.15 -0.07,1.75 -0.06,0.6 -0.14,1.15 -0.25,1.65l-7.19 0c0.06,-0.87 0.1,-1.7 0.13,-2.48 0.02,-0.77 0.03,-1.47 0.03,-2.08 0,-0.75 -0.12,-1.37 -0.37,-1.89 -0.24,-0.51 -0.62,-0.9 -1.13,-1.16 -0.52,-0.27 -1.18,-0.4 -2,-0.4 -1.23,0 -2.11,0.3 -2.66,0.91 -0.56,0.6 -0.84,1.45 -0.84,2.56l0 1.91 0.05 0.82 0 1.34c0,0.44 0.08,0.87 0.25,1.29 0.17,0.42 0.48,0.79 0.92,1.1 0.45,0.33 1.08,0.59 1.91,0.77 0.82,0.19 1.89,0.28 3.21,0.28 1.35,0 2.66,-0.11 3.95,-0.31 1.29,-0.2 2.53,-0.5 3.72,-0.87l-0.63 5.53c-1.05,0.49 -2.29,0.87 -3.73,1.14 -1.45,0.25 -3.05,0.39 -4.79,0.39zm-8.19 -8.85l0 -4.48 15.75 0 0 4.48 -15.75 0zm31.03 8.87c-3.65,0 -6.35,-0.9 -8.1,-2.71 -1.76,-1.81 -2.64,-4.36 -2.64,-7.64l0 -1.83c0,-3.19 0.88,-5.69 2.64,-7.5 1.75,-1.81 4.45,-2.71 8.08,-2.71 0.89,0 1.74,0.05 2.54,0.16 0.8,0.11 1.54,0.26 2.23,0.45 0.68,0.19 1.28,0.42 1.81,0.66l0.64 6.22c-0.74,-0.36 -1.55,-0.66 -2.41,-0.89 -0.86,-0.24 -1.82,-0.36 -2.88,-0.36 -1.64,0 -2.8,0.36 -3.51,1.06 -0.7,0.7 -1.06,1.71 -1.06,3.03l0 1.4c0,1.38 0.39,2.44 1.16,3.18 0.77,0.74 1.99,1.11 3.63,1.11 1.03,0 1.97,-0.11 2.81,-0.32 0.84,-0.22 1.67,-0.51 2.48,-0.87l-0.61 6.25c-0.83,0.39 -1.84,0.7 -3.02,0.95 -1.18,0.24 -2.44,0.36 -3.79,0.36zm20.16 -0.08c-2.07,0 -3.72,-0.31 -4.93,-0.9 -1.22,-0.6 -2.09,-1.48 -2.61,-2.66 -0.53,-1.17 -0.79,-2.62 -0.79,-4.35l0 -11.36 7.97 0 0 10.07c0,0.92 0.22,1.59 0.66,2.01 0.43,0.43 1.3,0.64 2.58,0.64 0.7,0 1.4,-0.07 2.08,-0.23 0.69,-0.14 1.31,-0.32 1.87,-0.52l-0.68 6.24c-0.78,0.32 -1.69,0.57 -2.72,0.77 -1.03,0.18 -2.17,0.29 -3.43,0.29zm-11.12 -15.74l0 -5.97 17.73 0 -0.68 5.97 -17.05 0zm2.9 -5.45l-0.02 -5.32 7.92 -0.67 -0.27 5.99 -7.63 0z"/>
     <path class="fil1" d="M175.37 150.37c-1.33,0 -2.59,-0.07 -3.77,-0.23 -1.18,-0.16 -2.26,-0.37 -3.24,-0.62 -0.99,-0.25 -1.86,-0.51 -2.61,-0.78l-0.71 -7.06c1.21,0.48 2.64,0.95 4.29,1.38 1.65,0.45 3.39,0.66 5.2,0.66 1.62,0 2.75,-0.16 3.4,-0.47 0.63,-0.32 0.96,-0.83 0.96,-1.53l0 -0.09c0,-0.47 -0.16,-0.87 -0.46,-1.17 -0.32,-0.31 -0.83,-0.61 -1.56,-0.89 -0.73,-0.28 -1.7,-0.6 -2.93,-0.97 -1.98,-0.61 -3.65,-1.26 -5.02,-1.98 -1.36,-0.7 -2.39,-1.6 -3.08,-2.67 -0.7,-1.06 -1.05,-2.43 -1.05,-4.09l0 -0.33c0,-2.57 0.94,-4.52 2.81,-5.89 1.86,-1.35 4.59,-2.03 8.18,-2.03 2.1,0 3.93,0.17 5.46,0.5 1.54,0.33 2.86,0.73 3.98,1.2l0.71 6.59c-1.21,-0.52 -2.56,-0.95 -4.04,-1.29 -1.49,-0.33 -3.05,-0.5 -4.68,-0.5 -1.07,0 -1.91,0.07 -2.5,0.2 -0.6,0.14 -1.02,0.34 -1.25,0.61 -0.22,0.26 -0.34,0.59 -0.34,0.98l0 0.06c0,0.41 0.15,0.76 0.43,1.07 0.28,0.3 0.78,0.62 1.53,0.94 0.74,0.31 1.8,0.68 3.17,1.09 1.97,0.59 3.63,1.21 4.97,1.86 1.34,0.64 2.34,1.47 3.03,2.48 0.68,1.01 1.02,2.38 1.02,4.1l0 0.31c0,2.85 -0.98,5 -2.93,6.42 -1.95,1.43 -4.94,2.14 -8.97,2.14zm24.04 -0.12c-2.07,0 -3.72,-0.31 -4.93,-0.9 -1.22,-0.6 -2.09,-1.48 -2.61,-2.66 -0.53,-1.17 -0.79,-2.62 -0.79,-4.35l0 -11.36 7.97 0 0 10.07c0,0.92 0.22,1.59 0.66,2.01 0.44,0.43 1.3,0.64 2.59,0.64 0.69,0 1.39,-0.07 2.08,-0.23 0.69,-0.14 1.31,-0.32 1.87,-0.52l-0.69 6.24c-0.78,0.32 -1.69,0.57 -2.72,0.77 -1.03,0.18 -2.17,0.29 -3.43,0.29zm-11.12 -15.74l0 -5.97 17.73 0 -0.68 5.97 -17.05 0zm2.9 -5.45l-0.02 -5.32 7.92 -0.67 -0.27 5.99 -7.63 0zm25.48 -0.52l0 12.19c0,0.67 0.09,1.25 0.26,1.74 0.18,0.49 0.47,0.86 0.89,1.12 0.43,0.26 1,0.39 1.73,0.39 0.57,0 1.07,-0.09 1.51,-0.28 0.43,-0.19 0.8,-0.44 1.12,-0.75 0.31,-0.32 0.55,-0.66 0.73,-1.04l1.22 3.15 -1.29 0c-0.23,0.97 -0.6,1.86 -1.14,2.64 -0.55,0.79 -1.29,1.42 -2.24,1.88 -0.96,0.46 -2.19,0.69 -3.7,0.69 -1.62,0 -2.96,-0.3 -4.02,-0.91 -1.06,-0.6 -1.85,-1.51 -2.35,-2.72 -0.5,-1.22 -0.76,-2.75 -0.76,-4.6l0 -13.5 8.04 0zm14.18 0l0 21.21 -7.99 0 0.25 -5.45 -0.29 -0.77 0 -14.99 8.03 0zm11.33 21.73c-2.57,0 -4.51,-0.83 -5.84,-2.47 -1.32,-1.64 -1.99,-4.11 -1.99,-7.39l0 -2.26c0,-3.35 0.67,-5.88 1.99,-7.58 1.33,-1.7 3.35,-2.54 6.07,-2.54 1.33,0 2.44,0.21 3.31,0.64 0.88,0.43 1.57,1.04 2.09,1.81 0.49,0.78 0.85,1.69 1.05,2.76l2.06 0 -1.81 4.41c-0.02,-0.75 -0.15,-1.38 -0.42,-1.91 -0.27,-0.52 -0.65,-0.92 -1.13,-1.21 -0.5,-0.29 -1.11,-0.43 -1.84,-0.43 -1.07,0 -1.89,0.3 -2.45,0.9 -0.56,0.6 -0.84,1.51 -0.84,2.71l0 2.61c0,1.22 0.29,2.14 0.86,2.74 0.57,0.62 1.41,0.92 2.55,0.92 0.56,0 1.06,-0.09 1.51,-0.28 0.44,-0.19 0.83,-0.44 1.14,-0.78 0.32,-0.33 0.57,-0.71 0.75,-1.14l1.98 3.28 -2.23 0c-0.21,0.97 -0.57,1.86 -1.09,2.64 -0.51,0.79 -1.23,1.42 -2.15,1.88 -0.93,0.46 -2.11,0.69 -3.57,0.69zm6.84 -0.52l0.22 -5.53 -0.13 -1.06 0 -8.48 0 -0.97 -0.09 -6.22 0 -6.14 7.99 0 0 28.4 -7.99 0z"/>
    </g>
   </g>
   <g>
    <g>
     <path class="fil1" d="M78.03 65.48c1.97,-0.05 3.57,-0.57 4.81,-1.59 1.24,-1 2.07,-2.38 2.48,-4.13 0.4,-1.76 0.62,-4.76 0.65,-9.01 0.01,-4.26 0.08,-7.06 0.19,-8.41 0.24,-2.14 0.66,-3.85 1.28,-5.16 0.62,-1.29 1.38,-2.33 2.3,-3.11 0.91,-0.77 2.08,-1.37 3.51,-1.78 0.96,-0.24 2.53,-0.38 4.72,-0.38l1.31 0 0 4.31c-4.33,0.41 -7.74,4.08 -7.74,8.51l0 15.78c-0.47,1.73 -1.1,3.12 -1.91,4.19 -1.12,1.47 -2.87,2.79 -5.27,3.93 2.4,1.13 4.15,2.45 5.27,3.92 0.81,1.07 1.44,2.46 1.91,4.19l0 15.78c0,4.7 3.85,8.55 8.55,8.55l3.47 0c0.11,1.61 0.34,3.03 0.68,4.27l-6.27 0c-2.19,0 -3.76,-0.12 -4.72,-0.38 -1.43,-0.39 -2.6,-1.01 -3.51,-1.78 -0.92,-0.78 -1.68,-1.82 -2.3,-3.11 -0.62,-1.31 -1.04,-3.02 -1.28,-5.15 -0.11,-1.36 -0.18,-4.16 -0.19,-8.42 -0.03,-4.25 -0.25,-7.25 -0.65,-9.01 -0.41,-1.74 -1.24,-3.13 -2.48,-4.13 -1.24,-1.02 -2.84,-1.54 -4.81,-1.59l0 -3.14 0 -3.15zm100.95 0c-1.97,-0.05 -3.57,-0.57 -4.81,-1.59 -1.24,-1 -2.07,-2.38 -2.48,-4.13 -0.4,-1.76 -0.63,-4.76 -0.65,-9.01 -0.01,-4.26 -0.08,-7.06 -0.2,-8.41 -0.23,-2.14 -0.65,-3.85 -1.28,-5.16 -0.61,-1.29 -1.38,-2.33 -2.29,-3.11 -0.91,-0.77 -2.09,-1.37 -3.51,-1.78 -0.96,-0.24 -2.53,-0.38 -4.72,-0.38l-1.31 0 0 4.31c4.32,0.41 7.74,4.08 7.74,8.51l0 15.79c0.46,1.72 1.1,3.11 1.9,4.18 1.13,1.47 2.87,2.79 5.27,3.93 -2.4,1.13 -4.14,2.45 -5.27,3.92 -0.8,1.07 -1.44,2.46 -1.9,4.19l0 15.78c0,4.7 -3.85,8.55 -8.55,8.55l-0.92 0 0 0.3c0,1.56 -0.25,2.88 -0.7,3.97l3.74 0c2.19,0 3.76,-0.12 4.72,-0.38 1.43,-0.39 2.6,-1.01 3.51,-1.78 0.91,-0.78 1.68,-1.82 2.29,-3.11 0.63,-1.31 1.05,-3.02 1.28,-5.15 0.12,-1.36 0.19,-4.16 0.2,-8.42 0.02,-4.25 0.25,-7.25 0.65,-9.01 0.41,-1.74 1.24,-3.13 2.48,-4.13 1.24,-1.02 2.84,-1.54 4.81,-1.59l0 -3.14 0 -3.15z"/>
     <path class="fil2" d="M168.21 24.73l-10.48 6.67 0 -7.19c0,-1.02 -0.61,-1.89 -1.48,-2.28 -7.69,-4.09 -17.74,-6.14 -27.75,-6.14 -10.07,0 -20.19,2.08 -27.9,6.23 -0.84,0.45 -1.31,1.3 -1.31,2.19l-0.01 0 0 7.05 -10.27 -6.53 39.6 -24.73 39.6 24.73z"/>
     <path class="fil2" d="M155.23 36.07l0 -11.86c-14.67,-7.89 -38.78,-7.89 -53.45,0l0 11.86c7.01,-3.78 16.4,-6.08 26.72,-6.08 10.33,0 19.72,2.3 26.73,6.08z"/>
    </g>
    <path class="fil3" d="M154.38 48.92l-22.67 0c-3.42,0 -6.21,2.79 -6.21,6.21l0 34.22c0,3.41 2.79,6.2 6.21,6.2l6.03 0 2.21 2.1 2.24 2.12 1.58 1.5c0.74,0.7 1.99,2 3.29,3.05 2.28,1.83 4.69,1.38 4.69,-2.95l0 -5.51 -0.01 -0.31 2.64 0c3.42,0 6.21,-2.79 6.21,-6.2l0 -34.22c0,-3.42 -2.79,-6.21 -6.21,-6.21z"/>
    <path class="fil3" d="M101.79 41.7l28.92 0c2.95,0 5.37,2.41 5.37,5.37l0 36.99c0,2.95 -2.42,5.37 -5.37,5.37l-7.27 0 -2.41 3.4 -2.44 3.45 -1.73 2.45c-0.8,1.13 -2.18,3.25 -3.6,4.95 -2.48,2.98 -5.12,2.25 -5.12,-4.79l0 -8.97 0.01 -0.49 -6.36 0c-2.96,0 -5.37,-2.42 -5.37,-5.37l0 -36.99c0,-2.96 2.41,-5.37 5.37,-5.37z"/>
    <path class="fil4" d="M136.08 48.92l0 35.14c0,2.95 -2.42,5.37 -5.37,5.37l-5.21 0 0 -0.08 0 -34.22c0,-3.42 2.79,-6.21 6.21,-6.21l4.37 0z"/>
   </g>
  </g>
 </g>
</svg>
